<svg width="96" height="31" viewBox="0 0 96 31" fill="none" xmlns="http://www.w3.org/2000/svg">
<path opacity="0.3" fill-rule="evenodd" clip-rule="evenodd" d="M50.3968 8.06702C50.3968 8.44687 50.284 8.8182 50.0727 9.13404C49.8614 9.44987 49.561 9.69603 49.2096 9.8414C48.8582 9.98676 48.4715 10.0248 48.0984 9.95069C47.7254 9.87659 47.3827 9.69366 47.1137 9.42507C46.8447 9.15647 46.6616 8.81427 46.5874 8.44171C46.5132 8.06916 46.5512 7.68299 46.6968 7.33205C46.8424 6.98111 47.0889 6.68116 47.4051 6.47012C47.7214 6.25909 48.0932 6.14645 48.4736 6.14645C48.9777 6.16508 49.4561 6.3734 49.8128 6.72962C50.1696 7.08584 50.3782 7.5636 50.3968 8.06702ZM42.4532 11.9917V12.4927C42.0914 12.105 41.6501 11.7999 41.1595 11.5982C40.6688 11.3964 40.1404 11.3028 39.6102 11.3236C38.0578 11.3236 36.569 11.9395 35.4713 13.0357C34.3736 14.1319 33.7569 15.6186 33.7569 17.1689C33.7569 18.7191 34.3736 20.2058 35.4713 21.302C36.569 22.3982 38.0578 23.0141 39.6102 23.0141C40.1495 23.045 40.6885 22.9475 41.1827 22.7298C41.677 22.512 42.1124 22.1802 42.4532 21.7615V22.2625C42.4495 22.3183 42.4578 22.3742 42.4775 22.4266C42.4972 22.4789 42.5278 22.5264 42.5674 22.566C42.607 22.6055 42.6546 22.6361 42.707 22.6558C42.7594 22.6755 42.8154 22.6837 42.8713 22.68H45.2962V11.5741H42.8713C42.8154 11.5705 42.7594 11.5787 42.707 11.5984C42.6546 11.6181 42.607 11.6487 42.5674 11.6882C42.5278 11.7278 42.4972 11.7753 42.4775 11.8276C42.4578 11.88 42.4495 11.9359 42.4532 11.9917ZM42.4532 19.0894C42.1824 19.4803 41.8197 19.7989 41.3969 20.0173C40.9742 20.2357 40.5042 20.3472 40.0283 20.342C39.5916 20.3736 39.1531 20.3151 38.7401 20.1699C38.3271 20.0248 37.9485 19.7963 37.628 19.4985C37.3074 19.2008 37.0517 18.8402 36.8768 18.4394C36.702 18.0386 36.6118 17.6061 36.6118 17.1689C36.6118 16.7317 36.702 16.2991 36.8768 15.8983C37.0517 15.4975 37.3074 15.1369 37.628 14.8392C37.9485 14.5414 38.3271 14.3129 38.7401 14.1678C39.1531 14.0226 39.5916 13.9641 40.0283 13.9957C40.5023 14.0009 40.9686 14.1169 41.3897 14.3344C41.8108 14.5519 42.175 14.8649 42.4532 15.2483V19.0894ZM47.0521 11.5741H49.8951V22.68H47.0521V11.5741ZM89.5298 11.2401C88.9996 11.2193 88.4711 11.3129 87.9805 11.5147C87.4898 11.7164 87.0486 12.0215 86.6868 12.4092V6.22996H83.8438V22.68H86.2687C86.3246 22.6837 86.3806 22.6755 86.433 22.6558C86.4854 22.6361 86.533 22.6055 86.5726 22.566C86.6121 22.5264 86.6428 22.4789 86.6625 22.4266C86.6822 22.3742 86.6905 22.3183 86.6868 22.2625V21.7615C87.0371 22.1689 87.4743 22.4928 87.9662 22.7095C88.4581 22.9262 88.9924 23.0303 89.5298 23.0141C90.2975 23.0245 91.0593 22.8798 91.7696 22.5887C92.4798 22.2976 93.1237 21.866 93.6627 21.32C94.2016 20.774 94.6245 20.1248 94.9057 19.4114C95.187 18.698 95.3209 17.9352 95.2994 17.1689C95.3105 16.4012 95.17 15.6389 94.886 14.9255C94.602 14.2121 94.1801 13.5616 93.6444 13.011C93.1086 12.4605 92.4695 12.0207 91.7635 11.7169C91.0575 11.413 90.2985 11.251 89.5298 11.2401ZM89.0281 20.2585C88.554 20.2533 88.0878 20.1373 87.6667 19.9198C87.2456 19.7023 86.8814 19.3893 86.6032 19.0059V15.0813C86.8939 14.7111 87.2608 14.4077 87.6792 14.1916C88.0976 13.9755 88.5576 13.8518 89.0281 13.8287C89.4509 13.8287 89.8695 13.9119 90.2601 14.0735C90.6506 14.235 91.0055 14.4718 91.3045 14.7703C91.6034 15.0689 91.8406 15.4233 92.0023 15.8133C92.1641 16.2034 92.2474 16.6214 92.2474 17.0436C92.2474 17.4658 92.1641 17.8838 92.0023 18.2739C91.8406 18.6639 91.6034 19.0183 91.3045 19.3168C91.0055 19.6154 90.6506 19.8522 90.2601 20.0137C89.8695 20.1753 89.4509 20.2585 89.0281 20.2585ZM82.3387 16.0833V22.68H79.4957V16.4173C79.4957 14.5803 78.9104 13.8287 77.3217 13.8287C76.8779 13.8405 76.4412 13.9429 76.0386 14.1296C75.6359 14.3163 75.2758 14.5833 74.9804 14.9143V22.68H72.1374V11.5741H74.395C74.4509 11.5705 74.5069 11.5787 74.5593 11.5984C74.6117 11.6181 74.6593 11.6487 74.6989 11.6882C74.7385 11.7278 74.7691 11.7753 74.7888 11.8276C74.8085 11.88 74.8168 11.9359 74.8131 11.9917V12.4927C75.2122 12.1082 75.6838 11.8069 76.2006 11.6062C76.7174 11.4055 77.2691 11.3094 77.8234 11.3236C78.9565 11.2719 80.0655 11.6611 80.9172 12.4092C81.9206 13.1607 82.3387 14.2462 82.3387 16.0833ZM65.2807 11.2401C64.7505 11.2193 64.2221 11.3129 63.7314 11.5147C63.2408 11.7164 62.7995 12.0215 62.4377 12.4092V6.22996H59.5111V22.68H61.936C61.9919 22.6837 62.0479 22.6755 62.1003 22.6558C62.1527 22.6361 62.2003 22.6055 62.2399 22.566C62.2795 22.5264 62.3101 22.4789 62.3298 22.4266C62.3495 22.3742 62.3578 22.3183 62.3541 22.2625V21.7615C62.7044 22.1689 63.1416 22.4928 63.6335 22.7095C64.1254 22.9262 64.6597 23.0303 65.1971 23.0141C65.9713 23.0195 66.7389 22.8727 67.4562 22.5819C68.1735 22.2911 68.8265 21.8621 69.3778 21.3193C69.9291 20.7766 70.3679 20.1307 70.6693 19.4185C70.9706 18.7064 71.1285 17.9419 71.134 17.1689C71.1395 16.3958 70.9924 15.6292 70.7013 14.9128C70.4101 14.1965 69.9804 13.5444 69.4369 12.9939C68.8934 12.4434 68.2466 12.0051 67.5335 11.7042C66.8204 11.4033 66.0549 11.2456 65.2807 11.2401ZM64.779 20.2585C64.305 20.2533 63.8387 20.1373 63.4176 19.9198C62.9965 19.7023 62.6323 19.3893 62.3541 19.0059V15.0813C62.6448 14.7111 63.0118 14.4077 63.4302 14.1916C63.8486 13.9755 64.3086 13.8518 64.779 13.8287C65.2018 13.8287 65.6204 13.9119 66.011 14.0735C66.4016 14.235 66.7565 14.4718 67.0554 14.7703C67.3544 15.0689 67.5915 15.4233 67.7533 15.8133C67.915 16.2034 67.9983 16.6214 67.9983 17.0436C67.9983 17.4658 67.915 17.8838 67.7533 18.2739C67.5915 18.6639 67.3544 19.0183 67.0554 19.3168C66.7565 19.6154 66.4016 19.8522 66.011 20.0137C65.6204 20.1753 65.2018 20.2585 64.779 20.2585ZM57.0862 11.2401C57.538 11.2302 57.9887 11.2865 58.4241 11.4071V14.0792C58.4241 14.0792 56.0828 13.2442 54.5777 14.9978V22.7636H51.7347V11.5741H54.1596C54.2155 11.5705 54.2715 11.5787 54.3239 11.5984C54.3763 11.6181 54.4239 11.6487 54.4635 11.6882C54.503 11.7278 54.5337 11.7753 54.5534 11.8276C54.5731 11.88 54.5814 11.9359 54.5777 11.9917V12.4927C54.8801 12.115 55.261 11.8074 55.6941 11.5912C56.1273 11.3749 56.6022 11.2551 57.0862 11.2401ZM27.5692 21.678C27.3938 21.3311 27.2537 20.9674 27.1511 20.5925C26.8935 20.1076 26.67 19.6053 26.4822 19.0894C24.4754 14.6638 22.2177 10.1546 19.9601 5.72894L19.8764 5.56193C19.6256 5.14442 19.3747 4.6434 19.1239 4.14238C18.8196 3.5761 18.4552 3.04419 18.0368 2.55583C17.5878 1.98739 17.0164 1.52711 16.3651 1.2091C15.7137 0.891099 14.9991 0.72351 14.2741 0.718757C13.5564 0.717532 12.8474 0.873997 12.1971 1.17705C11.5468 1.48009 10.9713 1.92231 10.5113 2.47233C10.1207 2.98133 9.75783 3.51094 9.42425 4.05888C9.17339 4.55989 8.92255 4.97742 8.67169 5.47844L8.58807 5.64544C6.3304 10.0711 4.07271 14.5803 2.06589 19.0059V19.0894C1.87809 19.6053 1.65458 20.1076 1.39696 20.5925C1.20756 20.9331 1.06684 21.2985 0.978871 21.678C0.584053 22.6865 0.468522 23.7826 0.644406 24.8511C0.805621 25.9339 1.24454 26.9566 1.91852 27.8198C2.59251 28.6831 3.47864 29.3576 4.49082 29.7778C5.2554 30.1115 6.08131 30.2821 6.91572 30.2788C7.16946 30.2924 7.4237 30.2642 7.66827 30.1953C8.71072 30.1031 9.71511 29.7593 10.5949 29.1933C11.9823 28.3714 13.2252 27.3276 14.2741 26.1037C15.3417 27.3085 16.5814 28.3496 17.9532 29.1933C18.8444 29.7354 19.843 30.0773 20.8798 30.1953C21.1307 30.1953 21.3816 30.2788 21.6324 30.2788C22.4668 30.2821 23.2927 30.1115 24.0573 29.7778C25.0713 29.3604 25.9592 28.6867 26.6335 27.8229C27.3079 26.9591 27.7457 25.935 27.9037 24.8511C28.0418 23.7819 27.9272 22.6951 27.5692 21.678ZM14.1904 23.1811C12.7982 21.5841 11.771 19.7034 11.1802 17.6699C11.0291 17.0693 11.0006 16.4445 11.0966 15.8328C11.1603 15.381 11.3324 14.9513 11.5983 14.5803C11.887 14.1619 12.2746 13.8211 12.7268 13.588C13.1789 13.355 13.6817 13.2369 14.1904 13.2442C14.7007 13.2277 15.2068 13.3418 15.6605 13.5756C16.1142 13.8094 16.5005 14.1553 16.7826 14.5803C17.0484 14.9513 17.2206 15.381 17.2843 15.8328C17.3787 16.4446 17.3502 17.0691 17.2007 17.6699C16.5748 19.6888 15.5514 21.5626 14.1904 23.1811ZM25.9805 24.6006C25.8747 25.3556 25.5717 26.0695 25.102 26.6705C24.6323 27.2715 24.0125 27.7384 23.3048 28.0242C22.5964 28.3379 21.816 28.4534 21.0471 28.3582C20.2518 28.2607 19.4842 28.0052 18.7894 27.6067C17.5138 26.8673 16.381 25.9057 15.4447 24.7676C17.3679 22.346 18.6222 20.175 19.0403 18.2544C19.2154 17.4316 19.2717 16.588 19.2075 15.7493C19.1057 15.0206 18.8177 14.3305 18.3713 13.7452C17.9016 13.0792 17.2738 12.5399 16.5442 12.1756C15.8145 11.8113 15.0058 11.6333 14.1904 11.6577C13.378 11.651 12.5755 11.8368 11.8488 12.1996C11.122 12.5625 10.4917 13.0922 10.0096 13.7452C9.59708 14.3494 9.31254 15.0314 9.17338 15.7493C9.06718 16.5873 9.12398 17.4379 9.34062 18.2544C10.0433 20.6888 11.2704 22.9403 12.9362 24.8511C11.9618 25.9511 10.8356 26.9071 9.59147 27.6902C8.89666 28.0887 8.12904 28.3442 7.33381 28.4418C6.56474 28.5495 5.78087 28.4335 5.07612 28.1077C4.36841 27.8219 3.74854 27.355 3.27884 26.754C2.80913 26.153 2.50617 25.4391 2.40038 24.6841C2.32192 23.8958 2.40731 23.0998 2.65122 22.346C2.75547 22.0251 2.89572 21.717 3.06931 21.4275C3.25711 20.9116 3.48062 20.4094 3.73824 19.9244V19.8409C5.74506 15.4153 8.00275 10.9061 10.2604 6.56397L10.344 6.39696C10.5949 5.97945 10.8457 5.47844 11.0966 5.06092C11.3256 4.58643 11.606 4.1384 11.9328 3.72487C12.21 3.37279 12.5665 3.09098 12.9733 2.90236C13.3802 2.71375 13.8258 2.62363 14.2741 2.63933C14.7194 2.64236 15.1589 2.74084 15.5628 2.92812C15.9667 3.11539 16.3257 3.3871 16.6154 3.72487C16.9421 4.1384 17.2225 4.58643 17.4515 5.06092C17.7024 5.47844 17.9532 5.97945 18.2041 6.39696L18.2877 6.56397C20.5454 10.9896 22.7194 15.4988 24.8099 19.8409C25.0607 20.342 25.2279 20.843 25.4788 21.344C25.6371 21.6412 25.7767 21.948 25.8969 22.2625C26.0902 23.0272 26.1187 23.8241 25.9805 24.6006Z" fill="black"/>
</svg>
