<svg width="35" height="41" viewBox="0 0 35 41" fill="none" xmlns="http://www.w3.org/2000/svg">
<path d="M33.2808 31.6389C32.6923 32.9999 31.9645 34.298 31.1087 35.5127C29.9603 37.1165 29.0365 38.2516 28.3124 38.8684C27.1889 39.8801 25.9905 40.3982 24.7172 40.4476C23.7934 40.4476 22.6949 40.1761 21.3966 39.658C20.2681 39.1731 19.0564 38.9051 17.8263 38.8684C16.5631 38.8966 15.317 39.1646 14.1562 39.658C12.833 40.1761 11.7844 40.4476 10.9854 40.4969C9.76205 40.5463 8.53867 40.0034 7.3153 38.8931C6.54132 38.2269 5.56761 37.0672 4.39417 35.4387C3.07258 33.564 2.03 31.5115 1.29828 29.3442C0.457402 27.015 0.0185323 24.5628 0 22.0899C0 19.4005 0.574238 17.1058 1.74768 15.1565C2.63255 13.6325 3.90671 12.3648 5.44278 11.48C6.9483 10.5983 8.66133 10.1219 10.4112 10.0983C11.3849 10.0983 12.6582 10.3944 14.2561 10.9865C15.854 11.5787 16.8526 11.8748 17.302 11.8748C17.6266 11.8748 18.7751 11.5294 20.6975 10.8385C22.5201 10.197 24.0431 9.92555 25.2914 10.0242C28.6869 10.2957 31.2585 11.6281 32.9563 14.0215C29.9103 15.8474 28.4123 18.3888 28.4373 21.6705C28.4267 22.8659 28.6701 24.0502 29.1518 25.1467C29.6335 26.2433 30.3427 27.2278 31.2336 28.0364C32.0474 28.8058 32.9946 29.4242 34.0299 29.8623C33.7552 30.4545 33.5305 31.0714 33.2808 31.6389ZM25.4662 1.28957C25.4662 3.28819 24.7172 5.16343 23.2442 6.89062C21.4715 8.93858 19.3244 10.1229 16.9775 9.95023C16.9476 9.69627 16.9309 9.44097 16.9275 9.18533C16.9275 7.26074 17.7764 5.21278 19.2744 3.53493C20.0756 2.65263 21.0422 1.93204 22.1207 1.41295C23.1348 0.887301 24.2487 0.576371 25.3913 0.5C25.4522 0.758653 25.4774 1.02425 25.4662 1.28957Z" fill="black"/>
</svg>
