<?xml version="1.0" encoding="utf-8"?>
<!-- Generator: Adobe Illustrator 26.5.0, SVG Export Plug-In . SVG Version: 6.00 Build 0)  -->
<svg version="1.1" id="Layer_1" xmlns="http://www.w3.org/2000/svg" xmlns:xlink="http://www.w3.org/1999/xlink" x="0px" y="0px"
	 viewBox="0 0 54 53" style="enable-background:new 0 0 54 53;" xml:space="preserve">
<style type="text/css">
	.st0{fill-rule:evenodd;clip-rule:evenodd;}
</style>
<g>
	<path class="st0" d="M30.4,11.7c0.4-0.4,0.7-1,0.7-1.6c0-0.3-0.1-0.6-0.2-0.9c-0.1-0.3-0.3-0.5-0.5-0.7c0.3-0.3,0.4-0.7,0.5-1.1
		c0.1-0.4,0-0.8-0.2-1.2c-0.2-0.4-0.5-0.7-0.8-0.9C29.5,5.1,29.1,5,28.7,5h-5.1v7.3h5.2C29.4,12.3,29.9,12.1,30.4,11.7z M25.3,6.6
		h3.1c0.2,0,0.3,0.1,0.4,0.2C29,6.9,29.1,7,29.1,7.2c0,0.2-0.1,0.3-0.2,0.4c-0.1,0.1-0.3,0.2-0.4,0.2h-3.1V6.6z M25.3,10.8V9.4h3.2
		c0.2,0,0.4,0.1,0.5,0.2s0.2,0.3,0.2,0.5c0,0.1,0,0.2-0.1,0.3c0,0.1-0.1,0.2-0.2,0.2s-0.1,0.1-0.2,0.1c-0.1,0-0.2,0.1-0.3,0H25.3z"
		/>
	<path class="st0" d="M24.8,19.8H29l0.6,1.2h1.9l-3.8-7.3h-1.7l-3.7,7.3h1.9L24.8,19.8z M26.9,15.6l1.3,2.7h-2.6L26.9,15.6z"/>
	<polygon class="st0" points="26,29.9 27.8,29.9 27.8,27.4 31.6,22.6 29.5,22.6 26.9,26 24.4,22.6 22.2,22.6 26,27.4 	"/>
	<polygon class="st0" points="32.7,29.9 39.5,29.9 39.5,28.4 34.5,28.4 34.5,27 39.3,27 39.3,25.4 34.5,25.4 34.5,24.2 39.5,24.2 
		39.5,22.6 32.7,22.6 	"/>
	<path class="st0" d="M47.2,27.1c0.5-0.1,0.9-0.4,1.2-0.8c0.3-0.4,0.5-0.9,0.5-1.4c0-0.6-0.3-1.2-0.7-1.6c-0.4-0.4-1-0.7-1.6-0.7H42
		v7.3h1.8v-2.8h1.3l2.1,2.8h2.1L47.2,27.1z M46.9,25.4c-0.1,0.1-0.3,0.2-0.5,0.2h-2.6v-1.4h2.6c0.2,0,0.4,0.1,0.5,0.2
		c0.1,0.1,0.2,0.3,0.2,0.5C47.1,25.1,47,25.2,46.9,25.4z"/>
	<path class="st0" d="M17.6,22.6l-3.7,7.3h1.9l0.6-1.2h4.2l0.6,1.2h1.9l-3.8-7.3H17.6z M17.1,27.1l1.3-2.7l1.3,2.7H17.1z"/>
	<path class="st0" d="M12.1,26.1c0.3-0.4,0.5-0.9,0.5-1.4c0-0.3-0.1-0.6-0.2-0.8c-0.1-0.3-0.3-0.5-0.5-0.7c-0.2-0.2-0.4-0.4-0.7-0.5
		c-0.3-0.1-0.5-0.2-0.8-0.2H5.3v7.3h5.2c0.6,0,1.2-0.2,1.6-0.6c0.4-0.4,0.7-1,0.7-1.6c0-0.3-0.1-0.6-0.2-0.9
		C12.5,26.6,12.4,26.3,12.1,26.1z M7.1,24.2h3.1c0.2,0,0.3,0.1,0.4,0.2c0.1,0.1,0.2,0.3,0.2,0.4s-0.1,0.3-0.2,0.4
		c-0.1,0.1-0.3,0.2-0.4,0.2H7.1V24.2z M11,27.9c0,0.1-0.1,0.2-0.2,0.2c-0.1,0.1-0.1,0.1-0.2,0.1c-0.1,0-0.2,0.1-0.3,0H7.1V27h3.2
		c0.2,0,0.4,0.1,0.5,0.2s0.2,0.3,0.2,0.5C11,27.8,11,27.9,11,27.9z"/>
	<polygon class="st0" points="30.3,33.1 30.3,31.5 23.5,31.5 23.5,38.8 30.3,38.8 30.3,37.3 25.3,37.3 25.3,35.9 30.1,35.9 
		30.1,34.3 25.3,34.3 25.3,33.1 	"/>
	<path class="st0" d="M30.4,44.1c0.3-0.4,0.4-0.8,0.4-1.3c0-0.6-0.3-1.2-0.7-1.6c-0.4-0.4-1-0.7-1.6-0.7h-5v7.3h1.8v-2.8h2.1
		l2.1,2.8h2.1l-2.3-2.9C29.8,44.8,30.2,44.5,30.4,44.1z M29,43.1c0,0.1-0.1,0.2-0.2,0.2c-0.1,0.1-0.1,0.1-0.2,0.1
		c-0.1,0-0.2,0.1-0.3,0h-3v-1.4h3c0.1,0,0.2,0,0.3,0c0.1,0,0.2,0.1,0.2,0.1c0.1,0.1,0.1,0.1,0.2,0.2c0,0.1,0.1,0.2,0.1,0.3
		C29.1,42.9,29,43,29,43.1z"/>
	<path class="st0" d="M26.9,0C12.1,0,0.1,11.7,0.1,26.2c0,14.5,12,26.2,26.9,26.2c14.8,0,26.9-11.7,26.9-26.2
		C53.8,11.7,41.8,0,26.9,0z M26.9,50C13.5,50,2.6,39.3,2.6,26.2c0-13.1,10.9-23.8,24.4-23.8c13.5,0,24.4,10.6,24.4,23.8
		C51.3,39.3,40.4,50,26.9,50z"/>
</g>
</svg>
