<?xml version="1.0" encoding="utf-8"?>
<!-- Generator: Adobe Illustrator 26.5.0, SVG Export Plug-In . SVG Version: 6.00 Build 0)  -->
<svg version="1.1" id="Layer_1" xmlns="http://www.w3.org/2000/svg" xmlns:xlink="http://www.w3.org/1999/xlink" x="0px" y="0px"
	 viewBox="0 0 78 42" style="enable-background:new 0 0 78 42;" xml:space="preserve">
<style type="text/css">
	.st0{fill-rule:evenodd;clip-rule:evenodd;}
</style>
<path d="M0.9,38.7h2v0.6H1.7v0.6h1.2v0.6H1.7v0.7H3v0.6H0.9V38.7z M73.3,38.7h2.2v0.6h-0.7v2.4h-0.8v-2.4h-0.7V38.7z M66.7,38.7h1
	l0.9,1.8c0,0.1,0.1,0.1,0.1,0.2c0,0.1,0.1,0.2,0.1,0.4c0-0.1,0-0.3-0.1-0.4c0-0.1,0-0.2,0-0.3v-1.7h0.7v2.9h-1l-0.9-1.8
	c0-0.1-0.1-0.2-0.1-0.3c0-0.1-0.1-0.2-0.1-0.3c0,0.2,0,0.3,0.1,0.5c0,0.1,0,0.3,0,0.4v1.6h-0.7V38.7z M60.9,38.7h2v0.6h-1.3v0.6h1.2
	v0.6h-1.2v0.7H63v0.6h-2.1V38.7z M53.8,38.7H55l0.5,1.8c0,0.1,0,0.1,0,0.2c0,0.1,0,0.2,0,0.3c0-0.1,0-0.2,0-0.3c0-0.1,0-0.2,0-0.2
	l0.5-1.8h1.1v2.9h-0.7v-2c0-0.1,0-0.2,0-0.3c0-0.1,0-0.2,0-0.3c0,0.1,0,0.2-0.1,0.3c0,0.1,0,0.2-0.1,0.2l-0.6,2.1h-0.7l-0.6-2.1
	c0-0.1,0-0.2-0.1-0.2c0-0.1,0-0.2-0.1-0.3c0,0.1,0,0.3,0,0.4c0,0.1,0,0.2,0,0.3v2h-0.7V38.7z M47.4,38.7h1l0.9,1.8
	c0,0.1,0.1,0.1,0.1,0.2c0,0.1,0.1,0.2,0.1,0.4c0-0.1,0-0.3-0.1-0.4c0-0.1,0-0.2,0-0.3v-1.7h0.7v2.9h-1l-0.9-1.8
	c0-0.1-0.1-0.2-0.1-0.3c0-0.1-0.1-0.2-0.1-0.3c0,0.2,0,0.3,0.1,0.5c0,0.1,0,0.3,0,0.4v1.6h-0.7V38.7z M42.8,38.7h0.8v2.9h-0.8V38.7z
	 M37.9,39.4l-0.4,1.1h0.8L37.9,39.4z M37.4,38.7h0.9l1.1,2.9h-0.8l-0.2-0.6h-1.1l-0.2,0.6h-0.8L37.4,38.7z M31,38.7h2.2v0.6h-0.7
	v2.4h-0.8v-2.4H31V38.7z M26,39.3V40h0.3c0.2,0,0.3,0,0.4-0.1c0.1-0.1,0.1-0.2,0.1-0.3c0-0.1,0-0.2-0.1-0.3
	c-0.1-0.1-0.2-0.1-0.4-0.1H26z M25.2,38.7h1.2c0.4,0,0.7,0.1,0.9,0.2c0.2,0.1,0.3,0.3,0.3,0.6c0,0.2,0,0.3-0.1,0.5
	c-0.1,0.1-0.2,0.2-0.4,0.2c0.2,0.1,0.3,0.2,0.4,0.5c0,0,0,0,0,0l0.4,1h-0.8l-0.3-0.8c0-0.1-0.1-0.2-0.2-0.3c-0.1,0-0.2-0.1-0.3-0.1
	H26v1.2h-0.8V38.7z M19.4,38.7h2v0.6h-1.3v0.6h1.2v0.6h-1.2v0.7h1.3v0.6h-2.1V38.7z M13.5,38.7h2.2v0.6H15v2.4h-0.8v-2.4h-0.7V38.7z
	 M6.8,38.7h1l0.9,1.8c0,0.1,0.1,0.1,0.1,0.2c0,0.1,0.1,0.2,0.1,0.4c0-0.1,0-0.3-0.1-0.4c0-0.1,0-0.2,0-0.3v-1.7h0.7v2.9h-1l-0.9-1.8
	c0-0.1-0.1-0.2-0.1-0.3c0-0.1-0.1-0.2-0.1-0.3c0,0.2,0,0.3,0.1,0.5c0,0.1,0,0.3,0,0.4v1.6H6.8V38.7z"/>
<path class="st0" d="M20.7,29.7c0,0,0.2,0.7,0.6,0.4c0.4-0.3,0.6-0.7,0.9-0.7c0.4,0,2-0.3,2.4,0c0.4,0.3,0.4,0,0.6,0
	s0.8,0.1,0.8,0.1c0.5-0.1,0.4-0.9,0-1.1c-0.5-0.4-1.2-0.7-1.8-1.1c-0.1-0.4-0.1-0.8-0.2-1.2c0.1-0.2,0.3-0.4,0.4-0.6
	c0-0.7,0-1.3,0-2c-0.1-0.2-0.2-0.4-0.2-0.5c0-0.5-0.1-1-0.1-1.5c-0.1-0.1-0.1-0.2-0.2-0.3c0-0.2,0-0.4,0-0.6
	c0.1-0.2,0.4-0.4,0.5-0.6c0-0.4-0.1-0.6-0.1-1c-0.1-0.5-0.1-1.1-0.2-1.5c0-0.6,0-1.1,0-1.7c0.4-0.1,0.5-0.3,0.5-0.5
	c0-0.2-0.1-0.5-0.2-1c-0.1-2.8-0.1-5.6-0.1-8.4c0.2-0.3,0.5-0.5,0.5-0.7c0-0.2-0.2-0.3-0.5-0.6c0-0.2,0-0.4,0-0.6
	c0,0,0.4-0.9,0.8-0.9s0.6-0.3,0.6-0.5c0.3-0.6-0.4-0.7-0.4-0.7c-0.8,0-1.6,0-2.3,0c-0.6,0-1.2-0.1-1.8-0.1c-0.3,0-0.6,0-0.8,0
	c-0.7,0.2-0.5,0.6-0.3,0.8c0.3,0.2,0.6,0.4,0.9,0.4c0.4,0,0.8,0.2,0.9,0.6c0,1.8,0.1,3.5,0.1,5.3c0,1.3,0.1,2.6,0.1,3.9
	c0,1.3,0,2.6,0,3.9c0,1.5,0.1,3.1,0.1,4.6c0,0-0.1,0.6-0.2,0.7c-0.1,0.1-0.1,1.3-0.1,1.3c0.4,0.4,0.3,0.3,0,0.8
	c0,1.1-0.1,2.3-0.1,3.4c-0.1,0.2-0.2,0.4-0.3,0.6C21.8,28.5,20.7,29.2,20.7,29.7z"/>
<path class="st0" d="M13.5,25.6c0-0.3,0.4-0.5,0.5-0.8c0-0.8,0-1.7,0-2.6c0-0.8,0-1.6,0-2.4c-0.1-0.4-0.6-0.4-0.7-0.7
	c-0.2-1.1,0.3-2.3,0.1-3.4c-0.1-0.4-0.8-0.5-0.9-0.9c-0.1-0.5,0.3-1,0.1-1.4c-0.3-0.4-1.5-0.1-1.4-0.6c0.1-0.5,0.6-0.9,0.9-1.3
	c0.5-0.7,0.9-1.4,1.3-2.1c0.3-0.5,0.5-1.1,0.5-1.7c0-0.7-0.2-1.8-0.2-2.8c-0.1-0.8-0.4-1.3-1-1.8c-0.3-0.4-1-0.3-1.4-0.5
	c-0.3-0.2-0.4-0.8-0.8-0.8C8.2,1.6,6,1.8,3.8,1.9c-0.3,0-0.5,0.2-0.7,0.2C2.6,2.2,1.7,2,1.2,2.2C0.9,2.4,0.7,3,0.9,3.3
	C1.2,4.1,1.9,4.4,2.5,5C2.6,5.1,3,4.9,3,5c0.1,0.2,0.1,0.5,0,0.7C3,5.9,2.6,6,2.6,6.2c0.1,2.1,0,4.3-0.1,6.4c0,0.9,0.3,0.4,0.4,0.8
	c0.1,0.3,0.1,0.6,0,0.9C2.8,15,2.7,15,2.7,15.8c0,0.6,0,1.5,0.2,1.8c0.2,0.3,0,0.6,0,0.8c0,0.5-0.1,0.6-0.2,0.9c0,0.6-0.2,5.7,0,7.2
	c0.3,1,0.2,3.9-0.1,6.2c-0.3,0.5-0.1,1.2-0.4,1.5c-0.1,0.2-0.4,0.3-0.6,0.4c-0.1,0.1-0.5,0.1-0.6,0.2c-0.2,0.2-0.1,0.5,0.5,0.6h0
	c1,0.2,2.5,0,3.3,0c0.8,0.1,0.3,0.2,1-0.3c0.1-0.1,0.3-0.1,0.5,0c0.2,0.2,0.1,0.4,0.4,0.4c0.3,0,0.4-0.2,0.7-0.3
	c0.3-0.1,0.9,0,1.2-0.2c0.2,0,0.7-0.6,1.4-1.2c0.5-0.4,1.3-0.8,1.9-1c0.4-0.5,0.3-1.5,0.5-2.2c0.3-0.8,1-1.4,1.1-2.3
	C13.7,27.3,13.4,26.4,13.5,25.6z M7.2,5.7c0-0.4,0.3-0.4,0.7-0.4c0.4,0,1.1,0,1.1,0.2c0.1,0.2,0.1,0.5,0.7,0.4
	c0.6-0.1,0.5,0.4,0.2,0.6S9.8,6.9,10,7.1c0.2,0.2,0.1,0.7,0,0.8C9.8,8.1,10,8.7,10,9.3C10.1,9.9,9.9,10,9.9,10s-0.2,0.1-0.7,0.1
	c-0.3,0-0.6,0.6-0.9,1c-0.2,0.3-0.2,0.5-0.4,0.5c-0.1,0.1-0.3,0-0.7,0c0,0,0-3.4-0.1-3.6C7.2,7.9,7.2,6.1,7.2,5.7z M10.1,24.3
	c0.1,0.5,0.1,0.9,0,1.4C10,26.3,9.8,27,9.7,27.6c0,0.5-0.1,1-0.1,1.4c-0.1,0.7-0.1,0.7-0.7,1.3c-0.5,0.5-1.1,0.9-1.5,1.3
	C6.9,31.8,6.5,31.8,6,32c0.2-0.3,0.4-0.7,0.5-1c-0.1-1.2-0.1-2.3-0.2-3.5c0.2-0.2,0.3-0.4,0.5-0.6c0-1.2,0-2.3,0-3.5
	c0-0.5-0.1-1.1-0.1-1.6c-0.5-0.5-0.3-0.4,0.2-1c0-0.5,0.1-0.9,0.1-1.4C7.1,19,7,18.6,7,18.1c0.1-0.2,0.2-0.4,0.2-0.6
	c0-0.6,0.1-1.2,0.1-1.8c0-0.6,0-0.8,0.1-0.8c0.1,0,0.3,0.3,0.7,0.7c0.3,0.3,0.6,0.5,0.8,0.8c0.5,0.5,1,0.5,0.8,1.4
	c-0.2,0.8,0.4,1,0.2,1.7c-0.1,0.6-0.3,0.9-0.3,1.3c0,0.2,0.1,0.4,0.4,0.7c0.2,0.2,0.3,0.2,0.2,0.5c-0.2,0.5-0.4,0.8-0.4,1
	C9.8,23.5,10,23.6,10.1,24.3z"/>
<path class="st0" d="M27.3,28.3c0,0.2-0.4,0.2-0.4,0.3c0,0.2,0.1,0.6,0.3,0.6c0.7,0.1,1.6-0.2,2.2-0.1c0.3,0,0.3,0.5,0.5,0.6
	c0.2,0,0.5,0,0.7,0c0.2-0.1,0.1-0.4,0.3-0.6c0.2-0.1,0.5-0.2,0.8-0.1c0.1,0,0,0.4,0.1,0.4c1.1,0,2.2,0.1,3.3,0c0.2,0,0-0.3,0.2-0.5
	c0.2-0.1,0.7,0.1,0.7-0.1c0.2-1.3-0.1-2.7,0-4c0-0.4,0.4-0.7,0.5-1.1c0-0.1,0.2-0.1,0.2-0.3c0-0.5,0-1-0.1-1.5
	C36.6,22,36.1,21.9,36,22c-0.2,0.1,0,0.6-0.1,0.8c-0.1,0.1-0.3-0.1-0.3,0c-0.1,0.1,0,0.2,0,0.4c0,0.1,0,0.1,0,0.2
	c-0.3,0.2-0.7-0.2-1,0c-0.3,0.2,0,0.6-0.2,0.8c-0.4,0.4-1.1,0.6-1.5,1c-0.4,0.5-0.4,1-0.9,1.4c-0.4,0.3-1,0.4-1.5,0.5
	c-0.5,0.2-0.8,0.6-1.4,0.8c-0.2,0-0.4-0.2-0.3-0.4c0.4-1.4,1-2.7,1.4-4.1c0.3-0.9,0.4-1.4,0.7-2.3c0.3-0.9,0.7-2,1.3-2.8
	c0.1-0.2,0.5-0.1,0.5-0.2c0.1-0.4-0.1-0.9,0-1.4c0.1-0.3,0.4-0.6,0.7-0.8c0.2-0.1,0.5,0,0.6-0.2c0.2-0.5,0-1,0.1-1.6
	c0.1-0.4,0.3-0.6,0.5-0.9c0.2-0.4,0.2-0.8,0.4-1.2c0.2-0.3,0.6-0.8,0.7-1.2c0.2-0.5,0-0.8,0.1-1.3c0-0.1,0.2-0.2,0.2-0.4
	c0.1-1.7,0.2-3.5,0.1-5.2c0-0.1-0.3-0.1-0.3-0.3c0-0.5,0.1-1,0-1.5c0-0.1,0-0.2-0.1-0.2c-1.4-0.1-2.9,0-4.3,0c-1.2,0-2.4-0.1-3.5,0
	c-0.2,0-0.3,0-0.5,0.2c-0.1,0.1-0.2,0.4-0.2,0.6c0,0.8,0,1.6,0,2.5c0,0.2,0.3,0.1,0.4,0.2c0.2,0.4,0.2,1,0.1,1.4
	c0,0.2-0.2,0.4-0.2,0.5c0.1,0.5,0.1,0.9,0.2,1.4c0.1,0.2,0.2,0.4,0.3,0.6c0.1,0.2-0.2,0.7,0.1,0.7c0.1,0,0.4,0.1,0.5,0
	c0.2-0.1-0.1-0.4,0-0.6c0-0.1,0.3-0.1,0.3-0.3c0.1-0.8-0.1-1.6,0-2.4c0-0.2,0.2-0.5,0.4-0.6c0.2-0.1,0.5,0.2,0.6,0
	c0.2-0.2,0-0.5,0.1-0.7c0.2-0.4,0.4-0.7,0.7-1c0.3-0.2,0.5-0.5,0.9-0.6C32.6,4,33.5,4,34.6,4c0.1,0,0.1,0.2,0.1,0.3
	c0,0.5,0.1,1.2,0,1.5c-0.2,0.5-0.6,1-1.1,1.5c-0.3,0.3-0.6,0.6-0.8,1c-0.3,0.4,0.1,1,0,1.4c-0.1,0.5-0.5,1-0.8,1.4
	c-0.3,0.3-0.6,0.5-0.9,0.8c-0.3,0.4-0.5,0.8-0.7,1.3c-0.2,0.4-0.3,0.8-0.3,1.2c-0.1,0.3,0.1,0.7,0,1c-0.1,0.2-0.4,0.2-0.5,0.4
	c-0.2,0.3-0.4,0.6-0.5,0.9c-0.1,0.4-0.1,0.6-0.3,1c-0.2,0.4-0.7,0.8-0.9,1.2c-0.2,0.4-0.2,1-0.4,1.5c-0.1,0.5-0.2,0.9-0.3,1.4
	c-0.1,0.6-0.2,1.2-0.2,1.8c0,0.2,0.2,0.3,0.3,0.5c0.1,0.1,0.2,0.3,0.2,0.4c-0.1,0.2-0.4,0.2-0.5,0.4c0,0.2,0,0.4,0.2,0.6
	c0.1,0.1,0.4,0.1,0.5,0.2c0.1,0.2,0.1,0.4,0,0.6c-0.1,0.2-0.3,0.1-0.4,0.3C27.3,27.1,27.5,27.6,27.3,28.3z"/>
<path class="st0" d="M77.1,14.6c0.1-1.2,0.1-2.3,0-3.5c0-0.3-0.3-0.6-0.4-0.9c-0.1-1,0.1-2-0.1-3c-0.1-0.4-0.3-0.7-0.5-1
	c-0.2-0.4-0.2-0.9-0.4-1.4c-0.2-0.3-0.6-0.5-0.8-0.7c-0.8-0.8-0.6-0.5-1.7-0.7c-0.2,0-0.3-0.3-0.6-0.3c-0.4-0.1-1-0.3-1.3-0.4
	c-0.3-0.1-0.5,0.1-0.7,0.1c-0.1,0-1.2-0.3-1.2-0.4C69,2.2,68.9,2,68.6,1.8c-0.2-0.1-1.1-0.6-1.3-0.7c-0.3-0.1-0.5,0-0.7-0.1
	c-0.1,0-0.3-0.2-0.5-0.3c-0.3-0.1-0.8-0.1-1.1-0.1c-0.3,0-0.5,0-0.4,0.3c0.3,0.4,0.5,0.6,0.8,0.8C65.7,2,66,2.3,66.3,2.6
	c0.3,0.2,0.6,0.4,0.7,0.7c0.2,0.5,0.1,1.1,0,1.7c0,0.1-0.2,0.3-0.2,0.4c0,0.7,0,1,0.1,1.8c0,0.2-0.3,0.2-0.3,0.3c-0.1,1,0,1.8,0,2.8
	c0,0.9,0,1.9,0,2.8c0,0.2,0.1,0.3,0.1,0.4c0,0.4,0,0.7,0,1.1c0,0.4,0,0.8,0,1.3c0,0.2,0.1,0.2,0.2,0.3c0.1,0.8,0,1.7,0,2.5
	c0,0.1,0.3,0.3,0.3,0.4c0.1,0.6-0.1,1.3,0.1,1.9c0.1,0.3,0.3,0.7,0.5,1c0.2,0.4,0.5,0.7,0.5,1.1c0.1,0.8-0.1,1-0.2,1.8
	c0,1-0.3,2-0.3,3c0,0.4,0.3,0.8,0.5,1.2c0.1,0.2,0.1,0.6,0.3,0.8c0.1,0.2,0.4,0.2,0.3,0.4c-0.1,0.1-0.2,0.3-0.4,0.4
	c-0.3,0.1-0.8,0.2-0.8,0.4c-0.1,0.3,0.1,0.5,0.3,0.8c0.1,0.2,0.2,0.6,0.1,1c0,0.3-0.2,0.5-0.2,0.7c-0.1,0.4-0.3,0.6-0.5,0.8
	c-0.1,0.1-0.4,0.2-0.3,0.5c0.1,0.2,0.3,0.1,0.5,0.1c0.4,0,0.8-0.1,1.2-0.2c0.2,0,0.1-0.2,0.3-0.2c0.2-0.1,0.5-0.1,0.8,0
	c0.2,0.1,0.1,0.1,0.2,0.2c0.1,0.1,0.3,0.1,0.4,0c0.2-0.1,0-0.1,0.2-0.2c0.3-0.2,0.7-0.1,1-0.2c0.5-0.1,1-0.2,1.5-0.5
	c0.5-0.3,1-0.8,1.2-1.4c0.3-0.8,0.4-1.8,0.4-2.6c0-0.1,0.2-0.3,0.2-0.4c0.1-0.8,0-1.6,0.1-2.4c0-0.3,0.3-0.4,0.3-0.7
	c0.1-0.8,0-1.5,0-2.4c0-1.2-0.1-2.1,0-3.2c0.1-0.6,0-1.4,0.3-1.9c0.1-0.2,0.4-0.3,0.5-0.5c0.2-0.3,0.3-0.6,0.4-0.9
	c0-0.7-0.1-1.3-0.1-2C76.7,15.1,77,15,77.1,14.6z M74,15.3c-0.2,0.4-0.3,0.7-0.3,1c-0.1,0.9-0.4,0.8-0.6,1.4C73,18,73,18.2,73,18.6
	c0,1.6,0,3.1-0.1,4.7c0,1-0.2,1.5-0.6,2.4C72.1,26.2,72,26.5,72,27c0,0.6-0.1,0.9-0.4,1.4c-0.1,0.3-0.3,0.7-0.4,1
	c-0.2,0.4-0.3,0.5-0.4,0.5c-0.1-0.1-0.2-0.3-0.2-0.7c0-1.9,0-3.8,0-5.8c0-2,0-4.1,0.1-6.1c0-0.4,0-0.5-0.3-0.9c0-0.7-0.2-1-0.4-1.6
	c-0.3-0.5-0.2-0.9-0.2-1.4c0-1.4,0-2.8,0-4.3c0-0.9,0.2-0.6,1-0.6c0.5,0,0.6-0.1,1.1,0.2c0.5,0.3,0.6,0.4,0.9,0.9
	c0.1,0.1,0.3,0.3,0.4,0.4c0.6,0.6,0.9,1.4,1.1,2.2C74.3,13.1,74.5,14.6,74,15.3z"/>
<path class="st0" d="M37.2,33c-0.2-0.8,0-1.4,0-2c0-0.1,0.3,0,0.4-0.1c0.1-0.2,0.2-0.4,0.1-0.6c0-0.1-0.1,0-0.2-0.1
	c-0.1-0.1-0.1-0.4,0-0.5c0.2-0.2,0.5-0.1,0.6-0.4c0.1-0.3-0.1-0.7,0-1c0-0.1,0.3,0.1,0.3,0c0.1-0.5,0-1,0-1.5c0-0.1,0.1-0.2,0.2-0.3
	c0.1-0.6,0.1-1.1,0-1.7c-0.1-0.3-0.3-0.6-0.4-0.9c-0.2-1.3-0.2-2.6-0.1-3.9c0.1-1,0.7-2.5,1.1-3.4c0.2-0.6,0.3-0.4,0.5-1
	c0.1-0.2,0.1-0.4,0-0.6c-0.1-0.2-0.3-0.4-0.3-0.6c0-0.3,0.4-0.3,0.5-0.5c0.1-0.4-0.1-0.8,0-1.2c0.2-0.4,0.7-0.7,0.8-1.1
	c0.1-0.4,0-1.1,0.1-1.5c0.2-0.8,0.5-1.4,0.9-2.1c0.2-0.5,0.7-0.8,0.8-1.3C43,6.1,43,5.5,43,5.1c-0.3-0.4-1,0.1-1.4,0
	c-0.2-0.1-0.2-0.4-0.4-0.5c-0.5,0-0.9,0-1.3,0.2c-0.5,0.3-0.5,0.7-0.6,1.3c-0.3,0.8-0.1,1.7-0.4,2.5c-0.1,0.3-0.7,0.4-0.9,0.6
	c-0.1,0.1-0.2,0.2-0.4,0.2c-0.2,0-0.3-0.1-0.4-0.2c-0.1-0.3,0-0.7,0-1.1c0-0.3-0.2-0.6-0.1-0.8c0-0.1,0.4-0.1,0.4-0.2
	c0.1-1.6-0.1-3.2,0-4.8c0-0.5,0.2-0.5,0.7-0.5c0.9,0,2.3,0,3.3,0c1.8,0,3.6-0.1,5.4,0c0.3,0,0.6,0.1,0.6,0.4c0,0.5-0.3,1.1-0.6,1.5
	c-0.1,0.3-0.4,0.4-0.5,0.7c-0.2,0.5,0,1-0.2,1.5c-0.1,0.3-0.7,0.3-0.8,0.6c-0.1,0.4,0.1,0.9,0,1.3C45.4,7.9,45,7.8,44.9,8
	c-0.2,0.7-0.1,1.4-0.3,2.1c-0.1,0.4-0.4,0.6-0.4,1c-0.1,1.1,0.1,2.1,0,3.2c0,0.2-0.3,0.4-0.3,0.6c-0.2,0.5-0.3,1.1-0.4,1.6
	c-0.1,0.2-0.4,0.3-0.4,0.6c-0.1,0.3,0.1,0.7,0,1c-0.2,0.4-0.8,0.6-0.8,1c-0.3,1.2,0.1,2.5,0,3.7c-0.1,0.5-0.6,1-0.7,1.5
	c-0.1,0.7,0.1,1.5-0.1,2.2c-0.2,0.7-0.6,1.2-0.9,1.9c-0.1,0.6-0.8,1.2-0.4,1.7c0.5,0.1,1.3,0.2,1.9-0.1c0.3-0.1,0-0.7,0.2-0.8
	c0.7-0.5,1.5-0.7,2.3-1.1c0.4-0.2,1-0.4,1.4-0.8c0.2-0.2,0.2-0.5,0.5-0.6c0.1-0.1,0.2,0.3,0.3,0.3c0.5,0.1,1-0.1,1.5,0
	c0.2,0.1,0.2,0.3,0.3,0.5c0,0.2,0.1,0.4,0,0.5c-0.1,0.1-0.3,0-0.3,0.1c-0.1,0.2-0.1,0.5,0,0.7c0,0.2,0.2,0.3,0.2,0.5
	c0.1,1,0.1,1.9,0,2.9c0,0.2-0.1,0.4-0.3,0.4c-1.4-0.1-2.6,0-4,0c-0.1,0-0.1-0.3-0.2-0.3c-0.3-0.2-1-0.2-1.4-0.1
	c-0.4,0.1-0.5,0.5-0.9,0.5c-0.8,0.2-1.7,0-2.5,0.1c-0.3,0-0.5,0.3-0.8,0.3C38,33.2,37.4,33.3,37.2,33z"/>
<path class="st0" d="M16.3,35.2c-0.6,0.2-1.3,0-1.9,0c-0.2,0-0.5,0.2-0.7,0.1c-0.2-0.1-0.5-0.5-0.4-0.6c0.5-0.7,1.5-0.7,1.9-1.4
	c0.3-0.4,0-0.9,0.1-1.4c0-0.1,0.3-0.1,0.4-0.3c0.1-0.1,0.1-0.3,0-0.4c-0.2-0.2-0.3,0.2-0.4-0.4c-0.1-0.6-0.1-1.1,0-1.7
	c0-0.4,0.3-0.3,0.3-0.5c0.1-0.3-0.1-0.6,0-1c0-0.2,0.3-0.1,0.4-0.3c0.1-0.1,0.1-0.3,0-0.5c-0.2-0.3-0.7-0.3-0.7-0.6
	c-0.1-0.6,0-1.2,0-1.8c0-0.6,0-1.2,0-1.8c0-0.1,0.3-0.1,0.3-0.2c0.1-0.2,0-0.4,0-0.7c0-0.2,0-0.5,0-0.7c0-0.3-0.1-0.4,0-0.6
	c0.1-0.2,0.4-0.1,0.4-0.3c0.1-1-0.2-2-0.1-3c0-0.2,0.3-0.1,0.3-0.3c0.1-0.3,0.1-0.6,0-0.8C16.3,16.1,16,16.1,16,16
	c-0.1-1.5,0.1-2.9,0-4.3c0-0.1-0.3,0.1-0.4-0.5c0-0.6-0.1-1.2-0.1-1.7c0-0.4,0.8-0.4,0.8-0.7c0-0.5,0.1-1.1-0.1-1.7
	c0-0.2-0.3-0.1-0.3-0.3c-0.1-0.2,0-0.3,0.1-0.5c0.1-0.2,0.3-0.3,0.3-0.5c0.1-0.4,0.1-0.8,0-1.1c0-0.1-0.2-0.2-0.3-0.3
	C16,4.1,16,3.9,15.9,3.7c-0.1-0.1-0.4,0-0.5-0.1C15,3.3,14.9,3,14.6,2.8c-0.2-0.2-0.6-0.4-0.8-0.7c-0.1-0.2,0-0.6,0.2-0.7
	c0.1-0.1,0.4-0.1,0.5,0c0.1,0.1,0.1,0.4,0.3,0.4c0.7,0.1,1.3-0.2,2-0.1c0.3,0.1,0.3,0.4,0.6,0.5c0.2,0.1,0.5-0.1,0.7,0
	c0.2,0.2,0.4,0.5,0.6,0.7c0.2,0.2,0.4,0.4,0.6,0.7c0.2,0.4,0.1,0.9,0.1,1.3c0,0.4,0.1,0.8,0,1.2c0,0.1-0.3,0.1-0.3,0.2
	c-0.1,0.2,0,0.5,0.1,0.7c0.1,0.2,0.3,0.1,0.4,0.2c0.1,0.4,0.2,0.9,0.1,1.3c0,0.1-0.3,0.1-0.3,0.2c-0.1,1.9-0.1,3.9,0.1,5.8
	c0,0.3,0.6,0.4,0.6,0.8c0.2,1.8,0,3.7-0.1,5.5c0,0.3-0.1,0.6-0.2,0.8c-0.1,0.2,0,0.4,0,0.7c0,0.3,0,0.6,0,1c0,0.2,0.4,0.4,0.4,0.5
	c0,0.5,0,0.7,0.1,1.2c0,0.2-0.4,0.4-0.6,0.6c-0.1,0.1-0.2,0.4-0.1,0.6c0.1,0.1,0.2,0.1,0.3,0.2c0.1,0.2,0.1,0.4,0,0.6
	c-0.1,0.1-0.3,0.1-0.4,0.3c-0.1,0.4,0.2,0.8,0.1,1.2c0,0.1-0.3,0.1-0.3,0.2c-0.1,0.6,0.1,1.2,0,1.8c0,0.2-0.4,0.3-0.4,0.6
	c0,0.1,0.3,0,0.4,0.2c0.1,0.2-0.1,0.6,0.1,0.6c0.7,0.2,1.5,0.1,2.1,0c0.4-0.1,0.5-0.6,0.9-0.7c0.5,0,0.8,0.3,1.3,0.3
	c0.6,0.1,1.3,0.1,1.9,0c0.4-0.1,0.6-0.5,0.9-0.5c1.6-0.2,3-0.1,4.6-0.1c1.5,0,3.4-0.1,4.5,0c0.6,0-0.1,2.3,0.2,3.4
	c0,0.3,0.3,0.4,0.4,0.6c0.2,0.4,0.3,0.6-0.3,0.6c-1,0-2.1,0.1-3.2,0c-0.2,0-0.2-0.4-0.4-0.5c-0.2-0.1-0.5,0.1-0.7,0.1
	c-0.4-0.1-0.7-0.4-1.1-0.5c-1-0.1-1.9,0.1-2.9,0c-0.2,0-0.2-0.4-0.5-0.5c-2.2-0.2-4.3,0.1-6.6-0.1c-0.5,0-0.5-0.2-0.8-0.3
	c-0.4-0.1-1.2-0.2-1.6,0C17.1,34.3,17.1,34.9,16.3,35.2z"/>
<path class="st0" d="M55.2,22.1c0-0.9-0.1-1.8-0.1-2.7c0-0.2-0.2-0.7-0.2-1.1c-0.1-0.6-0.1-1.1-0.1-1.7c0-0.6,0.1-1.2,0-1.8
	c-0.1-0.4-0.5-0.8-0.6-1.1c-0.1-0.3,0.2-0.7,0.1-1c0-0.2-0.3-0.1-0.3-0.3c-0.1-0.4-0.3-0.8-0.4-1.2c-0.1-0.6-0.2-1.2-0.3-1.8
	c-0.2-0.6-0.5-1.2-0.7-1.9c-0.2-0.5-0.3-1-0.4-1.5c-0.1-0.4,0.1-0.9-0.1-1.3C51.8,4,51.3,3.6,51,2.9c-0.2-0.4,0-0.9-0.2-1.3
	c-0.1-0.2-0.3-0.4-0.6-0.3c-0.3,0-0.6,0.1-0.7,0.4c-0.2,0.4,0.1,0.9-0.1,1.2c-0.2,0.5-0.8,0.4-1,0.9c-0.2,0.3,0.1,0.9,0,1.2
	c-0.2,0.5-0.5,0.8-0.7,1.2c-0.2,0.3-0.2,0.7-0.4,0.9c-0.1,0.2-0.3,0.4-0.4,0.6c0,0.3,0.2,0.5,0.1,0.8C47.1,8.9,47,9,46.9,9.1
	c-0.2,0.2-0.4,0.6-0.5,1c-0.2,0.7,0,1.5-0.2,2.1c-0.1,0.3-0.5,0.3-0.6,0.6c-0.1,0.4,0.1,0.9,0,1.3c-0.1,0.4-0.6,0.7-0.7,1.1
	c-0.2,0.6-0.2,1.4,0,2c0,0.2,0.4,0.1,0.5,0.3c0,0.2-0.4,0.1-0.5,0.3c-0.1,0.4,0.1,0.9-0.1,1.3c-0.1,0.3-0.3,0.3-0.4,0.6
	c0,0.3,0.1,0.7,0.1,1c0,0.5-0.1,0.9-0.1,1.4c0,0.2,0.2,0.6,0,0.7c-0.2,0.3-0.7,0.3-0.9,0.6c-0.2,0.3,0.1,0.8-0.1,1.1
	c-0.2,0.4-0.8,0.4-0.9,0.9c0,0.5,0,1.2,0.5,1.2c0.4,0,0.8-0.2,1.1-0.4c0.6-0.3,1.1-0.5,1.7-0.7c0.5-0.1,1.1,0.1,1.7,0.1
	c0.2,0,0.4,0,0.5-0.1c0.3-0.2,0.3-0.3,0.4-0.6c0.1-0.5-0.7-0.6-0.9-1c-0.2-0.4,0.1-0.9,0-1.3c0-0.2-0.2-0.3-0.2-0.4
	c0-0.2,0.2-0.4,0.3-0.4c1,0.5,2.2,1,3,1.7c0.4,0.3,0.5,0.5,0.5,1c0,0.3-0.1,0.7-0.2,1c-0.2,0.4-0.4,1.1-0.7,1.5
	c-0.4,0.6-0.9,1-0.9,1.7c0,0.7,1,1,1.4,1.6c0.2,0.4,0,1.1,0.1,1.5c0.2,0.8,0.6,1.3,0.7,2.1c0.1,0.7-0.1,1.2,0,1.9
	c0,0.2,0.4,0.1,0.6,0c0.2-0.1,0.3-0.1,0.3-0.3c0.1-0.4,0-0.9,0.1-1.3c0-0.2,0.3-0.2,0.3-0.4c0.1-0.3-0.1-0.7,0-1
	c0.1-0.3,0.3-0.7,0.4-1c0.2-0.4,0.4-0.7,0.4-1.1c0-0.5-0.1-0.9,0-1.3c0.1-0.2,0.4-0.3,0.5-0.5c0.1-0.3,0.1-0.6,0.2-0.9
	c0.1-0.6,0.3-0.9,0.5-1.4c0.1-0.1,0.2-0.2,0.2-0.4C55.2,24.9,55.2,23.4,55.2,22.1z M51.8,20.4c0,0.2-0.5,0.2-0.7,0.1
	c-0.3-0.2-0.5-0.5-0.9-0.6c-0.2,0-0.2-0.3-0.3-0.3c-0.3-0.1-0.8-0.1-1.1-0.1c-0.2,0-0.6,0.1-0.8,0.1c0,0,0-0.1,0-0.1
	c0-0.4,0-0.9,0-1.3c0-0.4,0-0.8,0-1.2c0-0.3,0.3-0.5,0.3-0.7c0.1-0.4-0.2-0.9-0.1-1.3c0-0.2,0.5,0,0.6-0.1c0,0,0.1-0.3,0.2-0.5
	c0.1-0.1,0.2-0.3,0.2-0.3c0-0.1,0-0.6,0.1-1.1c0-0.3,0.1-0.5,0.1-0.5c0,0,0.1,0.2,0.2,0.4c0.2,0.2,0.2,0.4,0.4,0.7
	c0.1,0.1,0.2,0.3,0.3,0.3c0.2,0.1,0.4,0,0.6,0c0.1,0.1,0.2,0.3,0.3,0.3c0.1,0.1,0.3-0.1,0.3,0.1c0.1,0.5,0,1.1,0.1,1.5
	c0,0.1,0.3,0.1,0.3,0.2c0,0.8,0.1,1.6,0.1,2.4C51.9,19,51.9,19.7,51.8,20.4z"/>
<path class="st0" d="M66.8,27.4c0-0.3,0-0.7-0.2-1c-0.2-0.2-0.7,0-0.7-0.2c-0.1-0.3,0.4-0.6,0.4-1c-0.1-0.9-0.3-1.8-0.3-2.7
	c0-1.1-0.2-0.5-0.6-1c-0.2-0.3-0.3-0.5-0.3-0.8c-0.1-1,0-2.1-0.1-3c-0.1-0.4-0.3-0.9-0.6-1.2c-0.1-0.1-0.3,0.1-0.4-0.1
	c-0.1-0.2,0.2-0.4,0.1-0.6c-0.3-0.5-1-0.9-1.5-1.3c-0.2-0.1-0.4,0.1-0.6,0c-0.1-0.1-0.1-0.5,0-0.7c0.9-0.1,1.4-0.6,1.8-1.1
	c0.6-0.7,0.9-1.5,1.2-2.4c0.1-0.4,0-0.9,0-1.3c0.1-0.8,0.5-1.5,0.4-2.3c-0.2-1.1-0.8-2.2-1.4-3.1c-0.4-0.5-0.9-1-1.5-1.3
	c-0.5-0.2-0.9,0-1.4-0.2c-0.6-0.2-1.1-0.5-1.7-0.6c-0.5-0.1-1,0.1-1.4,0c-0.3-0.1-0.3-0.4-0.6-0.4c-0.2,0-0.4,0.3-0.6,0.3
	c-1.4,0.1-2.6-0.2-4,0c-0.2,0-0.2,0.3,0,0.4c0.3,0.2,0.7,0.1,1,0.2c0.5,0.2,0.9,0.5,1.3,1c0.3,0.3,0.5,0.7,0.7,1.3
	c0.1,0.2,0.5-0.2,0.7-0.2C56.8,4,57,4,57.2,4.3C57.4,4.5,57,4.8,56.8,5c-0.4,0.4-0.7,0.6-1.1,0.9C55.5,6,55,6.2,54.8,6.5
	c-0.4,0.8,0.1,1.6,0.2,2.5c0.1,0.3,0.1,0.6,0.2,0.9c0.2,1,0.2,1.9,0.3,2.9c0,0.3,0.3,0.6,0.3,1c0,0.4,0,0.7,0,1.1
	c0,0.2,0.2,0.3,0.2,0.5c0.2,0.7,0.4,1.6,0.4,2.4c0.1,2.5-0.1,4.9,0.1,7.4c0,0.2,0.3,0.3,0.4,0.5c0.1,0.3-0.2,0.7-0.3,1.1
	c-0.5,1.4-1,2.4-1.3,3.5c-0.1,0.5,0.3,0.7,0.7,1c0.4,0.3,1,0.7,1.4,1.1c0.8,0.7,1.4,1.9,1.9,3.1c0.3-0.3,0.1-1.7,0.2-2.5
	c0-0.2,0.2-0.3,0.2-0.5c0.1-0.6,0.1-1.3,0-1.9c0-0.2-0.3-0.4-0.3-0.6c0-0.2,0-0.4,0-0.6c0-0.2,0.2-0.4,0.2-0.6c0.1-0.7,0.1-1.3,0-2
	c0-0.2-0.4-0.4-0.4-0.6c0-0.2,0.5-0.2,0.5-0.4c0-0.6-0.2-1.2-0.2-1.8c-0.2-1.3-0.3-2.7-0.4-4c0-0.5-0.2-1-0.2-1.4
	c0.2-0.6,0.5-1.3,0.7-1.8c0.1-0.2,0.3,0.1,0.4,0.3c0.4,0.5,0.9,1.1,1,1.7c0.1,0.8-0.3,1.4-0.2,2.2c0,0.2,0.4,0.2,0.5,0.4
	c0.4,1,0.7,2,0.9,3.1c0.2,1.2,0.3,2.4,0.3,3.7c0,0.5,0,1.1-0.2,1.6c-0.2,0.7-0.7,1.3-0.9,2c-0.2,0.7-0.3,1,0.5,1
	c0.3,0,0.7,0,0.9,0.1c0.6,0.3,0.9,1.1,1.5,1.4c0.1,0.1,0.3,0.2,0.5,0.3c0.9,0.5,1,0.1,1.1-0.6c0.2-1,0.3-1.9,0.4-2.9
	c0.1-0.5,0.1-1,0.1-1.5C66.7,28.8,66.8,28.1,66.8,27.4z M61.8,10.9c-0.1,0.3-0.3,0.6-0.4,0.9c-0.1,0.2-0.1,0.7-0.3,0.9
	c-0.4,0.4-0.9,0.8-1.3,0.8c-0.8,0-0.8-0.1-0.9-0.7c0-0.4,0.1-1.5,0.1-2c0-0.7-0.1-1.4-0.1-2.1c0-0.6,0-1.2,0-1.8
	c0-0.5-0.1-1-0.1-1.5c0-0.6,0-0.6,0.7-0.5c0.4,0.1,0.6,0.3,0.9,0.7c0.2,0.2,0.6,0.6,0.9,0.9c0.5,0.5,0.9,1.1,0.9,1.5
	c0,0.3-0.1,1.5-0.2,1.7C61.7,10.1,61.9,10.4,61.8,10.9z"/>
<path d="M76,1.7L76,1.7L75.9,2H76c0.1,0,0.1,0,0.2,0c0,0,0.1-0.1,0.1-0.1c0-0.1,0-0.1-0.1-0.1C76.1,1.7,76.1,1.7,76,1.7z M76,1.4
	c0.2,0,0.4,0,0.5,0.1c0.1,0.1,0.2,0.2,0.2,0.3c0,0.1,0,0.2-0.1,0.2c-0.1,0.1-0.1,0.1-0.2,0.2l0.3,0.7h-0.5L76,2.3h0v0.6h-0.5V1.4H76
	z M77.1,2.2c0-0.1,0-0.3-0.1-0.4c-0.1-0.1-0.1-0.3-0.2-0.4c-0.1-0.1-0.2-0.2-0.4-0.2c-0.1-0.1-0.3-0.1-0.4-0.1c-0.2,0-0.3,0-0.4,0.1
	c-0.1,0.1-0.2,0.1-0.3,0.2c-0.1,0.1-0.2,0.2-0.2,0.4C75,1.9,74.9,2,74.9,2.2c0,0.1,0,0.3,0.1,0.4c0.1,0.1,0.1,0.3,0.2,0.4
	c0.1,0.1,0.2,0.2,0.4,0.2c0.1,0.1,0.3,0.1,0.4,0.1c0.1,0,0.3,0,0.4-0.1c0.1-0.1,0.3-0.1,0.4-0.2C76.9,2.8,77,2.7,77,2.6
	C77.1,2.4,77.1,2.3,77.1,2.2z M76,0.8c0.2,0,0.4,0,0.5,0.1C76.7,1,76.9,1.1,77,1.2c0.1,0.1,0.2,0.3,0.3,0.4c0.1,0.2,0.1,0.3,0.1,0.5
	c0,0.2,0,0.4-0.1,0.5C77.2,2.9,77.1,3,77,3.1c-0.1,0.1-0.3,0.2-0.5,0.3c-0.2,0.1-0.3,0.1-0.5,0.1c-0.2,0-0.4,0-0.5-0.1
	c-0.2-0.1-0.3-0.2-0.4-0.3c-0.1-0.1-0.2-0.3-0.3-0.4c-0.1-0.2-0.1-0.3-0.1-0.5c0-0.2,0-0.4,0.1-0.5c0.1-0.2,0.2-0.3,0.3-0.5
	c0.1-0.1,0.3-0.2,0.4-0.3C75.7,0.8,75.8,0.8,76,0.8z"/>
</svg>
