<svg width="45" height="45" viewBox="0 0 45 45" fill="none" xmlns="http://www.w3.org/2000/svg">
<path d="M22.5 0C10.0739 0 0 10.0739 0 22.5C0 34.9261 10.0739 45 22.5 45C34.9261 45 45 34.9261 45 22.5C45 10.0739 34.9261 0 22.5 0ZM43.5369 22.5C43.5369 34.1178 34.1191 43.5369 22.5 43.5369C10.8809 43.5369 1.46314 34.1178 1.46314 22.5C1.46314 10.8822 10.8822 1.46314 22.5 1.46314C34.1178 1.46314 43.5369 10.8822 43.5369 22.5Z" fill="black"/>
<path d="M22.4993 9.16602V9.89706C29.4476 9.89706 35.1016 15.5498 35.1016 22.4993H35.8327C35.8327 15.136 29.8627 9.16602 22.4993 9.16602ZM22.4993 35.1016C15.5511 35.1016 9.89706 29.4489 9.89706 22.4993H9.16602C9.16602 29.8627 15.136 35.8327 22.4993 35.8327" fill="black"/>
<path d="M33.2733 13.0084C33.5786 13.3339 34.0187 13.859 34.2659 14.1779L38.8177 11.3086C38.5904 11.0133 38.2283 10.5644 37.9573 10.2481L35.0747 12.1408L34.8778 12.3088L35.0245 12.0962L36.2973 9.5734L35.3972 8.67954L32.8556 9.94355L32.6415 10.0892L32.812 9.89367L34.7192 7.03225C34.3835 6.74874 34.061 6.48885 33.6499 6.17383L30.7607 10.6904C31.1268 10.97 31.6093 11.3808 31.9172 11.6604L34.6372 10.2586L34.8117 10.1312L34.6835 10.3045L33.2733 13.0084Z" fill="black"/>
<path d="M22.9438 7.28275L24.1875 4.51584L24.2668 4.27038L24.2444 4.52634L24.3752 8.22386C24.8114 8.26455 25.2621 8.32493 25.7062 8.39844L25.5039 2.92237C24.8827 2.85411 24.2642 2.80555 23.6456 2.7793L22.4204 5.79953L22.3768 6.02399L22.3332 5.79953L21.1093 2.7793C20.4908 2.80555 19.8722 2.85411 19.251 2.92237L19.0488 8.39844C19.4929 8.32493 19.9436 8.26587 20.3798 8.22386L20.5106 4.52634L20.4881 4.27038L20.5674 4.51584L21.8111 7.28275H22.9438Z" fill="black"/>
<path d="M12.8849 11.6454C13.6039 10.8933 14.0109 10.0243 13.2919 9.19478C12.9007 8.74456 12.2438 8.64612 11.6993 8.86795L11.6451 8.88895L11.6623 8.84169C11.7429 8.62774 11.7945 7.94521 11.209 7.47399C10.9235 7.24429 10.5653 7.15897 10.2032 7.19572C9.52778 7.26398 9.00835 7.72207 7.59415 9.28797C7.16725 9.7605 6.54605 10.506 6.17334 10.9891L10.0578 14.6485C11.3451 13.2336 11.8698 12.7072 12.8849 11.6454ZM7.81619 10.7502C8.59863 9.79988 9.42997 8.93751 9.80665 8.59624C9.9256 8.48861 10.0551 8.38098 10.2124 8.33898C10.4675 8.26941 10.7305 8.44923 10.79 8.70912C10.8495 8.97033 10.6843 9.2184 10.5005 9.42317C10.0868 9.88651 8.56955 11.4629 8.56955 11.4629L7.81619 10.7502ZM9.33745 12.1835C9.33745 12.1835 10.8151 10.632 11.2975 10.1359C11.4892 9.93901 11.6121 9.81956 11.7442 9.75525C11.9147 9.67256 12.1011 9.65549 12.2676 9.76575C12.4315 9.87469 12.5069 10.0624 12.4659 10.2488C12.417 10.4706 12.2346 10.6819 12.0839 10.8434C11.8804 11.0599 10.1278 12.9225 10.1252 12.9251L9.33745 12.1835Z" fill="black"/>
<path d="M22.4993 9.16602V22.4993H9.16602C9.16602 15.1307 15.1307 9.16602 22.4993 9.16602Z" fill="black"/>
<path d="M35.8328 22.5C35.8328 29.8686 29.8681 35.8333 22.4995 35.8333V22.5H35.8328Z" fill="black"/>
</svg>
