<svg width="112" height="15" viewBox="0 0 112 15" fill="none" xmlns="http://www.w3.org/2000/svg">
<g opacity="0.3">
<path fill-rule="evenodd" clip-rule="evenodd" d="M71.5185 11.4809H74.6505L74.6226 10.3622H75.4056V12.1834H68.9734V11.533H69.9805V4.37822H68.9734V3.75381H74.4829V3.41558H75.2659V5.57501H74.4829V4.50831H71.4906V7.55234H73.8675V6.61569H74.6785V9.24344H73.8955V8.28081H71.5185V11.4809ZM97.0222 3.67577C94.5335 3.67577 92.5198 5.62707 92.5198 8.04665C92.5198 10.4663 94.5335 12.4176 97.0222 12.4176C99.4835 12.4176 101.497 10.4663 101.497 8.04665C101.497 5.60104 99.5114 3.67577 97.0222 3.67577ZM108.684 3.80584V4.43025H109.691V9.76378L105.021 3.83185H102.671V4.45626H103.651L103.986 4.89856V11.611H102.979V12.2614H105.86V11.611H104.853V5.96525L109.859 12.3915H110.558V4.48228H111.564V3.85787L108.684 3.80584ZM31.2485 5.93927C31.2485 6.95392 30.4654 7.55234 29.5985 7.7865C30.6891 7.99464 31.6959 8.67105 31.6679 10.05C31.6679 11.3509 30.5493 12.2614 28.8435 12.2614H24.4529V11.611H25.4596V4.45628H24.4529V3.83186H28.6197C30.2137 3.83186 31.2485 4.6384 31.2485 5.93927ZM58.6541 3.83186L61.7023 9.86785L64.7225 3.85788H67.0995V4.48229H66.0929V11.637H67.0995V12.2875H63.5762V11.637H64.5828V5.9653L61.367 12.4956L58.0109 5.78315V11.611H59.018V12.2614H56.1375V11.611H57.144V4.45628H56.1375V3.83186H58.6541ZM97.0222 11.559C95.3444 11.559 94.1697 10.102 94.1697 7.99464C94.1697 5.91325 95.3444 4.45627 97.0222 4.45627C98.6441 4.45627 99.8188 5.91325 99.8188 7.99464C99.8468 10.102 98.7 11.559 97.0222 11.559ZM28.1445 4.56032H27.0538V7.50028H28.0886C28.8996 7.50028 29.7106 7.03195 29.7106 5.99128C29.7106 4.74244 28.7318 4.56032 28.1445 4.56032ZM27.0259 11.4809H28.1724C29.0953 11.4809 30.158 11.0646 30.158 9.91991C30.158 8.85321 29.3749 8.20277 28.1724 8.20277H27.0259V11.4809ZM39.0507 4.43026H40.0575V9.76378L35.3593 3.83186H33.0382V4.45628H34.017L34.3246 4.89857V11.611H33.3178V12.2355H36.2262V11.611H35.2195V5.9653L40.2253 12.3915H40.9244V4.48229H41.9312V3.85788H39.0507V4.43026ZM87.8498 11.4809H90.842L90.8141 10.4142H91.5971V12.2354H85.3331V11.585H86.3397V4.43025H85.3331V3.80584H88.8563V4.43025H87.8498V11.4809ZM83.1238 11.4809H80.1595V4.43025H81.1666V3.80584H77.6428V4.43025H78.6494V11.585H77.6428V12.2354H83.9068V10.4142H83.1238V11.4809ZM49.2297 4.43025H48.0832V3.83185H50.9354V4.45626H50.2085L47.6637 8.30684V11.585H48.6705V12.2354H45.1468V11.585H46.1536V8.35885L43.413 4.43025H42.602V3.80584H46.2375V4.43025H45.2027L47.2722 7.42224L49.2297 4.43025Z" fill="black"/>
<path d="M17.8244 7.48611L9.27408 4.10649C7.44183 5.12037 5.94274 6.30323 4.72126 7.48611C5.94274 8.66898 7.44183 9.85181 9.27408 10.8657L17.8244 7.48611Z" fill="black"/>
<path d="M0.0297852 14.5551C0.0297852 14.5551 0.918134 11.5697 3.91632 8.33095C5.22107 9.34484 6.80349 10.3024 8.69122 11.091L0.0297852 14.5551Z" fill="black"/>
<path d="M0.0297852 0.445312C0.0297852 0.445312 0.918134 3.43063 3.91632 6.66941C5.22107 5.65552 6.80349 4.69798 8.69122 3.90941L0.0297852 0.445312Z" fill="black"/>
</g>
</svg>
