<svg width="68" height="15" viewBox="0 0 68 15" fill="none" xmlns="http://www.w3.org/2000/svg">
<path d="M21.0844 9.20133C21.1284 9.11638 21.2011 8.97521 21.2298 8.90506L23.0026 4.72812L24.7463 8.9469C24.7754 9.01748 24.8333 9.13032 24.8773 9.2288L24.6597 9.27148C24.1652 9.3987 23.6133 9.4828 23.0466 9.4828C22.4794 9.4828 21.9567 9.41265 21.4043 9.27148C21.3025 9.24359 21.1571 9.20133 21.0844 9.20133ZM3.05161 2.83765C5.02769 2.83765 6.4227 3.23282 7.29452 3.98047C8.34089 4.8697 8.86407 6.04041 8.86407 7.50781C8.86407 8.90548 8.35569 10.0618 7.35241 10.965C6.48059 11.7693 5.05685 12.1923 3.05117 12.1923H2.41221V2.83765H3.05161ZM64.0829 4.03668C65.0714 4.96775 65.5506 6.13889 65.5506 7.50739C65.5506 8.86195 65.0566 10.0191 64.0829 10.9785C63.1097 11.924 61.9327 12.4037 60.5521 12.4037C57.7769 12.4037 55.5679 10.1886 55.5679 7.50739C55.5679 6.15325 56.0624 4.98212 57.036 4.02231C57.9949 3.07729 59.1858 2.61154 60.5521 2.61154C61.9184 2.61154 63.0949 3.09124 64.0829 4.03668ZM40.6729 4.85533L42.4309 3.38751C40.9201 1.42646 38.9001 0.453125 36.517 0.453125C32.463 0.453125 29.1929 3.59925 29.1929 7.53613C29.1929 11.3881 32.4482 14.5629 36.4156 14.5629C37.418 14.5629 38.3773 14.3512 39.307 13.9421C40.208 13.5465 40.9928 12.9966 41.6322 12.2773C42.2424 11.6146 42.635 10.8522 42.8675 10.0196C43.0568 9.32769 43.1726 8.48157 43.1147 7.46555L43.0851 7.05601H36.7499V9.21485H40.6437C40.5423 10.0614 40.0914 10.7951 39.307 11.402C38.45 12.0795 37.4763 12.4037 36.3864 12.4037C35.122 12.4037 33.9886 11.8956 32.9422 10.8944C31.9981 9.96334 31.5185 8.848 31.5185 7.5505C31.5185 6.18157 32.0125 4.99649 33.0297 4.00836C33.9886 3.06334 35.1512 2.61154 36.4883 2.61154C38.2028 2.61154 39.5543 3.37356 40.6729 4.85533ZM25.7787 11.3602L27.0723 14.3512H29.6299L23.6277 0.63655H22.4655L16.304 14.3512H18.8472L20.1987 11.3031C20.227 11.219 20.2422 11.1619 20.2566 11.1057C20.3145 11.1336 20.4019 11.1619 20.5029 11.2042C21.259 11.4865 22.16 11.6416 23.0466 11.6416C23.9184 11.6416 24.7759 11.473 25.2843 11.3027C25.5463 11.2186 25.6333 11.1763 25.7056 11.1336C25.7204 11.1903 25.7635 11.3179 25.7787 11.3602ZM2.97892 14.3512C5.56524 14.3512 7.55611 13.787 8.89323 12.6158C10.4188 11.2896 11.1892 9.59649 11.1892 7.52218C11.1892 5.36334 10.4045 3.62799 8.83491 2.32964C7.51259 1.22909 5.55087 0.678392 3.00808 0.678392H0V14.3512H2.97892ZM15.3882 0.678392H13.0778V14.3512H15.3882V0.678392ZM46.9363 7.97314H51.8617V5.82909H46.9363V2.83765H52.2982V0.678392H44.625V14.3512H52.3122V12.1923H46.9358V7.97314H46.9363ZM55.3929 2.52659C53.9548 3.89552 53.2432 5.57509 53.2432 7.52176C53.2432 11.4578 56.5124 14.5625 60.5521 14.5625C64.6061 14.5625 67.8614 11.4726 67.8614 7.52176C67.8614 5.58861 67.1349 3.9382 65.7251 2.54096C64.3005 1.14456 62.5717 0.453125 60.5516 0.453125C58.5468 0.453125 56.8175 1.14456 55.3929 2.52659Z" fill="black"/>
</svg>
