<?xml version="1.0" encoding="utf-8"?>
<!-- Generator: Adobe Illustrator 26.5.0, SVG Export Plug-In . SVG Version: 6.00 Build 0)  -->
<svg version="1.1" id="Layer_1" xmlns="http://www.w3.org/2000/svg" xmlns:xlink="http://www.w3.org/1999/xlink" x="0px" y="0px"
	 viewBox="0 0 108 46.7" style="enable-background:new 0 0 108 46.7;" xml:space="preserve">
<style type="text/css">
	.st0{fill:#AAAAAA;}
</style>
<g>
	<path class="st0" d="M55.5,21.4C55.5,21.4,55.6,21.4,55.5,21.4l0.1-0.5c0-0.1,0-0.1-0.1-0.1c-0.6-0.1-1-0.2-1-0.5V16
		c0-1.6-0.8-2.4-2.3-2.4c-1,0-1.9,0.1-2.8,0.3c-0.1,0-0.1,0.1-0.1,0.1l0,0.5c0,0,0,0.1,0,0.1c0,0,0,0,0.1,0l0.5-0.1
		c0.8-0.1,1.5-0.2,2.3-0.2c0.4,0,0.8,0.1,1.2,0.4c0.3,0.4,0.4,0.8,0.4,1.3v0.7L51.1,17c-0.6,0-1.2,0.3-1.6,0.7c-0.7,1-0.7,2.3,0,3.2
		c0.4,0.4,0.9,0.6,1.5,0.6c1,0,2-0.2,2.9-0.6C54.3,21.3,54.9,21.5,55.5,21.4z M53.4,20.3c-0.4,0.1-0.7,0.2-1.1,0.3
		c-0.4,0.1-0.9,0.1-1.4,0.2c-0.4,0-0.7-0.1-0.9-0.4c-0.2-0.3-0.4-0.7-0.3-1.2c0-0.4,0.1-0.8,0.3-1.1c0.3-0.3,0.7-0.4,1.1-0.5
		l2.6-0.3v2.8h0L53.4,20.3z"/>
	<path class="st0" d="M61.1,14.2v-0.5c0-0.1,0-0.1-0.1-0.1c-0.6,0.1-1.1,0.3-1.6,0.5c-0.4,0.2-0.8,0.4-1.2,0.7v-1
		c0-0.1,0-0.1-0.1-0.1h-0.5c-0.1,0-0.1,0-0.1,0.1v7.4c0,0.1,0,0.1,0.1,0.1h0.5c0.1,0,0.1,0,0.1-0.1v-5.7l0.4-0.2
		c0.4-0.2,0.7-0.4,1.1-0.6c0.4-0.2,0.9-0.3,1.4-0.4C61.1,14.3,61.1,14.3,61.1,14.2z"/>
	<path class="st0" d="M46.2,21.3h0.5c0.1,0,0.1,0,0.1-0.1V10.4c0-0.1,0-0.1-0.1-0.1h-0.5c-0.1,0-0.1,0-0.1,0.1L46.2,21.3
		C46.1,21.3,46.1,21.3,46.2,21.3z"/>
	<path class="st0" d="M42,21.4c0.4,0,1,0,1.8-0.1c0.1,0,0.1-0.1,0.1-0.1l0-0.5c0,0,0,0,0-0.1c0,0,0,0-0.1,0L42,20.8
		c-1,0-1.6-0.2-1.9-0.7s-0.5-1.4-0.5-2.6c0-1.2,0.2-2.1,0.5-2.5c0.3-0.5,1-0.7,1.9-0.7c0.6,0,1.2,0.1,1.7,0.1c0.1,0,0.1,0,0.1-0.1
		l0-0.5c0-0.1,0-0.1-0.1-0.1L42,13.6c-1.1,0-2,0.3-2.4,0.9c-0.5,0.6-0.7,1.6-0.7,3s0.2,2.5,0.6,3.1C40,21.1,40.8,21.4,42,21.4z"/>
	<path class="st0" d="M68.9,21.3l0-0.4c0-0.1,0-0.1-0.1-0.1c-0.6-0.1-1-0.2-1-0.5V16c0-1.6-0.8-2.4-2.3-2.4c-1,0-1.9,0.1-2.8,0.3
		c-0.1,0-0.1,0.1-0.1,0.1l0,0.5c0,0,0,0.1,0,0.1c0,0,0,0,0.1,0l0.5-0.1c0.8-0.1,1.5-0.2,2.3-0.2c0.4,0,0.8,0.1,1.2,0.4
		c0.3,0.4,0.4,0.8,0.4,1.3v0.7L64.4,17c-0.6,0-1.2,0.3-1.6,0.7c-0.7,1-0.7,2.3,0,3.2c0.4,0.4,0.9,0.6,1.5,0.6c1,0,2-0.2,2.9-0.6
		c0.4,0.4,1,0.7,1.6,0.6C68.9,21.4,68.9,21.4,68.9,21.3z M66.8,20.3c-0.4,0.1-0.7,0.2-1.1,0.3c-0.4,0.1-0.9,0.1-1.4,0.2
		c-0.4,0-0.7-0.1-0.9-0.4C63.1,20,63,19.6,63,19.2c0-0.4,0.1-0.8,0.3-1.1c0.3-0.3,0.7-0.4,1.1-0.5l2.6-0.3v2.8h0L66.8,20.3z"/>
	<path class="st0" d="M42.5,25.4l-1.4,0c-0.6-0.1-1.1,0.2-1.5,0.6c-0.3,0.4-0.4,1.1-0.4,2.2v8.3c0,0.1,0,0.1,0.1,0.1h0.5
		c0.1,0,0.1,0,0.1-0.1v-6.8h2.3c0.1,0,0.1,0,0.1-0.1V29c0-0.1,0-0.1-0.1-0.1h-2.3v-0.8c-0.1-0.6,0-1.2,0.3-1.7
		c0.2-0.3,0.6-0.4,1-0.4c0.3,0,0.7,0,1.4,0c0.1,0,0.1,0,0.1-0.1v-0.5C42.6,25.4,42.6,25.4,42.5,25.4z"/>
	<path class="st0" d="M57.2,28.9C57.2,28.9,57.1,28.9,57.2,28.9l-0.1,6.3l-0.3,0.2c-0.3,0.1-0.6,0.3-0.9,0.4
		c-0.4,0.1-0.8,0.2-1.2,0.2c-0.8,0-1.2-0.2-1.5-0.6C53.1,34.9,53,34,53,32.8V29c0-0.1,0-0.1-0.1-0.1h-0.5c-0.1,0-0.1,0-0.1,0.1v3.8
		c0,1.5,0.2,2.5,0.5,3c0.3,0.5,1,0.8,2,0.8c0.4,0,0.8-0.1,1.2-0.2c0.3-0.1,0.6-0.2,0.9-0.3l0.2-0.1v0.4c0,0.1,0,0.1,0.1,0.1h0.5
		c0.1,0,0.1,0,0.1-0.1V29c0-0.1,0-0.1-0.1-0.1H57.2z"/>
	<path class="st0" d="M46.8,28.7c-1.1,0-1.9,0.3-2.4,0.9c-0.5,0.6-0.7,1.6-0.7,3c0,1.5,0.2,2.5,0.6,3.1c0.4,0.6,1.3,0.9,2.5,0.9
		c1.2,0,2.1-0.3,2.5-0.9c0.4-0.6,0.6-1.6,0.6-3.1c0-1.5-0.2-2.5-0.7-3C48.7,29,47.9,28.7,46.8,28.7z M49.1,34.1c0,0.4-0.1,0.7-0.3,1
		c-0.1,0.3-0.4,0.5-0.7,0.6c-0.8,0.2-1.7,0.2-2.5,0c-0.3-0.1-0.5-0.3-0.7-0.6c-0.2-0.3-0.3-0.7-0.3-1c-0.1-0.5-0.1-1.1-0.1-1.6
		c0-1.2,0.2-2,0.5-2.5c0.3-0.4,0.9-0.6,1.9-0.6s1.5,0.2,1.9,0.6c0.3,0.4,0.5,1.3,0.5,2.5C49.2,33.1,49.1,33.6,49.1,34.1z"/>
	<path class="st0" d="M73.5,25.5C73.5,25.5,73.4,25.5,73.5,25.5l-0.1,3.4c-0.6-0.1-1.2-0.2-1.8-0.2c-1.2,0-2,0.3-2.5,1
		c-0.5,0.7-0.7,1.7-0.7,3c0,0.6,0.1,1.2,0.2,1.8c0.1,0.4,0.2,0.8,0.4,1.1c0.2,0.3,0.4,0.5,0.7,0.6c0.2,0.1,0.4,0.2,0.7,0.2
		c0.2,0,0.5,0,0.7,0c0.4,0,0.9-0.1,1.3-0.2c0.4-0.1,0.7-0.2,1.1-0.4v0.4c0,0.1,0,0.1,0.1,0.1H74c0.1,0,0.1,0,0.1-0.1l0-10.8
		c0,0-0.1-0.1-0.1-0.1H73.5z M73.1,35.3c-0.3,0.2-0.6,0.3-1,0.4c-0.4,0.1-0.7,0.2-1.1,0.2c-0.2,0-0.5,0-0.7-0.1
		c-0.2-0.1-0.4-0.2-0.6-0.4C69.3,35,69,34.1,69,32.8c0-1.2,0.2-2,0.5-2.6c0.3-0.6,1-0.8,1.9-0.8c0.6,0,1.2,0.1,1.8,0.2v5.6h0
		L73.1,35.3z"/>
	<path class="st0" d="M63.7,28.7c-0.9,0-1.8,0.2-2.6,0.7v-0.4c0-0.1,0-0.1-0.1-0.1h-0.5c-0.1,0-0.1,0-0.1,0.1v7.4
		c0,0.1,0,0.1,0.1,0.1H61c0.1,0,0.1,0,0.1-0.1v-6.2l0.3-0.2c0.3-0.1,0.6-0.3,1-0.4c0.4-0.1,0.8-0.2,1.2-0.2c0.8,0,1.2,0.2,1.5,0.6
		c0.2,0.4,0.3,1.3,0.3,2.5v3.8c0,0.1,0,0.1,0.1,0.1H66c0.1,0,0.1,0,0.1-0.1v-3.8c0-1.5-0.2-2.5-0.5-3C65.2,29,64.6,28.7,63.7,28.7z"
		/>
	<path class="st0" d="M88,35.8C88,35.8,88,35.8,88,35.8L88,35.8l-1.5,0.1c-0.5,0-0.9-0.1-1-0.4c-0.2-0.7-0.3-1.4-0.2-2.2v-3.8h2.6
		c0.1,0,0.1,0,0.1-0.1V29c0-0.1,0-0.1-0.1-0.1h-2.6v-2.3c0-0.1,0-0.1-0.1-0.1h-0.5c-0.1,0-0.1,0-0.1,0.1v7.3c0,1.1,0.1,1.8,0.4,2.2
		c0.4,0.4,1,0.6,1.5,0.6c0.5,0,1-0.1,1.5-0.1c0.1,0,0.1-0.1,0.1-0.1l0-0.5C88.1,35.9,88.1,35.8,88,35.8z"/>
	<path class="st0" d="M82.7,35.9c-0.6-0.1-1-0.2-1-0.5v-4.2c0-1.6-0.8-2.4-2.3-2.4c-1,0-1.9,0.1-2.8,0.3c-0.1,0-0.1,0.1-0.1,0.1
		l0,0.5c0,0,0,0.1,0,0.1c0,0,0,0,0.1,0l0.5-0.1c0.8-0.1,1.5-0.2,2.3-0.2c0.4,0,0.8,0.1,1.2,0.4c0.3,0.4,0.4,0.8,0.4,1.3v0.7
		l-2.7,0.3c-0.6,0-1.2,0.3-1.6,0.7c-0.7,1-0.7,2.3,0,3.2c0.4,0.4,0.9,0.6,1.5,0.6c1,0,2-0.2,2.9-0.6c0.4,0.4,1,0.7,1.6,0.6
		c0.1,0,0.1,0,0.1-0.1L82.7,35.9C82.8,35.9,82.7,35.9,82.7,35.9z M80.6,35.4c-0.4,0.1-0.7,0.2-1.1,0.3c-0.4,0.1-0.9,0.1-1.4,0.2
		c-0.4,0-0.7-0.1-0.9-0.4c-0.2-0.3-0.4-0.7-0.3-1.2c0-0.4,0.1-0.8,0.3-1.1c0.3-0.3,0.7-0.4,1.1-0.5l2.6-0.3v2.8h0L80.6,35.4z"/>
	<circle class="st0" cx="90.3" cy="26.9" r="0.5"/>
	<path class="st0" d="M90.6,28.9h-0.5c-0.1,0-0.1,0-0.1,0.1v7.4c0,0.1,0,0.1,0.1,0.1h0.5c0.1,0,0.1,0,0.1-0.1L90.6,28.9
		C90.7,28.9,90.6,28.9,90.6,28.9z"/>
	<path class="st0" d="M96.1,28.7c-1.1,0-1.9,0.3-2.4,0.9c-0.5,0.6-0.7,1.6-0.7,3c0,1.5,0.2,2.5,0.6,3.1c0.4,0.6,1.3,0.9,2.5,0.9
		c1.2,0,2.1-0.3,2.5-0.9c0.4-0.6,0.6-1.6,0.6-3.1c0-1.5-0.2-2.5-0.7-3C98,29,97.2,28.7,96.1,28.7z M98.4,34.1c0,0.4-0.2,0.7-0.3,1
		c-0.1,0.3-0.4,0.5-0.7,0.6c-0.8,0.2-1.7,0.2-2.5,0c-0.3-0.1-0.5-0.3-0.7-0.6c-0.2-0.3-0.3-0.7-0.3-1c-0.1-0.5-0.1-1.1-0.1-1.6
		c0-1.2,0.2-2,0.5-2.5c0.3-0.4,0.9-0.6,1.9-0.6c0.9,0,1.5,0.2,1.9,0.6c0.3,0.4,0.5,1.3,0.5,2.5C98.4,33.1,98.4,33.6,98.4,34.1z"/>
	<path class="st0" d="M104.8,28.7c-0.9,0-1.8,0.2-2.6,0.7v-0.4c0-0.1,0-0.1-0.1-0.1h-0.5c-0.1,0-0.1,0-0.1,0.1v7.4
		c0,0.1,0,0.1,0.1,0.1h0.5c0.1,0,0.1,0,0.1-0.1v-6.2l0.3-0.2c0.3-0.1,0.6-0.3,1-0.4c0.4-0.1,0.8-0.2,1.2-0.2c0.8,0,1.2,0.2,1.5,0.6
		c0.2,0.4,0.3,1.3,0.3,2.5v3.8c0,0.1,0,0.1,0.1,0.1h0.5c0.1,0,0.1,0,0.1-0.1v-3.8c0-1.5-0.2-2.5-0.5-3
		C106.4,29,105.8,28.7,104.8,28.7z"/>
	<path class="st0" d="M107.2,10.3h-0.5c-0.1,0-0.1,0-0.1,0.1v10.8c0,0.1,0,0.1,0.1,0.1h0.5c0.1,0,0.1,0,0.1-0.1L107.2,10.3
		C107.2,10.4,107.2,10.3,107.2,10.3z"/>
	<path class="st0" d="M104,21.2C104,21.2,104,21.2,104,21.2l0-0.5c0-0.1,0-0.1-0.1-0.1l-0.4,0c-0.8,0.1-1.5,0.1-2.3,0.1
		c-0.6,0.1-1.2-0.2-1.6-0.7c-0.4-0.7-0.5-1.4-0.5-2.2h5.1c0.1,0,0.1,0,0.1-0.1v-0.5c0-1.3-0.2-2.2-0.7-2.8c-0.6-0.6-1.4-0.9-2.2-0.9
		c-2,0-3.1,1.3-3.1,3.9c0,1.3,0.2,2.3,0.6,2.9c0.4,0.6,1.2,1,2.2,1c0.7,0,1.6,0,2.7-0.1C104,21.3,104.1,21.3,104,21.2z M101.4,14.3
		c0.6-0.1,1.2,0.2,1.6,0.7c0.3,0.4,0.5,1.2,0.5,2.2h-4.5C99.1,15.2,99.9,14.3,101.4,14.3z"/>
	<path class="st0" d="M76.2,21.2V10.4c0-0.1,0-0.1-0.1-0.1h-0.5c-0.1,0-0.1,0-0.1,0.1v10.8c0,0.1,0,0.1,0.1,0.1L76.2,21.2
		C76.2,21.3,76.2,21.3,76.2,21.2z"/>
	<path class="st0" d="M79.2,12.3c0.3,0,0.5-0.2,0.5-0.5s-0.2-0.5-0.5-0.5s-0.5,0.2-0.5,0.5S79,12.3,79.2,12.3z"/>
	<path class="st0" d="M79.5,13.7H79c-0.1,0-0.1,0-0.1,0.1v7.4c0,0.1,0,0.1,0.1,0.1h0.5c0.1,0,0.1,0,0.1-0.1L79.5,13.7
		C79.6,13.8,79.5,13.7,79.5,13.7z"/>
	<path class="st0" d="M85,21.4c1.2,0,2.1-0.3,2.5-0.9c0.4-0.6,0.6-1.6,0.6-3.1c0-1.5-0.2-2.5-0.7-3c-0.5-0.6-1.3-0.9-2.4-0.9
		c-1.1,0-1.9,0.3-2.4,0.9c-0.5,0.6-0.7,1.6-0.7,3c0,1.5,0.2,2.5,0.6,3.1C82.9,21.1,83.8,21.4,85,21.4z M83.1,14.9
		c0.3-0.4,0.9-0.6,1.9-0.6c0.9,0,1.5,0.2,1.9,0.6c0.3,0.4,0.5,1.3,0.5,2.5c0,0.5,0,1.1-0.1,1.6v0c0,0.4-0.2,0.7-0.3,1
		c-0.1,0.3-0.4,0.5-0.7,0.6c-0.8,0.2-1.7,0.2-2.5,0c-0.3-0.1-0.5-0.3-0.7-0.6c-0.2-0.3-0.3-0.7-0.3-1c-0.1-0.5-0.1-1.1-0.1-1.6
		C82.6,16.2,82.8,15.4,83.1,14.9z"/>
	<path class="st0" d="M95.1,14.9c0.2,0.4,0.3,1.3,0.3,2.5v3.8c0,0.1,0,0.1,0.1,0.1H96c0.1,0,0.1,0,0.1-0.1v-3.8c0-1.5-0.2-2.5-0.5-3
		c-0.3-0.5-1-0.8-1.9-0.8c-0.9,0-1.8,0.2-2.6,0.7v-0.4c0-0.1,0-0.1-0.1-0.1h-0.5c-0.1,0-0.1,0-0.1,0.1v7.4c0,0.1,0,0.1,0.1,0.1H91
		c0.1,0,0.1,0,0.1-0.1V15l0.3-0.2c0.3-0.1,0.6-0.3,1-0.4c0.4-0.1,0.8-0.2,1.2-0.2C94.4,14.3,94.8,14.5,95.1,14.9z"/>
	<path class="st0" d="M21.3,15.6c0.6,0,1.1-0.5,1.1-1.1s-0.5-1.1-1.1-1.1c-0.6,0-1.1,0.5-1.1,1.1S20.7,15.6,21.3,15.6z"/>
	<path class="st0" d="M16.4,30.6h3.7h0c0,0,0.1,0,0.1,0c0.5,0,0.9-0.5,0.9-1c0-0.5-0.5-0.9-1-0.9h-2.8V6.9c0-0.5-0.4-1-1-1
		s-1,0.4-1,1v22.7C15.5,30.2,15.9,30.6,16.4,30.6z"/>
	<path class="st0" d="M7.2,17.2c-1.1,0.7-2.4,0.7-3.5,0c-1.5-1-1.9-2.9-0.9-4.4c1-1.5,2.9-1.9,4.4-0.9c0.4,0.3,1,0.2,1.3-0.3
		c0.3-0.4,0.2-1-0.3-1.3C7.4,9.7,6.4,9.4,5.4,9.4c-2.8,0-5.1,2.3-5.1,5.1c0,2.8,2.3,5.1,5.1,5.1c1,0,2-0.3,2.8-0.8
		c0.4-0.3,0.6-0.9,0.3-1.3C8.2,17,7.6,16.9,7.2,17.2z"/>
	<polygon class="st0" points="5.4,19.7 5.4,19.7 5.4,19.7 	"/>
	<path class="st0" d="M11.6,13.5c-0.6,0-1.1,0.5-1.1,1.1s0.5,1.1,1.1,1.1c0.6,0,1.1-0.5,1.1-1.1S12.1,13.5,11.6,13.5z"/>
	<path class="st0" d="M30.6,28.6c-0.5,0-1,0.4-1,0.9c-0.3,2.7-2,5.3-4.6,7.1c-2.5,1.8-5.5,2.6-8.6,2.3c-0.5-0.1-1,0.3-1.1,0.8
		c-0.1,0.5,0.3,1,0.8,1.1c0.5,0.1,1,0.1,1.5,0.1c3,0,6-1,8.4-2.8c3.1-2.2,5-5.3,5.4-8.5c0,0,0-0.1,0-0.1
		C31.5,29.1,31.1,28.6,30.6,28.6z"/>
</g>
</svg>
