<?xml version="1.0" encoding="utf-8"?>
<!-- Generator: Adobe Illustrator 26.5.0, SVG Export Plug-In . SVG Version: 6.00 Build 0)  -->
<svg version="1.1" id="Layer_1" xmlns="http://www.w3.org/2000/svg" xmlns:xlink="http://www.w3.org/1999/xlink" x="0px" y="0px"
	 viewBox="0 0 55 36" style="enable-background:new 0 0 55 36;" xml:space="preserve">
<style type="text/css">
	.st0{fill:none;}
	.st1{fill-rule:evenodd;clip-rule:evenodd;}
</style>
<rect x="0.4" y="0" class="st0" width="54.2" height="35"/>
<path class="st1" d="M26.4,12.9h-4.4v21.7h4.4V12.9z"/>
<path class="st1" d="M30.4,13V17h3.7v12.2c0,1.7,0.5,3,1.3,4.1c0.9,1.1,2.1,1.6,3.6,1.6c1.5,0,2.8-0.3,3.9-1l0.1,0v-0.1l1.1-4.1
	l-0.3,0.2c-1.2,0.7-2.3,1.1-3.3,1.1c-1.4,0-2.1-0.8-2.1-2.4V17H43V13h-4.5V6.2l-4.3,2.3V13H30.4z"/>
<path class="st1" d="M51.8,12.9h-4.5v21.7h4.5V12.9z"/>
<path class="st1" d="M19.4,16.4L19.4,16.4c-2.1-2.6-4.7-3.8-7.7-3.8c-3.1,0-5.8,1-7.9,2.9c-2.2,2.1-3.4,4.8-3.4,8.3
	c0,3.5,1.1,6.2,3.4,8.3C5.8,34,8.5,35,11.7,35c3.2,0,5.6-1.2,7.6-3.7l0.1-0.1l-2.5-3l-0.1,0.1c-1.6,1.6-3.4,2.4-5.2,2.4
	c-1.9,0-3.6-0.7-4.8-2c-1.3-1.3-1.9-3-1.9-5c0-2,0.6-3.7,1.9-5c1.3-1.3,2.9-1.9,4.8-1.9c2,0,3.6,0.8,5.2,2.4l0.1,0.1L19.4,16.4
	L19.4,16.4z"/>
<path class="st1" d="M24.1,9.4c1.7-1.8,3.7-3.1,5.9-4.1c2.1-0.9,4.4-1.4,6.7-1.4c2.3,0,4.6,0.4,6.8,1.4c2.2,1,4.1,2.3,5.8,4.1
	l0.1,0.1h5.1l-0.2-0.3c-2-2.8-4.6-5.1-7.7-6.7C43.5,0.8,40.2,0,36.8,0c-3.5,0-6.7,0.8-9.8,2.4c-3.1,1.6-5.7,3.9-7.7,6.7L19,9.4
	L24.1,9.4L24.1,9.4L24.1,9.4z"/>
<path class="st1" d="M26.4,12.9h-4.4v21.7h4.4V12.9z"/>
<path class="st1" d="M30.4,13V17h3.7v12.2c0,1.7,0.5,3,1.3,4.1c0.9,1.1,2.1,1.6,3.6,1.6c1.5,0,2.8-0.3,3.9-1l0.1,0v-0.1l1.1-4.1
	l-0.3,0.2c-1.2,0.7-2.3,1.1-3.3,1.1c-1.4,0-2.1-0.8-2.1-2.4V17H43V13h-4.5V6.2l-4.3,2.3V13H30.4z"/>
<path class="st1" d="M51.8,12.9h-4.5v21.7h4.5V12.9z"/>
<path class="st1" d="M19.4,16.4L19.4,16.4c-2.1-2.6-4.7-3.8-7.7-3.8c-3.1,0-5.8,1-7.9,2.9c-2.2,2.1-3.4,4.8-3.4,8.3
	c0,3.5,1.1,6.2,3.4,8.3C5.8,34,8.5,35,11.7,35c3.2,0,5.6-1.2,7.6-3.7l0.1-0.1l-2.5-3l-0.1,0.1c-1.6,1.6-3.4,2.4-5.2,2.4
	c-1.9,0-3.6-0.7-4.8-2c-1.3-1.3-1.9-3-1.9-5c0-2,0.6-3.7,1.9-5c1.3-1.3,2.9-1.9,4.8-1.9c2,0,3.6,0.8,5.2,2.4l0.1,0.1L19.4,16.4
	L19.4,16.4z"/>
<path class="st1" d="M24.1,9.4c1.7-1.8,3.7-3.1,5.9-4.1c2.1-0.9,4.4-1.4,6.7-1.4c2.3,0,4.6,0.4,6.8,1.4c2.2,1,4.1,2.3,5.8,4.1
	l0.1,0.1h5.1l-0.2-0.3c-2-2.8-4.6-5.1-7.7-6.7C43.5,0.8,40.2,0,36.8,0c-3.5,0-6.7,0.8-9.8,2.4c-3.1,1.6-5.7,3.9-7.7,6.7L19,9.4
	L24.1,9.4L24.1,9.4L24.1,9.4z"/>
</svg>
