<svg width="141" height="26" viewBox="0 0 141 26" fill="none" xmlns="http://www.w3.org/2000/svg">
<path fill-rule="evenodd" clip-rule="evenodd" d="M11.1289 9.04766C10.5747 9.71422 9.96804 10.5156 9.96804 11.7214C9.96804 13.9683 11.2562 15.7283 13.5705 15.7283C16.6412 15.7283 17.2404 12.5902 17.2404 11.0998C17.2404 10.9275 17.2329 10.7628 17.2104 10.598C18.0268 10.4707 18.8356 10.1336 19.5996 9.63184C19.637 11.1297 19.6819 12.5752 19.6819 13.2343C19.6595 15.3014 19.8167 15.5486 20.4608 15.5486C21.1499 15.5486 21.5318 14.148 22.1759 12.8074C22.9324 11.1372 23.7338 9.46707 24.2206 9.46707C25.1343 9.46707 23.4866 15.6309 25.6885 15.6309C27.2463 15.6309 29.5606 9.3772 30.5642 9.3772C31.3431 9.3772 29.7628 15.6309 31.5004 15.6309C32.7661 15.6309 34.9306 9.26485 35.6646 9.26485C36.3985 9.26485 34.8632 15.6309 37.11 15.6309C39.1322 15.6309 40.7799 10.4033 41.3416 10.4033C41.6112 10.4033 42.113 11.1073 42.465 12.0659V12.0884C41.761 12.9647 41.3191 13.8035 41.3191 14.4326C41.3191 15.234 41.9408 15.6309 42.5624 15.6309C43.4986 15.6309 44.4123 14.6273 44.4123 13.1819C44.4123 12.8823 44.3898 12.0135 44.0453 11.1522C45.4459 9.84903 47.2508 8.71812 48.3518 8.53088C47.7302 9.24238 46.5918 9.86401 46.5918 11.8937C46.5918 14.0731 48.2619 15.7433 50.3964 15.7433C53.3997 15.7433 54.0438 12.5378 54.0438 11.2945C54.0438 10.8377 53.9839 10.4332 53.8791 10.0662C54.8976 9.5869 55.6691 8.91285 55.9611 8.91285C56.5828 8.91285 56.3431 10.8077 56.3431 12.7625C56.3431 14.2304 56.1184 15.7433 57.2119 15.7433C58.0357 15.7433 58.4327 14.1181 59.2565 12.6726C60.0579 11.2496 60.9267 9.30979 61.2562 9.30979C61.6981 9.30979 61.5259 12.2906 61.5259 12.8748C61.5259 13.6088 61.391 15.923 62.9039 15.923C63.93 15.923 65.8398 13.0545 65.8398 12.6726C65.8398 12.4704 65.8398 12.4254 65.6825 12.4254C65.5253 12.4254 64.3494 14.3652 63.8776 14.3652C63.211 14.3652 63.6304 11.8937 63.6304 10.0662C63.6304 9.26485 63.7428 7.48235 62.4096 7.48235C60.717 7.48235 59.0693 12.2457 58.56 12.2457C58.0732 12.2457 59.2715 7.6621 57.1595 7.6621C56.2982 7.6621 55.0175 8.83046 53.6244 9.42962H53.6319C53.1151 8.42603 52.1939 7.90925 51.3027 7.90925C50.6586 7.90925 50.1643 8.39607 50.1643 8.91285C50.1643 9.60188 50.7185 10.5381 52.0142 10.5381C52.3662 10.5381 52.7182 10.4782 53.0402 10.3883H53.0552C53.175 10.7702 53.235 11.1522 53.235 11.4518C53.235 12.6351 52.4336 14.1705 50.8982 14.1705C49.6999 14.1705 48.6289 12.9048 48.6289 11.3469C48.6289 8.80799 50.1643 8.38858 50.1643 7.8718C50.1643 7.64712 49.9845 7.60218 49.655 7.60218C47.9399 7.60218 45.5807 9.02519 43.8057 10.6579C43.7457 10.5456 43.6783 10.4407 43.6034 10.3433C41.8883 7.89427 42.5549 7.36252 42.113 7.36252C41.5588 7.36252 39.0648 14.148 38.0837 14.148C36.7955 14.148 39.1547 7.60218 36.6382 7.60218C34.6535 7.60218 33.5226 12.7475 32.7661 12.7475C32.0321 12.7475 33.5001 7.60218 31.3656 7.60218C29.8302 7.60218 27.5384 13.7436 26.5348 13.7436C25.6885 13.7436 27.3138 7.69205 25.3515 7.69205C23.3892 7.69205 22.0112 12.4329 21.5468 12.4329C21.1574 12.4329 21.2398 10.95 21.2547 8.2313V8.20883C22.7976 6.56114 23.8611 4.30679 23.8611 2.16479C23.8611 1.1612 23.3743 0.382288 22.4381 0.382288C20.6106 0.382288 19.5471 3.27324 19.5471 6.45628C19.5471 7.15281 19.5621 8.03657 19.5846 8.95029V8.96527C18.7308 9.5869 17.9369 9.91644 17.48 9.91644C17.3527 9.91644 17.2179 9.91644 17.0681 9.91644C16.6487 8.54586 15.5178 7.93172 14.6939 7.93172C14.0498 7.93172 13.533 8.53088 13.533 9.04766C13.533 9.8041 14.1996 10.598 16.3191 10.6504C16.3716 10.9275 16.4015 11.1971 16.4015 11.4293C16.4015 12.6127 15.5327 14.2154 13.9974 14.2154C12.6643 14.2154 11.6607 12.7025 11.6607 11.0324C11.6607 8.89787 13.0837 8.2313 13.0837 8.07402C13.0837 7.98415 13.0612 7.89427 13.0163 7.89427C11.6008 7.89427 9.30147 9.45209 7.12202 11.7064C6.87487 9.83406 6.58278 7.62465 6.58278 5.04077C6.58278 1.3035 7.27181 0.809191 7.27181 0.322372C7.27181 0.0976867 7.20441 0.0078125 6.82993 0.0078125C6.00608 0.0078125 0.53125 2.47935 0.53125 7.95419C0.53125 12.1633 2.84551 14.0357 4.34341 15.1741C2.74066 17.5483 1.60225 20.1621 1.60225 22.4464C1.60225 23.7346 2.11154 25.0078 3.0702 25.0078C4.58308 25.0078 7.47403 21.8023 7.47403 15.234C7.47403 14.3727 7.36169 13.3916 7.21939 12.2756C8.51507 10.9051 9.90812 9.77414 11.1214 9.04766H11.1289ZM127.568 9.71422C127.284 9.16 126.887 8.74059 126.408 8.74059C126.183 8.74059 125.988 8.96527 125.988 9.13753C125.988 9.54196 126.37 9.78163 126.947 9.78163C127.156 9.78163 127.366 9.75916 127.576 9.71422H127.568ZM79.4183 14.7322C79.6954 14.3353 79.9875 13.9458 80.2871 13.5713L80.3021 13.5339C79.9351 11.5941 79.5456 9.72171 79.5456 8.33615C79.5456 4.39667 81.2607 1.5881 81.2607 0.988939C81.2607 0.591995 81.3281 0.524589 81.036 0.524589C80.8338 0.524589 76.9168 2.19475 76.9168 8.089C76.9168 10.4632 78.0253 13.3766 79.4108 14.7322H79.4183ZM79.1112 15.1816C78.557 14.7622 78.0477 14.0432 77.2613 13.5039C76.6022 13.0545 74.8572 13.5414 73.3443 13.8185C73.2095 14.6948 72.9099 15.556 72.6103 15.556C72.4156 15.556 72.3257 14.867 72.0861 14.0656H72.0711C71.397 14.178 70.8203 14.2678 70.4758 14.2678C69.4273 14.2678 67.0232 13.8035 67.0232 12.2232C67.0232 11.332 68.0268 10.98 68.9854 10.98C70.0789 10.98 71.809 11.7589 72.2359 12.6052C72.3482 11.0923 71.2547 10.2684 71.2547 10.0213C71.2547 9.77414 72.4381 9.33226 72.5429 9.33226C73.0073 9.33226 73.4117 11.4668 73.4117 12.9797C73.4117 13.0545 73.4117 13.122 73.4117 13.2043C74.61 12.9647 75.8982 12.71 76.7296 12.8299C75.9282 11.6915 75.329 10.1336 75.329 7.97666C75.329 2.50182 80.7814 0.030281 81.6277 0.030281C82.0097 0.030281 82.0921 0.120155 82.0921 0.344841C82.0921 0.831659 81.3806 1.32597 81.3806 5.06323C81.3806 7.64712 81.6726 9.86401 81.9198 11.7289C84.0918 9.46707 86.3985 7.90925 87.8141 7.90925C87.859 7.90925 87.8815 7.99912 87.8815 8.089C87.8815 8.24628 86.4585 8.91284 86.4585 11.0474C86.4585 12.7175 87.4845 14.2304 88.8176 14.2304C90.3305 14.2304 91.1993 12.6276 91.1993 11.4518C91.1993 11.2196 91.1694 10.95 91.1169 10.6729C89.0049 10.6279 88.3308 9.82657 88.3308 9.07013C88.3308 8.56084 88.8401 7.95419 89.5067 7.95419C90.3081 7.95419 91.4315 8.56833 91.8584 9.93891C92.0082 9.93891 92.143 9.93891 92.2703 9.93891C92.7272 9.93891 93.5286 9.60937 94.3749 8.98774C94.3524 8.07402 94.3374 7.18277 94.3374 6.48624C94.3374 3.3032 95.4084 0.412246 97.2284 0.412246C98.1646 0.412246 98.6514 1.19116 98.6514 2.19475C98.6514 4.33675 97.5879 6.5911 96.0525 8.23879V8.25377C96.03 10.9725 95.9477 12.4554 96.3371 12.4554C96.8015 12.4554 98.2769 7.71452 100.142 7.71452C102.007 7.71452 100.501 13.7661 101.325 13.7661C102.329 13.7661 104.621 7.62465 106.156 7.62465C108.29 7.62465 106.822 12.7699 107.556 12.7699C108.29 12.7699 109.451 7.62465 111.428 7.63214C113.945 7.63214 111.586 14.178 112.874 14.178C113.855 14.178 116.349 7.39247 116.903 7.39247C117.345 7.39247 116.679 7.92423 118.394 10.3733C118.469 10.4782 118.536 10.583 118.596 10.6879H118.603C120.378 9.05515 122.745 7.63214 124.475 7.63214C124.79 7.63214 124.962 7.67708 124.962 7.90176C124.962 8.41105 123.427 8.83795 123.427 11.3769C123.427 12.9347 124.498 14.2004 125.696 14.2004C127.231 14.2004 128.033 12.6651 128.033 11.4817C128.033 11.1822 127.973 10.8002 127.853 10.4257H127.846C127.523 10.5156 127.179 10.568 126.834 10.568C125.524 10.568 124.962 9.63184 124.962 8.9428C124.962 8.43352 125.449 7.93921 126.1 7.93921C126.992 7.93921 127.913 8.45598 128.422 9.45958C129.815 8.86042 131.088 7.69954 131.95 7.69954C134.062 7.69954 132.863 12.2831 133.35 12.2831C133.882 12.2831 135.507 7.5198 137.2 7.5198C138.533 7.5198 138.421 9.3023 138.421 10.1037C138.421 11.9311 138.001 14.4027 138.668 14.4027C139.132 14.4027 140.316 12.4629 140.473 12.4629C140.63 12.4629 140.653 12.5078 140.653 12.71C140.653 13.092 138.735 15.9605 137.694 15.9605C136.181 15.9605 136.316 13.6462 136.316 12.9122C136.316 12.3356 136.496 9.34724 136.047 9.34724C135.709 9.34724 134.848 11.287 134.039 12.71C133.215 14.1555 132.819 15.7807 131.995 15.7807C130.901 15.7807 131.126 14.2678 131.126 12.7999C131.126 10.8377 131.373 8.95029 130.744 8.95029C130.459 8.95029 129.688 9.63184 128.669 10.1112C128.774 10.4782 128.827 10.8826 128.827 11.332C128.827 12.5752 128.183 15.7807 125.179 15.7807C123.045 15.7807 121.375 14.1106 121.375 11.9311C121.375 9.90895 122.513 9.27983 123.157 8.56833C122.049 8.75557 120.236 9.87899 118.836 11.1822V11.1971C119.173 12.0584 119.195 12.9197 119.195 13.2268C119.195 14.6723 118.281 15.6759 117.345 15.6759C116.724 15.6759 116.102 15.2789 116.102 14.4776C116.102 13.8484 116.544 13.0021 117.255 12.1258C116.896 11.1522 116.394 10.4482 116.124 10.4482C115.57 10.4482 113.945 15.6759 111.893 15.6759C109.646 15.6759 111.204 9.30979 110.447 9.30979C109.713 9.30979 107.556 15.6759 106.306 15.6759C104.546 15.6759 106.126 9.42213 105.347 9.42213C104.343 9.42213 102.029 15.6759 100.471 15.6759C98.2694 15.6759 99.9171 9.51201 99.0034 9.51201C98.5166 9.51201 97.7152 11.1822 96.9587 12.8523C96.3146 14.1855 95.9327 15.5935 95.2436 15.5935C94.5995 15.5935 94.4647 15.3463 94.4647 13.2792C94.4647 12.6202 94.4198 11.1747 94.3824 9.68427C93.6184 10.1786 92.8096 10.5156 91.9932 10.6429C92.0082 10.8077 92.0232 10.9725 92.0232 11.1447C92.0232 12.6351 91.424 15.7732 88.3533 15.7732C86.039 15.7732 84.7733 14.0132 84.7733 11.7663C84.7733 10.568 85.35 9.75916 85.9117 9.09259C84.6984 9.82657 83.3054 10.95 82.0097 12.3131V12.3356C82.1445 13.444 82.2568 14.4251 82.2568 15.2789C82.2568 21.8472 79.3883 25.0527 77.853 25.0527C76.8943 25.0527 76.3851 23.787 76.3851 22.4913C76.3851 20.207 77.5235 17.6007 79.1262 15.219L79.1112 15.1816ZM117.45 12.7025C117.068 13.2493 116.843 13.7735 116.843 14.2154C116.843 14.6573 116.933 14.9269 117.203 14.9269C117.45 14.9269 117.667 14.6124 117.667 14.193C117.667 13.6912 117.585 13.1819 117.458 12.7025H117.45ZM96.045 7.32507C96.9887 6.10428 97.7152 4.48654 97.7152 2.50931C97.7152 1.57312 97.6478 1.04137 97.161 1.04137C95.9102 1.04137 96.03 5.68486 96.045 7.33256V7.32507ZM90.8773 9.90146C90.6376 9.33975 90.2631 8.89038 89.7463 8.89038C89.5217 8.89038 89.3868 9.02519 89.3868 9.20494C89.3868 9.69924 90.0909 9.85652 90.8698 9.90146H90.8773ZM80.4219 14.133C78.7068 16.3874 77.4261 19.0162 77.4261 21.5102C77.4261 22.3341 77.4261 23.5548 78.5645 23.5548C79.965 23.5548 80.9462 21.4653 80.9462 18.5444C80.9462 17.1888 80.7065 15.6459 80.4294 14.1255L80.4219 14.133ZM71.8689 13.474V13.459C71.4869 12.5153 70.8129 11.6091 69.4348 11.6091C69.0528 11.6091 68.8581 11.9461 68.8581 12.343C68.8581 13.077 70.019 13.5414 71.0825 13.5414C71.3072 13.5414 71.5768 13.5114 71.8764 13.4665L71.8689 13.474ZM52.8081 9.71422C52.5984 9.75916 52.3886 9.78163 52.1789 9.78163C51.5798 9.78163 51.2203 9.53447 51.2203 9.13753C51.2203 8.95778 51.4225 8.74059 51.6397 8.74059C52.119 8.74059 52.5235 9.16749 52.8006 9.70673L52.8081 9.71422ZM42.6897 12.7175C42.817 13.1894 42.8994 13.6986 42.8994 14.2004C42.8994 14.6199 42.6747 14.9344 42.4351 14.9344C42.1655 14.9344 42.0756 14.6648 42.0756 14.2229C42.0756 13.781 42.3078 13.2643 42.6822 12.7175H42.6972H42.6897ZM21.2847 7.32507C21.2697 5.67738 21.1499 1.04137 22.4006 1.04137C22.8875 1.04137 22.9549 1.57312 22.9549 2.50931C22.9549 4.48654 22.2284 6.10428 21.2847 7.32507V7.32507ZM16.1169 9.90895C15.338 9.86401 14.6265 9.70673 14.6265 9.21243C14.6265 9.03268 14.7613 8.89787 14.986 8.89787C15.5028 8.89787 15.8848 9.33975 16.1169 9.90146V9.90895ZM5.54174 13.5638C5.23467 13.9458 4.94257 14.3427 4.65797 14.7397C3.27241 13.3841 2.16396 10.4782 2.16396 8.10398C2.15647 2.18726 6.07349 0.517099 6.27571 0.517099C6.5678 0.517099 6.47792 0.584505 6.47792 0.981449C6.47792 1.58061 4.78529 4.38918 4.78529 8.32866C4.78529 9.71422 5.17475 11.5866 5.54174 13.5264V13.5414V13.5638ZM5.65408 14.1405C5.93119 15.6684 6.17085 17.2112 6.17085 18.5668C6.17085 21.4803 5.18973 23.5773 3.78919 23.5773C2.65078 23.5773 2.65078 22.349 2.65078 21.5327C2.65078 19.0387 3.93149 16.4098 5.64659 14.148L5.65408 14.1405Z" fill="black"/>
</svg>
