<svg width="67" height="20" viewBox="0 0 67 20" fill="none" xmlns="http://www.w3.org/2000/svg">
<g opacity="0.3">
<path d="M45.0186 19.3056H43.2759C42.9219 19.3056 42.6505 19.1152 42.6239 18.7618L42.5962 18.0804C41.343 19.0891 39.8456 19.6327 38.2664 19.6327C35.2175 19.6327 33.9658 17.7011 33.9658 14.7593V6.70668C33.9658 6.24358 34.2379 6.08008 34.6721 6.08008H36.5788C37.0149 6.08008 37.2602 6.21553 37.2602 6.70668V14.1871C37.2602 15.6852 37.6411 16.7191 39.2753 16.7191C40.3082 16.7191 41.616 16.1481 42.4329 15.413V6.70668C42.4329 6.24358 42.6784 6.08008 43.1126 6.08008H45.0457C45.4819 6.08008 45.7274 6.21553 45.7274 6.70668V18.5438C45.7271 19.1152 45.5626 19.3056 45.0186 19.3056Z" fill="black"/>
<path d="M0.713867 6.62581C0.713867 6.29997 0.87753 6.08203 1.2037 6.08203H3.50685C3.83335 6.08203 4.02391 6.27275 4.02391 6.62581V18.6276C4.02391 19.1178 3.80514 19.3082 3.34335 19.3082H1.42197C0.933459 19.3082 0.713867 19.1178 0.713867 18.6276V6.62581Z" fill="black"/>
<path d="M49.1348 6.62581C49.1348 6.29997 49.2993 6.08203 49.6251 6.08203H51.9281C52.2552 6.08203 52.4458 6.27275 52.4458 6.62581V18.6276C52.4458 19.1178 52.2277 19.3082 51.7643 19.3082H49.8429C49.3542 19.3082 49.1348 19.1178 49.1348 18.6276V6.62581Z" fill="black"/>
<path d="M18.6175 19.3073H16.6575C16.1677 19.3073 16.0045 19.0626 16.0045 18.5992V11.1936C16.0045 9.69704 15.5968 8.63488 13.9351 8.63488C12.873 8.63488 11.5668 9.2077 10.7229 9.94171V18.6265C10.7229 19.0906 10.5322 19.3071 10.0702 19.3071H8.08205C7.67355 19.3071 7.42822 19.0906 7.42822 18.6539V6.76497C7.42822 6.32909 7.6201 6.08442 8.10943 6.08442H9.87821C10.2592 6.08442 10.5056 6.19281 10.532 6.60114L10.5589 7.32789C11.8123 6.32133 13.3913 5.75 14.9706 5.75C18.0198 5.75 19.2718 7.65538 19.2718 10.6229V18.5992C19.2716 19.0626 19.1088 19.3073 18.6175 19.3073Z" fill="black"/>
<path d="M28.3212 2.3643C28.3212 1.26139 27.4278 0.367188 26.3247 0.367188C25.2223 0.367188 24.3276 1.26139 24.3276 2.3643C24.3276 3.4672 25.2225 4.36042 26.3247 4.36042C27.4278 4.36042 28.3212 3.4672 28.3212 2.3643Z" fill="black"/>
<path d="M31.162 6.08008C31.4885 6.08008 31.6792 6.18847 31.6792 6.54285V8.46011C31.6792 8.78661 31.4618 8.97733 31.1345 8.97733H27.9792V18.6255C27.9792 19.1157 27.7616 19.306 27.2711 19.306H25.3766C24.8864 19.306 24.6691 19.1157 24.6691 18.6255V8.97733H21.513C21.1865 8.97733 20.9688 8.78661 20.9688 8.46011V6.54285C20.9688 6.18847 21.1591 6.08008 21.4861 6.08008H31.162Z" fill="black"/>
<path d="M62.1075 2.3643C62.1075 1.26139 61.2133 0.367188 60.1104 0.367188C59.008 0.367188 58.1138 1.26139 58.1138 2.3643C58.1138 3.4672 59.008 4.36042 60.1104 4.36042C61.2133 4.36042 62.1075 3.4672 62.1075 2.3643Z" fill="black"/>
<path d="M64.9483 6.08008C65.2742 6.08008 65.4645 6.18847 65.4645 6.54285V8.46011C65.4645 8.78661 65.2476 8.97733 64.9199 8.97733H61.7647V18.6255C61.7647 19.1157 61.5477 19.306 61.0572 19.306H59.1622C58.6719 19.306 58.4548 19.1157 58.4548 18.6255L58.4541 8.97733H55.2997C54.9723 8.97733 54.7544 8.78661 54.7544 8.46011V6.54285C54.7544 6.18847 54.9456 6.08008 55.2713 6.08008H64.9483Z" fill="black"/>
<path d="M65.8106 17.6328C66.2919 17.6328 66.6944 18.0121 66.6944 18.5097C66.6944 19.016 66.2919 19.3963 65.8106 19.3963C65.3272 19.3963 64.9219 19.016 64.9219 18.5097C64.922 18.0121 65.3274 17.6328 65.8106 17.6328ZM65.8106 19.267C66.219 19.267 66.5346 18.9418 66.5346 18.5097C66.5346 18.088 66.219 17.7622 65.8106 17.7622C65.3978 17.7622 65.0817 18.0882 65.0817 18.5097C65.0817 18.9419 65.3978 19.267 65.8106 19.267ZM65.4665 17.9981H65.8644C66.1099 17.9981 66.2257 18.0948 66.2257 18.2932C66.2257 18.4785 66.1084 18.5575 65.9543 18.5735L66.2495 19.0289H66.0769L65.7966 18.5849H65.6265V19.0289H65.4663V17.9981H65.4665ZM65.6265 18.4554H65.7943C65.9359 18.4554 66.0652 18.4488 66.0652 18.2861C66.0652 18.149 65.9479 18.1283 65.8392 18.1283H65.6267V18.4554H65.6265Z" fill="black"/>
</g>
</svg>
