<svg width="50" height="40" viewBox="0 0 50 40" fill="none" xmlns="http://www.w3.org/2000/svg">
<g opacity="0.3">
<path fill-rule="evenodd" clip-rule="evenodd" d="M3.08529 23.5936H46.6468V16.7775H3.08529V23.5936ZM37.8674 29.6932C37.8674 29.6932 32.2404 34.8004 24.866 36.6431C17.4888 34.7947 11.8689 29.6932 11.8689 29.6932C13.5446 28.698 14.1089 27.407 14.3036 26.6093H35.4356C35.6261 27.407 36.1889 28.6951 37.8674 29.6932ZM11.8202 9.31575C11.8202 9.31575 18.1548 9.64561 24.866 4.68062C31.5787 9.64561 37.9133 9.31575 37.9133 9.31575C35.8581 11.3888 35.5172 13.0438 35.4786 13.7561H14.2564C14.2148 13.0438 13.874 11.3888 11.8202 9.31575ZM49.7131 13.7561H38.7984C38.8614 12.0314 41.1042 11.2068 41.1042 11.2068V6.76217C28.9105 6.0996 24.866 0 24.866 0C24.866 0 20.8215 6.0996 8.6293 6.76217V11.2068C8.6293 11.2068 10.8707 12.0314 10.9351 13.7561H0.0161133V26.6093H10.9008C10.2778 28.8245 7.17706 29.3861 7.17706 29.3861C16.0566 38.5355 24.8675 40 24.8675 40C24.8675 40 33.6726 38.5313 42.5521 29.3861C42.5521 29.3861 39.4514 28.8174 38.8284 26.6093H49.7131V13.7561Z" fill="black"/>
<path fill-rule="evenodd" clip-rule="evenodd" d="M44.0516 30.0188C43.9136 30.0194 43.7786 29.9793 43.6635 29.9036C43.5485 29.8279 43.4586 29.7201 43.4054 29.5937C43.3521 29.4673 43.3378 29.3281 43.3642 29.1936C43.3907 29.0591 43.4568 28.9355 43.5541 28.8383C43.6513 28.7411 43.7755 28.6748 43.9108 28.6477C44.0461 28.6206 44.1864 28.6339 44.314 28.686C44.4417 28.7381 44.5509 28.8267 44.6278 28.9404C44.7047 29.0541 44.746 29.188 44.7463 29.325C44.7466 29.4159 44.729 29.5059 44.6942 29.59C44.6595 29.674 44.6084 29.7505 44.5439 29.8149C44.4794 29.8794 44.4027 29.9306 44.3182 29.9656C44.2338 30.0005 44.1432 30.0187 44.0516 30.0188ZM44.0516 28.5387C43.8949 28.5382 43.7415 28.5838 43.6108 28.6699C43.4802 28.7559 43.3783 28.8785 43.3179 29.0221C43.2575 29.1657 43.2414 29.3239 43.2716 29.4766C43.3019 29.6293 43.3771 29.7697 43.4877 29.88C43.5984 29.9902 43.7395 30.0654 43.8932 30.0959C44.0469 30.1265 44.2063 30.1111 44.3512 30.0517C44.4961 29.9922 44.6199 29.8915 44.7071 29.7621C44.7943 29.6327 44.8408 29.4806 44.8408 29.325C44.84 29.1172 44.7567 28.9181 44.609 28.7708C44.4612 28.6236 44.261 28.5402 44.0516 28.5387Z" fill="black"/>
<path fill-rule="evenodd" clip-rule="evenodd" d="M44.0674 29.2966H43.8411V28.971H44.0645C44.182 28.971 44.2851 28.9866 44.2822 29.1288C44.2793 29.271 44.1877 29.2966 44.0674 29.2966ZM44.3982 29.5212C44.3984 29.4779 44.3886 29.4351 44.3696 29.3961C44.3498 29.3695 44.3206 29.3512 44.2879 29.3449C44.3299 29.3262 44.3652 29.2952 44.389 29.2561C44.4128 29.217 44.424 29.1716 44.4211 29.1259C44.4232 29.0766 44.4124 29.0276 44.3896 28.9838C44.358 28.9355 44.3127 28.8975 44.2595 28.8745C44.2063 28.8515 44.1475 28.8445 44.0903 28.8544H43.7136V29.8155H43.8411V29.406H44.0617C44.1172 29.4001 44.1734 29.41 44.2235 29.4345C44.2536 29.4697 44.269 29.5149 44.2665 29.561V29.6833C44.2657 29.7287 44.2745 29.7737 44.2922 29.8155H44.4426C44.4186 29.7741 44.4039 29.728 44.3997 29.6804L44.3896 29.5184L44.3982 29.5212Z" fill="black"/>
</g>
</svg>
