<svg width="81" height="30" viewBox="0 0 81 30" fill="none" xmlns="http://www.w3.org/2000/svg">
<path d="M22.3319 3.05006L18.9408 4.28265V5.76594L20.7191 5.13919V12.6183H18.9408V14.0598H24.1102V12.6183H22.3319V3.05006Z" fill="black"/>
<path d="M34.1389 6.37187C35.1934 5.76602 35.7517 4.70055 35.7517 3.46796C35.7517 1.58774 34.0975 0 32.1745 0C30.0033 0 28.3491 1.56685 28.3491 3.59331C28.3491 4.8259 28.9695 5.87047 30.0447 6.45543C28.5766 7.08217 27.6461 8.52368 27.6461 10.1323C27.6461 12.493 29.6105 14.3315 32.1125 14.3315C34.5731 14.3315 36.5789 12.4095 36.5789 9.98607C36.5995 8.461 35.607 6.99861 34.1389 6.37187ZM29.9 3.6142C29.9 2.4234 30.8718 1.4415 32.0711 1.4415C33.2704 1.4415 34.2423 2.4234 34.2423 3.65599C34.2423 4.8468 33.2704 5.82869 32.0504 5.82869C30.8718 5.8078 29.9 4.80501 29.9 3.6142ZM32.0918 12.8482C30.4996 12.8482 29.259 11.6156 29.259 10.0487C29.259 8.54456 30.541 7.27019 32.0504 7.27019C33.6219 7.27019 34.8833 8.50278 34.8833 10.0487C34.904 11.6156 33.6426 12.8482 32.0918 12.8482Z" fill="black"/>
<path d="M42.7822 2.7575C41.4381 2.7575 40.1148 3.34246 39.1636 4.36614C38.2744 5.28536 37.9022 6.32993 37.9022 7.8341V9.25471C37.9022 10.8216 38.3572 11.9497 39.3497 12.9107C40.3009 13.8299 41.5208 14.3313 42.8029 14.3313C44.1676 14.3313 45.4703 13.7464 46.4421 12.7436C47.3106 11.8244 47.6621 10.7589 47.6621 9.25471V7.8341C47.6621 6.24636 47.2486 5.13912 46.2147 4.17811C45.3049 3.27979 44.0642 2.7575 42.7822 2.7575ZM46.0286 9.25471C46.0286 10.1322 45.9252 10.8216 45.4496 11.511C44.8706 12.3257 43.8574 12.8271 42.8029 12.8271C41.7896 12.8271 40.8178 12.3466 40.2388 11.5528C39.6805 10.8633 39.5771 10.1322 39.5771 9.25471V7.85499C39.5771 7.01933 39.6805 6.32993 40.1768 5.64051C40.7558 4.82575 41.769 4.32435 42.8029 4.32435C43.8574 4.32435 44.8086 4.80485 45.3876 5.59872C45.9045 6.28814 46.0079 6.97756 46.0079 7.89678C46.0286 7.87588 46.0286 9.25471 46.0286 9.25471Z" fill="black"/>
<path d="M53.7826 2.7575C52.4179 2.7575 51.1152 3.34246 50.164 4.36614C49.2749 5.28536 48.9027 6.32993 48.9027 7.8341V9.25471C48.9027 10.8216 49.3576 11.9497 50.3501 12.9107C51.3013 13.8299 52.5213 14.3313 53.8033 14.3313C55.168 14.3313 56.4707 13.7464 57.4426 12.7436C58.3111 11.8244 58.6626 10.7589 58.6626 9.25471V7.8341C58.6626 6.24636 58.249 5.13912 57.2151 4.17811C56.326 3.27979 55.0647 2.7575 53.7826 2.7575ZM57.029 9.25471C57.029 10.1322 56.9256 10.8216 56.4501 11.511C55.8711 12.3257 54.8579 12.8271 53.8033 12.8271C52.7901 12.8271 51.8183 12.3466 51.2393 11.5528C50.681 10.8633 50.5776 10.1322 50.5776 9.25471V7.85499C50.5776 7.01933 50.681 6.32993 51.1773 5.64051C51.7562 4.82575 52.7694 4.32435 53.824 4.32435C54.8786 4.32435 55.8297 4.80485 56.4087 5.59872C56.9256 6.28814 57.029 6.97756 57.029 7.89678V9.27561V9.25471Z" fill="black"/>
<path d="M8.66395 26.4485C8.10565 27.6602 6.80296 28.454 5.39688 28.454C3.22572 28.454 1.53015 26.8245 1.53015 24.7354C1.53015 22.5836 3.18436 20.9331 5.29349 20.9331C6.63754 20.9331 7.8782 21.6435 8.58124 22.7507L8.64327 22.8343H10.0494V19.5752H8.58124V20.766C7.67142 19.8677 6.51347 19.4081 5.23145 19.4081C3.82537 19.4081 2.54336 19.9721 1.4888 21.0167C0.516944 21.9986 0 23.3357 0 24.7354C0 27.5975 2.43997 29.9791 5.31417 29.9791C7.60939 29.9791 9.6358 28.6003 10.4009 26.532L10.4836 26.344H8.78801L8.66395 26.4485Z" fill="black"/>
<path d="M16.4801 19.3872C13.5025 19.3872 11.0832 21.7688 11.0832 24.6936C11.0832 27.5975 13.4818 29.9791 16.4388 29.9791C19.3957 29.9791 21.7943 27.5766 21.7943 24.61C21.8356 21.7479 19.437 19.3872 16.4801 19.3872ZM16.4594 28.4958C14.371 28.4958 12.6341 26.7827 12.6341 24.6936C12.6341 22.6045 14.371 20.9123 16.4801 20.9123C18.5686 20.9123 20.2848 22.6045 20.2848 24.6936C20.2848 26.8036 18.5479 28.4958 16.4594 28.4958Z" fill="black"/>
<path d="M32.5467 24.0251C32.5467 22.7089 32.1745 21.8106 31.9677 21.3719C31.3474 20.0766 29.6725 19.3872 28.4111 19.3872C27.1084 19.3872 25.9298 19.9721 25.2268 20.9123V19.5334H22.001V20.9958H23.6759V28.2451H22.001V29.7075H26.9017V28.2451H25.2268V24.2758C25.2268 23.461 25.2268 22.5836 25.8471 21.8524C26.364 21.2465 27.2325 20.8705 28.0803 20.8705C28.6386 20.8705 29.962 20.9749 30.5409 21.9986C30.9545 22.7089 30.9958 23.4819 30.9958 24.422V28.2242H29.321V29.6866H34.2216V28.2242H32.5467V24.0042V24.0251Z" fill="black"/>
<path d="M36.8683 25.6128V21.0376H39.0601V19.5752H36.8683V16.0028H35.3175V19.5752H33.4151V21.0376H35.3175V25.9053C35.3175 28.663 36.372 30 38.5018 30H39.2049V28.5167H38.5018C36.8683 28.4958 36.8683 27.0334 36.8683 25.6128Z" fill="black"/>
<path d="M48.882 21.4137C47.9309 20.0975 46.6075 19.429 44.9533 19.429C43.0923 19.429 41.3347 20.39 40.5282 21.8315L40.5076 21.8942C40.094 22.6045 39.7011 23.2939 39.7011 24.7145C39.6805 25.7382 39.9699 26.7201 40.5076 27.6184C41.3967 29.1017 43.1336 30 44.9739 30C46.5661 30 47.9929 29.2897 48.9027 28.0362V29.7284H51.7769V28.266H50.4329V21.0167H51.7769V19.5543H48.9027V21.3719H48.882V21.4137ZM45.0153 28.5167C42.9475 28.5167 41.1899 26.7618 41.1899 24.7354C41.1899 22.6462 42.9269 20.9331 45.0567 20.9331C47.1451 20.9331 48.882 22.6253 48.882 24.7145C48.9027 26.8245 47.2071 28.5167 45.0153 28.5167Z" fill="black"/>
<path d="M60.7717 26.4485C60.2134 27.6602 58.9107 28.454 57.5046 28.454C55.3335 28.454 53.6379 26.8245 53.6379 24.7354C53.6379 22.5836 55.2921 20.9331 57.4012 20.9331C58.7453 20.9331 59.986 21.6435 60.689 22.7507L60.751 22.8343H62.1571V19.5752H60.689V20.766C59.7792 19.8677 58.6419 19.4081 57.3392 19.4081C55.9331 19.4081 54.6511 19.9721 53.5965 21.0167C52.6247 21.9986 52.1077 23.3357 52.1077 24.7354C52.1077 27.5975 54.5477 29.9791 57.4219 29.9791C59.7171 29.9791 61.7435 28.6003 62.5086 26.532L62.5913 26.344H60.8958L60.7717 26.4485Z" fill="black"/>
<path d="M66.6235 25.6128V21.0376H68.8153V19.5752H66.6235V16.0028H65.0726V19.5752H63.1703V21.0376H65.0726V25.9053C65.0726 28.663 66.1272 30 68.257 30H68.9601V28.5167H68.257C66.6235 28.4958 66.6235 27.0334 66.6235 25.6128Z" fill="black"/>
<path d="M76.1352 24.61C75.4115 24.1922 74.5637 24.0042 73.84 23.8788C72.7441 23.649 71.7515 23.3565 71.7515 22.2702C71.7515 21.2674 72.6614 20.7451 73.5505 20.7451C74.0261 20.7451 74.5017 20.9123 74.8532 21.163C75.2254 21.4345 75.4322 21.8315 75.4322 22.2493V22.3746H76.7349V19.5961H75.4322V20.2228C74.9359 19.7006 74.2329 19.4081 73.3024 19.4081C72.4339 19.4081 71.2139 19.7006 70.5522 20.5362C70.1594 21.0376 69.9939 21.5599 69.9939 22.312C69.9939 23.2103 70.4489 24.0251 71.2553 24.5265C71.917 24.9234 72.6614 25.0905 73.4058 25.2368L73.5712 25.2577C74.6464 25.4666 75.7423 25.7173 75.7423 26.9499C75.7423 28.0362 74.7291 28.7047 73.7366 28.7047C72.4546 28.7047 71.4621 27.89 71.338 26.741V26.6156H70.0353V29.7284H71.338V28.851C71.9376 29.5822 72.8268 29.9791 73.9641 29.9791C75.2667 29.9791 76.5281 29.3524 77.0037 28.454C77.2311 28.0362 77.4586 27.5348 77.4586 26.8663C77.4379 25.9262 76.9623 25.0905 76.1352 24.61Z" fill="black"/>
<path d="M80.1053 18.468C80.1053 18.1964 79.8985 18.071 79.485 18.071H78.906V19.5752H79.2162V18.9485H79.4436L79.7331 19.5752H80.1053L79.7745 18.8858C80.0019 18.8231 80.1053 18.6769 80.1053 18.468ZM79.423 18.7396H79.2162V18.2591H79.423C79.6504 18.2591 79.7952 18.3426 79.7952 18.4889C79.7952 18.656 79.6504 18.7396 79.423 18.7396Z" fill="black"/>
<path d="M80.3948 17.883C80.126 17.6114 79.7952 17.4861 79.423 17.4861C79.0508 17.4861 78.7406 17.6114 78.4718 17.8621C78.203 18.1337 78.0789 18.468 78.0789 18.8231C78.0789 19.1783 78.203 19.5125 78.4718 19.7423C78.7406 20.0139 79.0714 20.1393 79.423 20.1393C79.7538 20.1393 80.1053 20.0139 80.3741 19.7423C80.6429 19.5125 80.767 19.1574 80.767 18.7813C80.7877 18.468 80.6636 18.1546 80.3948 17.883ZM80.2707 19.6379C80.0433 19.8468 79.7538 19.9721 79.4436 19.9721C79.1541 19.9721 78.8647 19.8468 78.6579 19.6379C78.4511 19.429 78.327 19.1365 78.327 18.844C78.327 18.5515 78.4511 18.2591 78.6579 18.0292C78.8647 17.8203 79.1542 17.7159 79.4643 17.7159C79.7745 17.7159 80.064 17.8203 80.2707 18.0501C80.4775 18.2591 80.5809 18.5515 80.5809 18.8649C80.6016 19.1365 80.4775 19.429 80.2707 19.6379Z" fill="black"/>
</svg>
