<svg width="74" height="20" viewBox="0 0 74 20" fill="none" xmlns="http://www.w3.org/2000/svg">
<g clip-path="url(#clip0_6593_19685)">
<path d="M38.9033 13.0739C38.9033 9.25392 41.9552 6.17736 45.7469 6.17578C49.5466 6.1742 52.6064 9.27449 52.6016 13.123C52.5968 16.9224 49.5084 20.0084 45.723 19.9989C41.9408 19.9894 38.9033 16.905 38.9033 13.0739ZM41.7372 13.0565C41.7181 15.2947 43.4763 17.1565 45.6339 17.1818C47.9156 17.2087 49.7375 15.4292 49.7709 13.1404C49.8043 10.8911 48.0143 9.01824 45.7899 8.97395C43.5988 8.92966 41.7579 10.7851 41.7372 13.0581V13.0565Z" fill="black"/>
<path d="M29.311 19.6005H26.291V0.0371094H29.311V19.6005Z" fill="black"/>
<path d="M33.4443 0.00149506C34.3863 0.00149506 35.3028 -0.00641382 36.2193 0.0141493C36.3116 0.0157311 36.4087 0.189727 36.4834 0.295706C36.5137 0.338414 36.4898 0.417503 36.4898 0.480774C36.4898 6.70823 36.4898 12.9373 36.4898 19.1647C36.4898 19.2881 36.4787 19.4131 36.4723 19.5744H33.4459V0.00149506H33.4443Z" fill="black"/>
<path d="M69.9104 19.6161C68.8586 19.6161 67.8753 19.6304 66.8936 19.5987C66.7679 19.594 66.5976 19.363 66.5371 19.2049C65.1687 15.5715 63.8115 11.9318 62.4526 8.29534C62.2458 7.74172 62.0421 7.18493 61.813 6.56804C62.8695 6.56804 63.8513 6.55222 64.8314 6.58702C64.9587 6.59177 65.129 6.82903 65.191 6.99196C66.5053 10.4798 67.8053 13.9708 69.1084 17.4633C69.3662 18.153 69.6224 18.8442 69.9088 19.6193L69.9104 19.6161Z" fill="black"/>
<path d="M8.17383 6.56374C9.23354 6.56374 10.201 6.54951 11.1668 6.58114C11.2989 6.58589 11.4834 6.80101 11.5423 6.95602C12.4684 9.39671 13.3785 11.8421 14.2934 14.2876C14.8933 15.8931 15.4947 17.497 16.0946 19.1025C16.1487 19.248 16.1901 19.3967 16.2585 19.6134C15.2227 19.6134 14.2298 19.6292 13.2401 19.5944C13.116 19.5897 12.9537 19.3429 12.8916 19.1784C11.8876 16.5147 10.8995 13.8478 9.90501 11.181C9.34015 9.66719 8.7721 8.15343 8.17542 6.56374H8.17383Z" fill="black"/>
<path d="M53.561 6.5671C54.6207 6.5671 55.6184 6.55444 56.6145 6.5845C56.7274 6.58766 56.8754 6.8186 56.9343 6.97045C58.0449 9.91256 59.1444 12.8578 60.2455 15.8031C60.6528 16.8929 61.0618 17.9828 61.4675 19.0726C61.5264 19.2308 61.5725 19.3953 61.6409 19.612C60.5987 19.612 59.6027 19.6247 58.6098 19.5946C58.4968 19.5915 58.3441 19.3621 58.2868 19.2087C57.0918 16.0293 55.908 12.8468 54.7226 9.66422C54.3455 8.6503 53.9652 7.63796 53.5626 6.56552L53.561 6.5671Z" fill="black"/>
<path d="M0.0110181 6.56666C0.994354 6.56666 1.96019 6.54926 2.92443 6.58564C3.06286 6.59039 3.25221 6.83556 3.31585 7.00797C4.35011 9.74129 5.36845 12.4825 6.38997 15.2206C6.92778 16.66 7.46719 18.0994 8.03364 19.6147C6.96756 19.6147 5.96195 19.6211 4.95634 19.6037C4.87201 19.6037 4.75108 19.4692 4.71448 19.3727C3.13924 15.1636 1.57194 10.9513 0.00306235 6.73907C-0.0064846 6.71218 0.00306235 6.67738 0.00942698 6.56666H0.0110181Z" fill="black"/>
<path d="M18.833 6.59375H21.8658V19.5881H18.833V6.59375Z" fill="black"/>
<path d="M73.9995 8.42817C74.0042 9.54648 73.1116 10.4497 71.9946 10.4608C70.8506 10.4718 69.9166 9.56863 69.9102 8.44557C69.9038 7.32883 70.8442 6.40191 71.9771 6.40824C73.0957 6.41456 73.9963 7.31459 74.0011 8.42817H73.9995Z" fill="black"/>
<path d="M20.329 4.05471C19.2024 4.04522 18.3114 3.15468 18.313 2.03636C18.313 0.910135 19.255 -0.015205 20.3783 0.00219456C21.5112 0.0211759 22.415 0.952843 22.3959 2.08381C22.3784 3.18631 21.4587 4.06262 20.329 4.05471Z" fill="black"/>
</g>
<defs>
<clipPath id="clip0_6593_19685">
<rect width="74" height="20" fill="white"/>
</clipPath>
</defs>
</svg>
