<svg width="105" height="26" viewBox="0 0 105 26" fill="none" xmlns="http://www.w3.org/2000/svg">
<g opacity="0.3" clip-path="url(#clip0_6593_19975)">
<path fill-rule="evenodd" clip-rule="evenodd" d="M22.511 16.1312C21.6493 16.1312 20.8076 15.8732 20.0912 15.3947C19.3748 14.9163 18.8161 14.2349 18.488 13.4383C18.1598 12.6417 18.0722 11.765 18.2425 10.9208C18.4103 10.0766 18.8262 9.30005 19.4374 8.69133C20.0461 8.08261 20.8227 7.66678 21.6693 7.49894C22.5135 7.33111 23.3903 7.41878 24.1869 7.74694C24.9835 8.0776 25.6623 8.63622 26.1433 9.35265C26.6217 10.0691 26.8773 10.9108 26.8773 11.7725C26.8773 12.9298 26.4138 14.037 25.5972 14.8537C24.7781 15.6703 23.6708 16.1312 22.5135 16.1312H22.511ZM22.511 5.13672C21.1984 5.13672 19.9158 5.53001 18.8262 6.26147C17.7365 6.99293 16.8873 8.03001 16.3863 9.24243C15.8853 10.4549 15.755 11.79 16.013 13.0776C16.271 14.3652 16.9048 15.5475 17.8317 16.4744C18.761 17.4012 19.9434 18.0325 21.231 18.288C22.5185 18.5435 23.8537 18.4108 25.0661 17.9073C26.2786 17.4038 27.3156 16.552 28.0421 15.4624C28.771 14.3702 29.1593 13.0876 29.1593 11.775C29.1543 10.014 28.4529 8.3256 27.2079 7.08311C25.9604 5.83812 24.272 5.13922 22.511 5.13922V5.13672Z" fill="black"/>
<path fill-rule="evenodd" clip-rule="evenodd" d="M37.6814 16.1312C36.8197 16.1312 35.978 15.8732 35.2616 15.3922C34.5452 14.9113 33.9891 14.2299 33.6584 13.4333C33.3302 12.6367 33.2451 11.76 33.4129 10.9158C33.5807 10.0716 33.9966 9.29504 34.6078 8.68632C35.2165 8.0776 35.9956 7.66427 36.8398 7.49644C37.6864 7.3286 38.5607 7.41628 39.3573 7.74694C40.1539 8.0776 40.8327 8.63622 41.3112 9.35265C41.7897 10.0691 42.0452 10.9108 42.0452 11.7725C42.0427 12.9298 41.5817 14.037 40.7626 14.8537C39.9435 15.6703 38.8337 16.1287 37.6789 16.1312H37.6814ZM37.6814 5.13672C36.3688 5.13672 35.0862 5.53001 33.9966 6.26147C32.9069 6.99293 32.0577 8.03001 31.5567 9.24243C31.0557 10.4549 30.9254 11.79 31.1834 13.0776C31.4415 14.3652 32.0752 15.5475 33.0021 16.4744C33.9289 17.4012 35.1138 18.0325 36.4014 18.288C37.689 18.5435 39.0241 18.4108 40.2365 17.9073C41.449 17.4038 42.4835 16.552 43.2125 15.4624C43.9415 14.3702 44.3297 13.0876 44.3297 11.775C44.3272 10.014 43.6233 8.3256 42.3783 7.08311C41.1308 5.83812 39.4425 5.13922 37.6814 5.13922V5.13672Z" fill="black"/>
<path fill-rule="evenodd" clip-rule="evenodd" d="M52.8566 16.1288C51.9949 16.1288 51.1532 15.8707 50.4368 15.3923C49.7203 14.9138 49.1617 14.2325 48.8336 13.4359C48.5054 12.6393 48.4202 11.7625 48.5881 10.9183C48.7584 10.0741 49.1717 9.29759 49.783 8.68888C50.3917 8.08016 51.1707 7.66433 52.0149 7.499C52.8616 7.33116 53.7359 7.41884 54.5325 7.7495C55.329 8.08016 56.0079 8.63878 56.4864 9.35521C56.9648 10.0716 57.2203 10.9158 57.2203 11.7776C57.2203 12.9324 56.7569 14.0421 55.9403 14.8587C55.1211 15.6753 54.0139 16.1338 52.8566 16.1338V16.1288ZM57.2203 6.76252C56.2609 5.92335 55.0785 5.37976 53.8185 5.19439C52.556 5.00902 51.2684 5.19188 50.1086 5.71794C48.9488 6.24399 47.9643 7.09569 47.2729 8.16784C46.5816 9.23998 46.2158 10.4875 46.2158 11.7625C46.2158 13.0376 46.5816 14.2851 47.2729 15.3572C47.9643 16.4294 48.9488 17.2786 50.1086 17.8071C51.2684 18.3357 52.5585 18.516 53.8185 18.3307C55.0811 18.1453 56.2609 17.6017 57.2203 16.7625V18.1678H59.5049V0.5H57.2203V6.76252Z" fill="black"/>
<path fill-rule="evenodd" clip-rule="evenodd" d="M68.3325 7.41686C68.9187 7.40434 69.5023 7.50955 70.0484 7.72749C70.5945 7.94793 71.088 8.27358 71.5013 8.69191L73.117 7.08119C72.348 6.30965 71.4036 5.73851 70.364 5.41787C69.3245 5.09722 68.2197 5.0371 67.1526 5.24252C66.083 5.44793 65.081 5.91386 64.2343 6.59773C63.3876 7.28159 62.7213 8.16336 62.2954 9.16536C61.8696 10.1674 61.6942 11.257 61.7894 12.3417C61.8846 13.4264 62.2428 14.471 62.834 15.3828C63.4277 16.2946 64.2343 17.0486 65.1862 17.5772C66.1381 18.1057 67.2052 18.3913 68.2949 18.4088H68.4252C69.2969 18.4088 70.1611 18.241 70.9677 17.9078C71.7744 17.5747 72.5058 17.0837 73.1221 16.465L71.5063 14.8517C71.0905 15.2676 70.5945 15.5932 70.0509 15.8137C69.5048 16.0316 68.9212 16.1393 68.335 16.1293C67.7488 16.1168 67.1702 15.989 66.6341 15.7485C66.098 15.508 65.617 15.1624 65.2162 14.7315C64.4848 13.9199 64.079 12.8653 64.079 11.7731C64.079 10.6809 64.4848 9.62628 65.2162 8.81466C65.6145 8.3838 66.0955 8.03811 66.6316 7.79763C67.1676 7.55714 67.7463 7.42939 68.3325 7.41937V7.41686Z" fill="black"/>
<path fill-rule="evenodd" clip-rule="evenodd" d="M81.0404 7.41628C81.9597 7.41628 82.8515 7.71938 83.5805 8.278C84.3094 8.83662 84.8355 9.61818 85.0784 10.5024H76.9873C77.2303 9.61317 77.7588 8.83161 78.4903 8.27299C79.2217 7.71437 80.1185 7.41377 81.0404 7.41628ZM81.0404 5.13672C77.3931 5.13672 74.5273 8.05255 74.5273 11.7725C74.5298 13.5335 75.2313 15.2219 76.4762 16.4644C77.7212 17.7094 79.4096 18.4083 81.1706 18.4108C82.358 18.4133 83.5278 18.1102 84.5624 17.529C85.597 16.9478 86.4662 16.1087 87.0825 15.0916L85.106 13.9518C84.6952 14.6207 84.119 15.1743 83.4327 15.5551C82.7463 15.9358 81.9722 16.1362 81.1857 16.1312C80.1812 16.1312 79.2092 15.783 78.4302 15.1467C77.6511 14.5105 77.1175 13.6262 76.9146 12.6442H87.5534V11.7725C87.5434 8.04754 84.6852 5.13672 81.0404 5.13672Z" fill="black"/>
<path fill-rule="evenodd" clip-rule="evenodd" d="M89.7856 18.1412H92.0702V0.541016H89.7856V18.1412Z" fill="black"/>
<path fill-rule="evenodd" clip-rule="evenodd" d="M95.4946 18.1412H97.7792V0.541016H95.4946V18.1412Z" fill="black"/>
<path fill-rule="evenodd" clip-rule="evenodd" d="M7.33583 23.2208C6.48664 23.2208 5.64746 23.0529 4.86589 22.7248C4.08433 22.3966 3.37291 21.9182 2.77672 21.3145L1.18604 22.9502C2.49616 24.2629 4.19455 25.1221 6.02822 25.4001C7.86189 25.6807 9.73814 25.3651 11.3789 24.5033L10.179 22.5594C9.29475 22.9953 8.32281 23.2233 7.33583 23.2208Z" fill="black"/>
<path fill-rule="evenodd" clip-rule="evenodd" d="M10.3594 14.9411C9.64796 15.62 8.72862 16.0383 7.74916 16.1285C6.7697 16.2187 5.79024 15.9732 4.96609 15.4346C4.14445 14.896 3.52822 14.0944 3.2176 13.1601C2.90948 12.2257 2.92451 11.2162 3.26269 10.2918C3.60086 9.36748 4.24215 8.58842 5.08132 8.0749C5.9205 7.56137 6.90748 7.34844 7.88443 7.46868C8.86138 7.58892 9.76569 8.03732 10.4546 8.73872C11.1434 9.44013 11.5743 10.3545 11.6795 11.3314C11.6971 11.4867 11.7046 11.642 11.7046 11.7973C11.7046 12.386 11.5868 12.9672 11.3564 13.5083C11.1234 14.0493 10.7852 14.5353 10.3569 14.9386L10.3594 14.9411ZM11.8624 16.6621L11.9451 16.5844C12.902 15.6676 13.5608 14.4852 13.8388 13.1876C14.1169 11.8925 13.9992 10.5423 13.5032 9.31488C13.0072 8.08492 12.1555 7.03281 11.0558 6.29383C9.95607 5.55486 8.66098 5.16157 7.33583 5.16407C6.35136 5.16407 5.37691 5.38201 4.48764 5.80536C3.59836 6.2287 2.81178 6.84243 2.19054 7.60646C1.56679 8.37049 1.12341 9.26227 0.887937 10.2192C0.652466 11.1761 0.632426 12.1731 0.830322 13.1375C1.02822 14.102 1.43904 15.0113 2.03022 15.7978C2.62391 16.5844 3.38293 17.2307 4.25467 17.6866C5.12641 18.1425 6.09084 18.4005 7.07531 18.4381C8.05978 18.4757 9.03924 18.2953 9.94605 17.9071L13.3253 23.2102C13.9165 22.6666 14.4325 22.0478 14.8584 21.3665L11.8624 16.6646V16.6621Z" fill="black"/>
<path fill-rule="evenodd" clip-rule="evenodd" d="M101.967 1.76689V2.25287H102.285C102.32 2.25287 102.353 2.25036 102.386 2.23784C102.418 2.22531 102.446 2.20778 102.471 2.18523C102.493 2.16269 102.511 2.13513 102.523 2.10507C102.536 2.07501 102.541 2.04244 102.538 2.00988C102.538 1.97731 102.533 1.94725 102.523 1.91719C102.511 1.88713 102.493 1.86208 102.471 1.83954C102.446 1.81699 102.416 1.79946 102.386 1.78693C102.353 1.77691 102.32 1.7719 102.285 1.77441L101.967 1.76689ZM102.889 1.99735C102.894 2.10006 102.869 2.20026 102.814 2.28794C102.759 2.37311 102.679 2.44074 102.581 2.47581L102.979 3.20978H102.614L102.263 2.55096H101.98V3.20978H101.612V1.45627H102.333C102.406 1.45126 102.478 1.46379 102.548 1.48633C102.616 1.51138 102.681 1.54896 102.734 1.59906C102.786 1.65166 102.829 1.71429 102.854 1.78443C102.882 1.85457 102.892 1.92721 102.889 2.00236V1.99735ZM101.188 3.37761C101.321 3.51539 101.481 3.62561 101.659 3.70076C101.837 3.77591 102.027 3.81098 102.22 3.80848C102.601 3.79345 102.959 3.63062 103.222 3.35757C103.485 3.08453 103.633 2.7188 103.633 2.33804C103.633 1.95727 103.485 1.59154 103.222 1.3185C102.959 1.04545 102.601 0.882625 102.22 0.867595C102.027 0.86509 101.837 0.90016 101.659 0.975311C101.481 1.04796 101.321 1.15818 101.188 1.29595C100.915 1.57401 100.762 1.94725 100.762 2.33804C100.762 2.72882 100.915 3.10206 101.188 3.38012V3.37761ZM102.225 0.539439C102.641 0.539439 103.042 0.684729 103.363 0.95026C103.683 1.21579 103.901 1.58152 103.981 1.98984C104.061 2.39816 103.999 2.8215 103.801 3.18723C103.603 3.55297 103.287 3.83854 102.902 3.99635C102.518 4.15417 102.09 4.17421 101.694 4.05397C101.296 3.93122 100.953 3.67822 100.725 3.33002C100.494 2.98433 100.392 2.5685 100.434 2.15517C100.477 1.74184 100.66 1.35607 100.953 1.06299C101.118 0.892645 101.316 0.75988 101.534 0.669699C101.752 0.579519 101.987 0.534429 102.225 0.539439Z" fill="black"/>
</g>
<defs>
<clipPath id="clip0_6593_19975">
<rect width="103.322" height="25" fill="white" transform="translate(0.694824 0.5)"/>
</clipPath>
</defs>
</svg>
