<svg width="73" height="24" viewBox="0 0 73 24" fill="none" xmlns="http://www.w3.org/2000/svg">
<path opacity="0.3" d="M66.3006 19.0717C66.2486 19.0737 66.1968 19.065 66.1483 19.046C66.0999 19.0271 66.0558 18.9983 66.0191 18.9615C65.9823 18.9247 65.9535 18.8806 65.9346 18.8321C65.9156 18.7836 65.9069 18.7317 65.909 18.6797V7.32983H62.058C62.006 7.3319 61.9542 7.32318 61.9057 7.30422C61.8573 7.28525 61.8133 7.25646 61.7765 7.21964C61.7397 7.18282 61.7109 7.13878 61.692 7.0903C61.673 7.04181 61.6643 6.98992 61.6664 6.93789V5.37014C61.6643 5.31812 61.673 5.26622 61.692 5.21774C61.7109 5.16925 61.7397 5.12521 61.7765 5.08839C61.8133 5.05158 61.8573 5.02278 61.9057 5.00382C61.9542 4.98485 62.006 4.97613 62.058 4.9782H72.3218C72.3738 4.97613 72.4256 4.98485 72.4741 5.00382C72.5225 5.02278 72.5665 5.05158 72.6033 5.08839C72.6401 5.12521 72.6689 5.16925 72.6878 5.21774C72.7068 5.26622 72.7155 5.31812 72.7134 5.37014V6.93789C72.7155 6.98992 72.7068 7.04181 72.6878 7.0903C72.6689 7.13878 72.6401 7.18282 72.6033 7.21964C72.5665 7.25646 72.5225 7.28525 72.4741 7.30422C72.4256 7.32318 72.3738 7.3319 72.3218 7.32983H68.4708V18.6797C68.4729 18.7317 68.4642 18.7836 68.4452 18.8321C68.4263 18.8806 68.3975 18.9247 68.3607 18.9615C68.3239 18.9983 68.2799 19.0271 68.2315 19.046C68.183 19.065 68.1312 19.0737 68.0792 19.0717H66.3006ZM36.782 13.4049L34.7586 7.59113L32.7189 13.4049H36.782ZM41.2694 18.6144C41.2909 18.6637 41.2999 18.7175 41.2956 18.7711C41.2913 18.8247 41.2739 18.8765 41.2448 18.9217C41.2157 18.9669 41.176 19.0043 41.129 19.0305C41.0821 19.0566 41.0294 19.0708 40.9756 19.0717H39.1318C39.0168 19.0786 38.903 19.0448 38.8105 18.9761C38.7179 18.9074 38.6526 18.8082 38.6259 18.6961L37.5816 15.7075H31.9031L30.8587 18.6961C30.8321 18.8082 30.7667 18.9074 30.6742 18.9761C30.5817 19.0448 30.4679 19.0786 30.3529 19.0717H28.6232C28.5695 19.0708 28.5168 19.0566 28.4698 19.0305C28.4229 19.0043 28.3831 18.9669 28.3541 18.9217C28.325 18.8765 28.3076 18.8247 28.3033 18.7711C28.299 18.7175 28.308 18.6637 28.3295 18.6144L33.0942 5.33748C33.1224 5.22735 33.1887 5.13081 33.2813 5.06502C33.374 4.99923 33.4869 4.96846 33.6001 4.9782H35.9498C36.0653 4.96641 36.1812 4.99607 36.2768 5.06188C36.3725 5.12769 36.4416 5.22536 36.472 5.33748L41.2694 18.6144ZM54.9272 17.161C56.0531 17.161 56.8037 16.622 57.4238 15.6749L54.5682 12.6047C53.4749 13.2252 52.7733 13.8295 52.7733 15.0706C52.7756 15.35 52.8334 15.6261 52.9432 15.883C53.0531 16.1398 53.2129 16.3722 53.4133 16.5667C53.6137 16.7612 53.8508 16.9139 54.1107 17.0159C54.3706 17.118 54.6481 17.1672 54.9272 17.161ZM55.7268 6.83991C54.813 6.83991 54.2908 7.42782 54.2908 8.19536C54.2908 8.7996 54.6009 9.32219 55.3351 10.0897C56.5916 9.37118 57.1138 8.93025 57.1138 8.14637C57.0975 7.44415 56.6406 6.83991 55.7268 6.83991ZM63.5103 18.5817C63.7387 18.8267 63.5919 19.0717 63.3145 19.0717H61.0789C60.9541 19.0825 60.8286 19.0611 60.7144 19.0097C60.6001 18.9582 60.5009 18.8784 60.4262 18.7777L59.0882 17.2916C58.1907 18.4838 56.9343 19.3819 54.8619 19.3819C52.3001 19.3819 50.2767 17.8305 50.2767 15.1686C50.2767 13.1273 51.37 12.0331 53.018 11.1186C52.2022 10.1877 51.8432 9.19154 51.8432 8.34234C51.8432 6.15402 53.377 4.66792 55.6778 4.66792C58.0276 4.66792 59.4798 6.05603 59.4798 8.11371C59.4798 9.87743 58.2071 10.8573 56.869 11.5922L58.8434 13.7152L59.953 11.7718C60.0089 11.6674 60.0947 11.5821 60.1994 11.5268C60.304 11.4715 60.4228 11.4488 60.5405 11.4615H62.2538C62.5312 11.4615 62.6944 11.6575 62.5149 11.9514L60.5405 15.3319L63.5103 18.5817ZM45.9525 19.0717C46.0045 19.0737 46.0564 19.065 46.1048 19.046C46.1532 19.0271 46.1973 18.9983 46.234 18.9615C46.2708 18.9247 46.2996 18.8806 46.3186 18.8321C46.3375 18.7836 46.3462 18.7317 46.3441 18.6797V7.32983H50.1951C50.2471 7.3319 50.2989 7.32318 50.3474 7.30422C50.3958 7.28525 50.4398 7.25646 50.4766 7.21964C50.5134 7.18282 50.5422 7.13878 50.5611 7.0903C50.5801 7.04181 50.5888 6.98992 50.5867 6.93789V5.37014C50.5888 5.31812 50.5801 5.26622 50.5611 5.21774C50.5422 5.16925 50.5134 5.12521 50.4766 5.08839C50.4398 5.05158 50.3958 5.02278 50.3474 5.00382C50.2989 4.98485 50.2471 4.97613 50.1951 4.9782H39.9476C39.8957 4.97613 39.8438 4.98485 39.7954 5.00382C39.7469 5.02278 39.7029 5.05158 39.6661 5.08839C39.6293 5.12521 39.6006 5.16925 39.5816 5.21774C39.5627 5.26622 39.5539 5.31812 39.556 5.37014V6.93789C39.5539 6.98992 39.5627 7.04181 39.5816 7.0903C39.6006 7.13878 39.6293 7.18282 39.6661 7.21964C39.7029 7.25646 39.7469 7.28525 39.7954 7.30422C39.8438 7.32318 39.8957 7.3319 39.9476 7.32983H43.7986V18.6797C43.7965 18.7317 43.8052 18.7836 43.8242 18.8321C43.8431 18.8806 43.8719 18.9247 43.9087 18.9615C43.9455 18.9983 43.9895 19.0271 44.0379 19.046C44.0864 19.065 44.1382 19.0737 44.1902 19.0717H45.9525ZM5.32166 21.2926C7.47813 22.9641 10.1477 23.8339 12.8741 23.7535C15.6005 23.6731 18.2142 22.6474 20.2686 20.8517C20.3012 20.8354 20.2849 20.8191 20.2523 20.8354C19.3222 21.456 16.6787 22.8114 12.5177 22.8114C8.89522 22.8114 6.61075 22.0112 5.32166 21.2763C5.32166 21.26 5.30534 21.2763 5.32166 21.2926ZM13.3336 21.8806C16.2218 21.8806 19.4038 21.0967 21.2966 19.5289C21.8815 19.0383 22.3734 18.4464 22.7489 17.7815C23.0217 17.3112 23.2563 16.8197 23.4505 16.3118C23.4668 16.2791 23.4505 16.2791 23.4179 16.2954C21.6556 18.892 16.5319 20.5251 11.245 20.5251C7.50822 20.5251 3.49409 19.333 1.91128 17.0466C1.89496 17.0303 1.87865 17.0303 1.89496 17.063C3.39618 20.1822 7.83457 21.8806 13.3336 21.8806ZM10.168 16.72C4.16311 16.72 1.32385 13.9111 0.801682 12.0004C0.801682 11.9678 0.769047 11.9841 0.769047 12.0004C0.76846 12.6794 0.82853 13.3571 0.948541 14.0254C1.05938 14.4105 1.26082 14.7633 1.53597 15.0543C2.98824 16.5731 6.62707 18.6961 12.9094 18.6961C21.4761 18.6961 23.4342 15.8382 23.8258 14.9073C24.1196 14.2378 24.2664 13.0293 24.2664 12.0004C24.2664 11.7555 24.2664 11.5595 24.2501 11.3635C24.2501 11.3309 24.2338 11.3309 24.2338 11.3635C23.8095 13.6662 16.4992 16.72 10.168 16.72ZM1.91128 6.95422C1.54005 7.73008 1.26075 8.54672 1.07908 9.38751C1.05154 9.48235 1.04313 9.58173 1.05434 9.67986C1.06554 9.77799 1.09614 9.87291 1.14435 9.95909C1.86233 11.4942 5.51747 13.9438 14.0189 13.9438C19.208 13.9438 23.2384 12.67 23.8911 10.3347C24.0183 9.8459 24.007 9.33133 23.8585 8.84859C23.6651 8.14631 23.4084 7.46306 23.0915 6.80725C23.0752 6.79092 23.0589 6.79092 23.0752 6.80725C23.1568 9.87743 14.6553 11.8371 10.3638 11.8371C5.71328 11.8371 1.82969 9.97542 1.82969 7.64012C1.83825 7.40869 1.87107 7.1788 1.9276 6.95422C1.94392 6.93789 1.9276 6.93789 1.91128 6.95422ZM20.2849 3.21448C20.3385 3.2971 20.3669 3.39359 20.3665 3.4921C20.3665 4.79856 16.3687 7.11753 10.0211 7.11753C5.3543 7.11753 4.47315 5.38647 4.47315 4.27598C4.4857 3.82732 4.65951 3.39825 4.96267 3.0675C4.97899 3.03484 4.96267 3.03484 4.94636 3.05117C4.34408 3.56933 3.79225 4.14348 3.29828 4.7659C3.06983 5.05985 2.92297 5.32115 2.92297 5.48445C2.92297 7.77076 8.65045 9.4365 14.0026 9.4365C19.7138 9.4365 22.2593 7.57479 22.2593 5.92539C22.2593 5.33748 22.0309 4.99453 21.4435 4.3413C21.0943 3.94584 20.7239 3.56967 20.3339 3.21448C20.2849 3.18181 20.2849 3.18181 20.2849 3.21448ZM18.5389 1.90801C16.7114 0.809748 14.6181 0.233646 12.4864 0.242283C10.3547 0.25092 8.26617 0.843967 6.44758 1.95701C5.92541 2.28362 5.61538 2.54491 5.61538 2.88786C5.61538 3.88404 7.93248 4.94554 12.0445 4.94554C16.1076 4.94554 19.2569 3.76972 19.2569 2.65923C19.2569 2.36528 19.0121 2.18564 18.5389 1.90801Z" fill="black"/>
</svg>
