<?xml version="1.0" encoding="utf-8"?>
<!-- Generator: Adobe Illustrator 26.5.0, SVG Export Plug-In . SVG Version: 6.00 Build 0)  -->
<svg version="1.1" id="Layer_1" xmlns="http://www.w3.org/2000/svg" xmlns:xlink="http://www.w3.org/1999/xlink" x="0px" y="0px"
	 viewBox="0 0 106 41" style="enable-background:new 0 0 106 41;" xml:space="preserve">
<style type="text/css">
	.st0{fill-rule:evenodd;clip-rule:evenodd;}
</style>
<path class="st0" d="M52.8,37.7c15.6,0,30.8-0.7,45.2-2v0.6c-14.4,2.3-29.6,4-45.2,4s-30.8-1.7-45.2-4v-0.6
	C22,37,37.2,37.7,52.8,37.7z"/>
<path d="M4.5,29.7V27H2.3v2.7H0.7v-5.4c0-0.3-0.1-0.5-0.3-0.7v0h1.9V26h2.2v-2.4h1.6v6.1H4.5L4.5,29.7z"/>
<path d="M11.6,29.8c-1.9,0-3.1-1.1-3.1-3.2c0-2.1,1.2-3.2,3.1-3.2c1.9,0,3.1,1.1,3.1,3.2S13.5,29.8,11.6,29.8z M11.6,24.5
	c-1.1,0-1.5,1.2-1.5,2.1c0,1,0.3,2.2,1.5,2.2c1.1,0,1.5-1.2,1.5-2.2C13.1,25.6,12.7,24.5,11.6,24.5z"/>
<path d="M22,24.3c-0.1,0.3-0.3,0.4-0.7,0.4h-1.1v5h-1.6v-5h-1.8c-0.1,0-0.2,0-0.3,0.1l0,0l0.4-0.8c0.2-0.3,0.4-0.4,0.7-0.4h4.9
	L22,24.3L22,24.3z"/>
<path d="M24.2,29.7v-6.1h4.3v1h-2.7V26h2.3V27h-2.3v1.7h2.8v1H24.2L24.2,29.7z"/>
<path d="M31.1,29.7v-5.4c0-0.3-0.1-0.5-0.3-0.7v0h1.9v5.1h2.8v1H31.1L31.1,29.7z"/>
<path d="M39.4,29.8c-0.8,0-1.3-0.1-1.9-0.3l0.5-1c0.4,0.1,0.8,0.2,1.2,0.2c0.6,0,0.9-0.2,0.9-0.7c0-0.5-0.3-0.6-1.2-1.1
	c-0.9-0.5-1.6-1-1.6-2c0.1-1.2,1.1-1.7,2.2-1.7c0.7,0,1.2,0,1.9,0.3v0l-0.5,0.9c-0.4-0.2-0.8-0.2-1.1-0.2c-0.5,0-0.9,0.2-0.9,0.6
	c0,0.5,0.6,0.7,1.3,1.1c0.9,0.5,1.5,0.8,1.5,1.9C41.8,28.8,41.2,29.8,39.4,29.8L39.4,29.8z"/>
<path d="M50.9,29.7l-0.3-0.4c-0.3,0.2-0.8,0.6-1.7,0.6c-1.3,0-2-0.7-2-1.7c0-1,0.7-1.4,1.3-1.8c-0.2-0.2-0.6-0.7-0.6-1.4
	c0-0.8,0.7-1.5,1.8-1.5c1.2,0,1.6,0.8,1.6,1.3c0,0.8-0.8,1.4-1.1,1.6l0.9,1.1c0.3-0.5,0.5-0.7,0.7-1.1l1,0.7
	c-0.3,0.5-0.6,0.9-0.9,1.3c0.2,0.3,1.1,1.4,1.1,1.4L50.9,29.7L50.9,29.7z M48.9,27.2c-0.3,0.2-0.6,0.4-0.6,0.8
	c0,0.3,0.3,0.7,0.7,0.7c0.4,0,0.6-0.2,0.8-0.3L48.9,27.2z M49.4,24.3c-0.3,0-0.5,0.2-0.5,0.5c0,0.2,0.1,0.3,0.4,0.7
	c0.2-0.2,0.5-0.4,0.5-0.8C49.9,24.4,49.6,24.3,49.4,24.3L49.4,24.3z"/>
<path d="M62.5,29.7c-0.5,0-0.9,0-1.2-0.4l-1.4-2h-0.3v2.5H58v-6.1h2.4c1.8,0,2.3,0.9,2.3,1.8c0,0.6-0.2,1.3-1.2,1.6l1.7,2.5
	c0.1,0.1,0.2,0.2,0.3,0.3v0L62.5,29.7L62.5,29.7z M60.1,24.6h-0.4v1.6h0.5c0.7,0,1.1-0.3,1.1-0.8C61.2,24.8,60.8,24.5,60.1,24.6
	L60.1,24.6z"/>
<path d="M65.3,29.7v-6.1h4.3v1h-2.7V26h2.3V27h-2.3v1.7h2.8v1H65.3L65.3,29.7z"/>
<path d="M73.8,29.8c-0.8,0-1.3-0.1-1.9-0.3l0.5-1c0.4,0.1,0.8,0.2,1.2,0.2c0.6,0,0.9-0.2,0.9-0.7c0-0.5-0.3-0.6-1.2-1.1
	c-0.9-0.5-1.6-1-1.6-2c0.1-1.2,1.1-1.7,2.2-1.7c0.7,0,1.2,0,1.9,0.3v0l-0.5,0.9c-0.4-0.2-0.8-0.2-1.1-0.2c-0.5,0-0.9,0.2-0.9,0.6
	c0,0.5,0.6,0.7,1.3,1.1c0.9,0.5,1.5,0.8,1.5,1.9C76.2,28.8,75.6,29.8,73.8,29.8L73.8,29.8z"/>
<path d="M81.3,29.8c-1.9,0-3.1-1.1-3.1-3.2c0-2.1,1.2-3.2,3.1-3.2s3.1,1.1,3.1,3.2S83.2,29.8,81.3,29.8z M81.3,24.5
	c-1.1,0-1.5,1.2-1.5,2.1c0,1,0.3,2.2,1.5,2.2s1.5-1.2,1.5-2.2C82.7,25.6,82.4,24.5,81.3,24.5z"/>
<path d="M91.2,29.7c-0.5,0-0.9,0-1.2-0.4l-1.4-2h-0.3v2.5h-1.6v-6.1h2.4c1.8,0,2.3,0.9,2.3,1.8c0,0.6-0.2,1.3-1.2,1.6l1.7,2.5
	c0.1,0.1,0.2,0.2,0.3,0.3v0L91.2,29.7L91.2,29.7z M88.8,24.6h-0.4v1.6h0.5c0.7,0,1.1-0.3,1.1-0.8C89.9,24.8,89.6,24.5,88.8,24.6
	L88.8,24.6z"/>
<path d="M98.9,24.3c-0.1,0.3-0.3,0.4-0.7,0.4H97v5h-1.6v-5h-1.8c-0.1,0-0.2,0-0.3,0.1l0,0l0.4-0.8c0.2-0.3,0.4-0.4,0.7-0.4h4.9
	L98.9,24.3L98.9,24.3z"/>
<path d="M102.7,29.8c-0.8,0-1.3-0.1-1.9-0.3l0.5-1c0.4,0.1,0.8,0.2,1.2,0.2c0.6,0,0.9-0.2,0.9-0.7c0-0.5-0.3-0.6-1.2-1.1
	c-0.9-0.5-1.6-1-1.6-2c0.1-1.2,1.1-1.7,2.2-1.7c0.7,0,1.2,0,1.9,0.3v0l-0.5,0.9c-0.4-0.2-0.8-0.2-1.1-0.2c-0.5,0-0.9,0.2-0.9,0.6
	c0,0.5,0.6,0.7,1.3,1.1c0.9,0.5,1.5,0.8,1.5,1.9C105.1,28.8,104.5,29.8,102.7,29.8L102.7,29.8z"/>
<path class="st0" d="M15.4,14.9c-0.4,0-0.9-0.1-1.2-0.2l-2.1,3.4c0.6,0.5,1.9,0.9,2.6,0.9c2.3,0,3.8-2.3,6.6-8.7l3.4,7.2h4.5
	l-2.1-4.9l1.2-2.5l3.3,7.4h4.3L28.5,0.9L25,2.6l2.7,6.2l-1.2,2.4l-5-10.8l-3.7,1.9l3,6.5l-1.2,2.4C18.9,12.9,17.2,14.9,15.4,14.9
	L15.4,14.9z"/>
<path class="st0" d="M44.6,14V7.3c0-1-0.2-1.8-0.7-2.4c-0.4-0.5-1.1-1.1-2.9-1.1c-1.3,0-2.4,0.2-3.2,0.6c-0.4,0.2-0.6,0.5-0.8,1
	c-0.2,0.5-0.4,1.3-0.5,2.1c1.2-1.1,2.4-1.7,3.2-1.8c1-0.2,1.7,0.1,1.7,0.6c0,0.4-0.3,0.6-0.8,0.9c-0.7,0.3-2.1,0.7-3.3,1.4
	c-1,0.6-1.9,1.6-1.9,3.6c0.1,2.1,1.6,3.5,2.9,3.5c1.4,0,2.2-0.7,3.1-1.4c0.1,0.4,0.3,1,0.7,1.3h3.1C44.8,15.1,44.6,14.6,44.6,14
	L44.6,14z M40.7,13.2c-0.5,0.4-0.8,0.4-1.2,0.4c-0.7,0-1.1-0.7-1.1-1.7c0-0.6,0.2-1.3,0.4-1.8c0.5-0.8,1.1-1.4,1.8-1.4
	c0.4,0,0.6,0.2,0.6,0.7c0,0.4,0,0.7,0,1.4C41.3,12.4,41.2,12.8,40.7,13.2L40.7,13.2z"/>
<path class="st0" d="M60.3,3.9c0.9,0,1.5,0.4,1.9,0.8l-1.4,2.1c-0.7-0.5-1.6-0.7-2.3-0.1V13c0,1.1,0.2,2,0.7,2.6h-3.1
	c-0.7-0.5-0.9-1.3-0.9-2V5.4c0-0.7-0.1-1-0.4-1.3H58c0.2,0.2,0.3,0.5,0.4,0.8C58.9,4.3,59.5,3.9,60.3,3.9L60.3,3.9z"/>
<path class="st0" d="M66.6,6.4V13c0,1.1,0.2,2,0.7,2.6h-3.1c-0.7-0.5-0.9-1.3-0.9-2V5.4c0-0.7-0.1-1-0.4-1.3h3.2
	C66.5,4.6,66.6,5.3,66.6,6.4L66.6,6.4z"/>
<path class="st0" d="M52.2,3.9c0.9,0,1.5,0.4,1.9,0.8l-1.4,2.1c-0.7-0.5-1.6-0.7-2.3-0.1V13c0,1.1,0.2,2,0.7,2.6H48
	c-0.7-0.5-0.9-1.3-0.9-2V5.4c0-0.7-0.1-1-0.4-1.3h3.2c0.2,0.2,0.3,0.5,0.4,0.8C50.8,4.3,51.4,3.9,52.2,3.9L52.2,3.9z"/>
<path class="st0" d="M77.5,6.6c-0.5-0.8-1.4-1.8-2.7-2.5c-0.9-0.5-1.4-0.5-3.3,0.4c-0.5,0.3-1.7,0.9-2.3,1.8
	c-0.2,0.3-0.3,0.9-0.4,1.6c-0.1,1.2-0.1,2.7,0,3.8c0.2,2.6,2.7,3.8,3.7,4.1c1.6,0.5,3.5-1.2,4-1.7c0.9-0.9,1.3-1.5,1.4-2.6
	c0.1-0.5,0.1-1.2,0.1-2C78,8.5,77.9,7.2,77.5,6.6L77.5,6.6z M74.3,13.3c-0.3,0.5-0.5,0.7-0.9,0.7c-0.4,0-0.8-0.4-1.1-1.3
	c-0.3-1-0.3-3.6-0.2-4.2c0.1-1,0.1-1.7,0.5-2.3c0.2-0.3,0.6-0.7,1.1-0.6c0.6,0.2,1.1,1,1.2,3.4C75,11.7,74.6,12.8,74.3,13.3
	L74.3,13.3z"/>
<path class="st0" d="M83.5,4.9V13c0,1.1,0.2,2,0.7,2.6H81c-0.7-0.5-0.9-1.3-0.9-2V4.9h-1.8l0.4-1.1h1.4V1.4l3.3-1.2v3.7h1.6
	l-0.4,1.1L83.5,4.9L83.5,4.9z"/>
<path class="st0" d="M90.5,4.9V13c0,1.1,0.2,2,0.7,2.6h-3.2c-0.7-0.5-0.9-1.3-0.9-2V4.9h-1.8l0.4-1.1h1.4V1.4l3.3-1.2v3.7h1.6
	l-0.4,1.1L90.5,4.9L90.5,4.9z"/>
<path d="M93.7,15.7c-0.8,0-1.4-0.6-1.4-1.4c0-0.8,0.6-1.4,1.4-1.4s1.4,0.6,1.4,1.4C95.1,15.1,94.4,15.7,93.7,15.7z M93.7,13.1
	c-0.7,0-1.2,0.5-1.2,1.2c0,0.7,0.5,1.2,1.2,1.2c0.7,0,1.2-0.5,1.2-1.2C94.9,13.6,94.3,13.1,93.7,13.1z M94.2,15.1
	c-0.1,0-0.2,0-0.2-0.1l-0.4-0.6h-0.1v0.7h-0.3v-1.7h0.6c0.5,0,0.5,0.3,0.5,0.5c0,0.2-0.2,0.4-0.4,0.5l0.5,0.7c0,0,0,0.1,0.1,0.1
	C94.3,15.1,94.2,15.1,94.2,15.1L94.2,15.1z M93.6,13.7h-0.2v0.5h0.2c0.2,0,0.4-0.1,0.4-0.3C94,13.7,93.8,13.7,93.6,13.7z"/>
</svg>
