<svg width="73" height="27" viewBox="0 0 73 27" fill="none" xmlns="http://www.w3.org/2000/svg">
<path d="M8.71752 26.2638C6.59543 26.179 4.85925 25.5949 3.50169 24.5101C3.24261 24.3029 2.62524 23.6815 2.41812 23.4194C1.86761 22.7231 1.49334 22.0455 1.2437 21.2936C0.475537 18.9792 0.870885 15.9422 2.37451 12.6092C3.66194 9.75563 5.64849 6.9255 9.11433 3.00579C9.62486 2.42902 11.1452 0.742188 11.155 0.742188C11.1587 0.742188 11.0758 0.886566 10.9715 1.06238C10.0704 2.5807 9.29928 4.36913 8.87922 5.91742C8.20444 8.40178 8.28584 10.5338 9.11759 12.187C9.69136 13.3259 10.675 14.3124 11.7811 14.8578C13.7175 15.8121 16.5525 15.8911 20.0147 15.0888C20.2531 15.0332 32.0649 11.8792 46.2632 8.07977C60.4616 4.27995 72.0804 1.17349 72.0822 1.17605C72.0862 1.17934 39.0954 15.3793 21.9693 22.7462C19.2571 23.9125 18.5318 24.2071 17.2567 24.6574C13.9973 25.8088 11.0776 26.3581 8.71752 26.2638Z" fill="black"/>
</svg>
