<svg width="61" height="51" viewBox="0 0 61 51" fill="none" xmlns="http://www.w3.org/2000/svg">
<path d="M34.9977 27.2194C34.9535 27.2273 34.759 27.2336 34.6815 27.2336H28.5248V28.6577H34.7764C34.8286 28.6577 35.1875 28.6546 35.2697 28.6482C36.5456 28.5344 37.1259 27.4738 37.1259 26.535C37.1259 25.5834 36.5203 24.5608 35.3645 24.447C35.1384 24.4249 34.9519 24.4249 34.8618 24.4264H30.781C30.596 24.4264 30.4047 24.4106 30.3272 24.3901C30.0015 24.3031 29.8861 24.0218 29.8861 23.7879C29.8861 23.5729 30.0047 23.2868 30.3383 23.1872C30.4379 23.1572 30.5407 23.1556 30.7652 23.1556H36.6642V21.7441H30.6703C30.4158 21.7441 30.2308 21.7536 30.0711 21.7758C29.0434 21.9164 28.3271 22.7447 28.3271 23.791C28.3271 24.6461 28.8647 25.6451 30.0474 25.8174C30.2576 25.8474 30.5628 25.8458 30.6909 25.8458H34.6736C34.7495 25.8458 34.9266 25.8506 34.9629 25.8553C35.4104 25.9169 35.5685 26.2536 35.5685 26.546C35.5669 26.8305 35.3914 27.1498 34.9977 27.2194Z" fill="black"/>
<path d="M23.3503 27.2194C23.306 27.2273 23.1115 27.2336 23.0341 27.2336H16.8773V28.6577H23.1289C23.1811 28.6577 23.5416 28.6546 23.6222 28.6482C24.8981 28.5344 25.48 27.4723 25.48 26.535C25.48 25.5834 24.8744 24.5608 23.7187 24.447C23.4926 24.4249 23.306 24.4249 23.2159 24.4264H19.1319C18.947 24.4264 18.7556 24.4106 18.6782 24.3901C18.3541 24.3031 18.2371 24.0218 18.2371 23.7879C18.2371 23.5729 18.3556 23.2868 18.6892 23.1872C18.7889 23.1572 18.8932 23.1556 19.1177 23.1556H25.0167V21.7441H19.0229C18.7683 21.7441 18.5833 21.7536 18.4236 21.7758C17.3959 21.9148 16.6797 22.7447 16.6797 23.791C16.6797 24.6461 17.2173 25.6451 18.3999 25.8174C18.6102 25.8474 18.9138 25.8442 19.0434 25.8458H23.0246C23.1005 25.8458 23.2775 25.8506 23.3139 25.8553C23.7598 25.9169 23.9195 26.2536 23.9195 26.546C23.9195 26.8305 23.7424 27.1498 23.3503 27.2194Z" fill="black"/>
<path d="M13.6596 21.707H12.1133V28.6949H13.6596V21.707Z" fill="black"/>
<path d="M8.69278 28.6968V21.709H7.1449V26.9171L1.99216 21.709H0V28.6968H1.54788V23.454L6.73856 28.6968H8.69278Z" fill="black"/>
<path d="M58.5176 21.709V26.9171L53.3633 21.709H51.3711V28.6968H52.919V23.454L58.1097 28.6968H60.0639V21.709H58.5176Z" fill="black"/>
<path d="M43.3092 21.707L38.9438 28.6949H40.8206L41.5969 27.4462H46.688L47.4643 28.6949H49.3395L44.9757 21.707H43.3092ZM45.8895 26.1264H42.3953L44.144 23.3177L45.8895 26.1264Z" fill="black"/>
<path d="M8.60743 17.7357C11.7253 8.62512 20.339 2.50343 30.0406 2.50343C39.7421 2.50343 48.3542 8.62512 51.4737 17.7357L51.499 17.8116H58.3214V16.9929L55.4833 16.6625C53.7346 16.4586 53.3599 15.6873 52.8856 14.7105L52.7702 14.4749C48.6688 5.73577 39.7468 0.0898438 30.0406 0.0898438C20.3327 0.0898438 11.4107 5.73735 7.31094 14.4749L7.19552 14.712C6.72278 15.6889 6.34806 16.4602 4.59781 16.6641L1.75977 16.9944V17.8132H8.58213L8.60743 17.7357Z" fill="black"/>
<path d="M51.4959 32.5985L51.4706 32.6744C48.3512 41.785 39.739 47.9051 30.0391 47.9051C30.0391 47.9051 30.0375 47.9051 30.0359 47.9051C20.3344 47.9035 11.7223 41.7802 8.60596 32.6696L8.58066 32.5938H1.7583V33.4125L4.59476 33.7428C6.3466 33.9467 6.71973 34.7181 7.19247 35.6949L7.30789 35.9288C11.4076 44.6696 20.3297 50.3171 30.0375 50.3187C30.0391 50.3187 30.0391 50.3187 30.0407 50.3187C39.7453 50.3187 48.6674 44.6728 52.7687 35.9367L52.8841 35.6981C53.3569 34.7212 53.7316 33.9499 55.4818 33.7476L58.3215 33.4172V32.5985H51.4959Z" fill="black"/>
</svg>
