<svg width="143" height="26" viewBox="0 0 143 26" fill="none" xmlns="http://www.w3.org/2000/svg">
<path d="M120.438 17.7922V10.6331C120.438 8.78923 119.853 7.37762 118.147 7.37762C116.441 7.37762 115.568 9.06818 115.568 10.456L115.569 17.7922H113.641V1.41208H115.576V8.07846C116.046 7.32753 116.957 6.64353 118.536 6.64353C120.86 6.64353 122.369 8.27796 122.369 10.5338V17.7922H120.438ZM75.6705 17.7874H77.5765V1.40992H75.6705V17.7874ZM58.0779 6.65649C56.6801 6.65649 55.667 7.30421 55.1104 8.15791V7.0516H53.2035V17.7943H55.1104V10.4103C55.1104 8.80736 56.2586 7.3746 57.7134 7.3746C59.2692 7.3746 60.0288 8.61909 60.0288 10.4038V17.7948H61.9327V10.5377C61.9327 8.28141 60.2711 6.65649 58.0779 6.65649ZM132 7.05117V14.5C132 16.3439 131.173 17.4571 129.576 17.4571C127.979 17.4571 127.107 16.3439 127.107 14.5V7.0516H125.177L125.196 13.6791C125.196 16.3041 126.726 18.2028 129.534 18.2028C132.342 18.2028 133.932 16.3041 133.932 13.6791V7.0516H132V7.05117ZM48.2048 7.05117V14.5C48.2048 16.3439 47.3774 17.4571 45.7806 17.4571C44.1837 17.4571 43.3115 16.3439 43.3115 14.5V7.0516H41.3813L41.4007 13.6791C41.4007 16.3041 42.9306 18.2028 45.7387 18.2028C48.5468 18.2028 50.1363 16.3041 50.1363 13.6791V7.0516H48.2048V7.05117ZM88.0312 11.1452V17.7805H86.1438V16.6802C85.702 17.3258 84.7179 18.0443 83.5149 18.0443C81.2444 18.0443 80.1173 16.6802 80.1173 15.1149C80.1173 12.8038 81.6581 12.375 83.7273 11.7631C85.4662 11.2484 86.2742 10.9837 86.2742 9.49913C86.2742 8.2948 85.5137 7.43073 83.9678 7.43073C82.4219 7.43073 81.6365 8.11214 81.1528 9.2517L80.4788 8.97793C81.082 7.43332 82.415 6.70787 84.0248 6.70787C86.291 6.70787 88.0308 8.47702 88.0308 11.1456L88.0312 11.1452ZM86.1438 11.5831C85.7223 11.9018 85.2136 12.1004 84.0084 12.4376C82.5014 12.8604 82.029 13.4559 82.029 15.0588C82.029 16.2139 82.3723 17.2951 83.6353 17.3146C85.0612 17.3146 86.1438 16.0848 86.1438 14.9396V11.5831ZM70.7715 10.6219C70.7715 8.14928 70.0094 7.3841 68.5218 7.3841C67.0342 7.3841 66.2746 8.14841 66.2746 10.6219V11.3827C66.2746 13.7361 67.0264 14.3769 68.5092 14.3769C69.9921 14.3769 70.7715 13.7361 70.7715 11.3827V10.6219ZM73.4946 6.99244V7.71962H71.5432C72.3183 8.45284 72.7307 9.53541 72.7307 10.8481C72.7307 13.4485 71.2327 15.1007 68.5088 15.1007C67.0648 15.1188 65.8708 14.9962 65.8708 16.0463C65.8708 16.8128 67.2773 16.7316 68.764 16.799C70.9486 16.8983 73.169 17.0991 73.169 19.7185C73.169 21.7614 70.911 23.1804 68.5835 23.1804C67.1801 23.1804 65.9473 22.746 65.1916 22.0529L65.6821 21.5166C66.3303 22.0887 67.3481 22.4566 68.5839 22.4566C70.2823 22.4566 71.7375 21.7398 71.7375 20.4401C71.7375 18.8924 70.7681 18.8652 68.7126 18.7089C66.8796 18.5729 65.0646 18.2292 65.0646 16.4721C65.0646 15.5623 65.4369 14.8826 66.3869 14.5622C65.0659 13.8691 64.3379 12.6514 64.3379 10.8477C64.3379 8.35137 65.8203 6.64569 68.5213 6.64569C69.277 6.64569 69.9519 6.79337 70.4792 6.99201H73.4941L73.4946 6.99244ZM139.257 2.97353H137.326V7.0503H136.111V7.78353H137.326L137.314 13.9952C137.314 16.7813 138.611 18.1221 140.765 18.1221C141.297 18.1221 141.71 18.0456 142.036 17.9385L141.924 17.2848C141.697 17.353 141.46 17.3958 141.213 17.3958C139.761 17.3958 139.257 16.4043 139.257 14.4706V7.78439H141.783V7.05117H139.257V2.97439V2.97353ZM25.6528 12.508C25.6528 5.60415 20.056 0.0078125 13.1526 0.0078125C6.24911 0.0078125 0.652344 5.60415 0.652344 12.508C0.652344 19.4119 6.24911 25.0078 13.1526 25.0078C20.056 25.0078 25.6528 19.4115 25.6528 12.508ZM38.6405 9.25775C38.6405 8.22225 37.3045 6.7774 34.869 6.7774C32.6806 6.7774 31.2448 8.27493 31.2448 10.1909C31.2448 12.4718 33.0511 13.0335 34.8803 13.3017C36.4214 13.5288 37.7954 13.9935 37.7954 15.5333C37.7954 16.742 36.5661 17.499 35.0236 17.499C33.9069 17.499 33.1228 17.122 32.4366 16.4432L31.8895 16.9808C32.7151 17.8055 33.8284 18.2369 35.0236 18.2369C37.1827 18.2369 39.106 16.8033 39.106 14.7647C39.106 12.9981 38.4738 11.6694 34.9178 11.1759C33.4397 10.9708 32.1818 10.6862 32.228 9.37995H32.2289C32.2652 8.37771 33.3706 7.50285 34.9165 7.50285C35.7478 7.50285 36.7319 7.77662 37.133 8.18339L37.0704 8.21232C36.6611 8.39973 36.3972 8.81125 36.3972 9.25818C36.3972 9.86013 36.9063 10.3684 37.5083 10.3684C38.1102 10.3684 38.6414 9.86013 38.6414 9.25818L38.6405 9.25775ZM97.5472 9.25775C97.5472 8.22225 96.2111 6.7774 93.7757 6.7774C91.5872 6.7774 90.1514 8.27493 90.1514 10.1909C90.1514 12.4718 91.9577 13.0335 93.7869 13.3017C95.3281 13.5288 96.7021 13.9935 96.7021 15.5333C96.7021 16.742 95.4727 17.499 93.9303 17.499C92.8136 17.499 92.0294 17.122 91.3433 16.4432L90.7961 16.9808C91.6218 17.8055 92.735 18.2369 93.9303 18.2369C96.0893 18.2369 98.0126 16.8033 98.0126 14.7647C98.0126 12.9981 97.3805 11.6694 93.8245 11.1759C92.3464 10.9708 91.0885 10.6862 91.1347 9.37995H91.1355C91.1718 8.37771 92.2773 7.50285 93.8232 7.50285C94.6544 7.50285 95.6385 7.77662 96.0397 8.18339L95.9771 8.21232C95.5677 8.39973 95.3039 8.81125 95.3039 9.25818C95.3039 9.86013 95.813 10.3684 96.4149 10.3684C97.0169 10.3684 97.548 9.86013 97.548 9.25818L97.5472 9.25775ZM107.09 9.25775C107.09 8.22225 105.754 6.7774 103.319 6.7774C101.13 6.7774 99.6946 8.27493 99.6946 10.1909C99.6946 12.4718 101.501 13.0335 103.33 13.3017C104.871 13.5288 106.245 13.9935 106.245 15.5333C106.245 16.742 105.016 17.499 103.473 17.499C102.357 17.499 101.573 17.122 100.886 16.4432L100.339 16.9808C101.165 17.8055 102.278 18.2369 103.473 18.2369C105.632 18.2369 107.556 16.8033 107.556 14.7647C107.556 12.9981 106.924 11.6694 103.368 11.1759C101.89 10.9708 100.632 10.6862 100.678 9.37995H100.679C100.715 8.37771 101.82 7.50285 103.366 7.50285C104.198 7.50285 105.182 7.77662 105.583 8.18339L105.52 8.21232C105.111 8.39973 104.847 8.81125 104.847 9.25818C104.847 9.86013 105.356 10.3684 105.958 10.3684C106.56 10.3684 107.091 9.86013 107.091 9.25818L107.09 9.25775Z" fill="black"/>
</svg>
