<?xml version="1.0" encoding="utf-8"?>
<!-- Generator: Adobe Illustrator 26.5.0, SVG Export Plug-In . SVG Version: 6.00 Build 0)  -->
<svg version="1.1" id="Layer_1" xmlns="http://www.w3.org/2000/svg" xmlns:xlink="http://www.w3.org/1999/xlink" x="0px" y="0px"
	 viewBox="0 0 53.2 59.9" style="enable-background:new 0 0 53.2 59.9;" xml:space="preserve">
<style type="text/css">
	.st0{fill:#AAAAAA;}
</style>
<g>
	<path class="st0" d="M46.5,2.9c-0.5-0.5-1-0.7-1.7-0.7H8.9c-0.7,0-1.2,0.2-1.7,0.7C6.7,3.4,6.5,3.9,6.5,4.6v33.8
		c0,0.7,0.2,1.2,0.7,1.7c0.5,0.5,1,0.7,1.7,0.7h35.9c0.7,0,1.2-0.2,1.7-0.7c0.5-0.5,0.7-1.1,0.7-1.7V4.6C47.2,3.9,47,3.4,46.5,2.9z
		 M46.1,38.4c0,0.4-0.1,0.7-0.4,0.9c-0.3,0.2-0.6,0.4-0.9,0.4H8.9c-0.4,0-0.7-0.1-0.9-0.4c-0.2-0.2-0.4-0.6-0.4-0.9V4.6
		c0-0.4,0.1-0.7,0.4-0.9c0.2-0.2,0.6-0.4,0.9-0.4h35.9c0.4,0,0.7,0.1,0.9,0.4c0.2,0.2,0.4,0.6,0.4,0.9V38.4z"/>
	<polygon class="st0" points="27.3,13.1 25.1,19.7 18.1,19.7 23.8,23.7 21.7,30.3 27.3,26.3 33,30.4 30.9,23.6 36.4,19.7 29.5,19.7 
			"/>
	<path class="st0" d="M27.3,5.9l-3.9,11.6H11.1l10.1,7.1l-3.8,11.6l9.9-7.1l10.1,7.3l-3.7-11.9l9.8-7v0H31.2L27.3,5.9z M32,23.9
		l2.8,8.9l0,0l-7.5-5.4l-7.4,5.3l2.8-8.7l-7.6-5.4h9.3l2.9-8.7l2.9,8.7h9.2L32,23.9z"/>
	<path class="st0" d="M44.8,44.2H8.9c-0.7,0-1.2,0.2-1.7,0.7c-0.5,0.5-0.7,1.1-0.7,1.7v8.2c0,0.7,0.2,1.2,0.7,1.7
		c0.5,0.5,1,0.7,1.7,0.7h35.9c0.7,0,1.2-0.2,1.7-0.7c0.5-0.5,0.7-1,0.7-1.7v-8.2c0-0.7-0.2-1.2-0.7-1.7
		C46.1,44.4,45.5,44.2,44.8,44.2z M46.1,54.8c0,0.4-0.1,0.7-0.4,0.9c-0.3,0.3-0.6,0.4-0.9,0.4H8.9c-0.4,0-0.7-0.1-0.9-0.4
		c-0.2-0.2-0.4-0.5-0.4-0.9v-8.2c0-0.4,0.1-0.7,0.4-0.9c0.2-0.2,0.6-0.4,0.9-0.4h35.9c0.4,0,0.7,0.1,0.9,0.4
		c0.2,0.2,0.4,0.6,0.4,0.9V54.8z"/>
	<polygon class="st0" points="18.1,47.3 17.1,48.3 17.1,50.4 18.2,51.4 19.3,51.5 19.3,53 18.7,53 18.7,52.1 17.1,52.1 17.1,53.3 
		18.1,54.3 19.9,54.3 21,53.3 21,51.1 19.9,50.1 18.7,50 18.7,48.6 19.3,48.6 19.3,49.5 21,49.5 21,48.3 21,48.3 19.8,47.3 	"/>
	<rect x="21.5" y="52.9" class="st0" width="1.6" height="1.4"/>
	<polygon class="st0" points="12.6,53 11.9,53 11.9,47.3 10.2,47.3 10.2,53.3 11.3,54.3 13.2,54.3 14.2,53.3 14.2,47.3 12.6,47.3 	
		"/>
	<rect x="14.8" y="52.9" class="st0" width="1.6" height="1.4"/>
	<polygon class="st0" points="36.7,47.3 36.2,50.7 36.1,50.7 35.5,47.3 33.6,47.3 33.6,54.3 35.1,54.3 35.1,49.8 35.1,49.8 
		35.8,54.3 36.4,54.3 37.1,49.8 37.2,49.8 37.2,54.3 38.6,54.3 38.6,47.3 38.6,47.3 	"/>
	<polygon class="st0" points="41.5,49.8 41.5,49.8 40.9,47.3 39.3,47.3 40.7,51.3 40.7,54.3 42.3,54.3 42.3,51.3 43.7,47.3 
		42.1,47.3 	"/>
	<path class="st0" d="M24.8,47.3l-1,7.1h1.6l0.1-1.3h0.9l0.1,1.3h1.6l-1-7.1H24.8z M25.7,51.7l0.2-2.9h0.2l0.3,2.9H25.7z"/>
	<path class="st0" d="M28.9,47.3v7.1h1.6v-2.8h0.7v2.8h1.6v-2.8l-0.8-0.7l0.8-0.7v-1.8l-1.1-1H28.9z M31.2,50.2h-0.7v-1.6h0.7V50.2z
		"/>
</g>
</svg>
